<svg width="20" height="20" viewBox="0 0 20 20" fill="none" xmlns="http://www.w3.org/2000/svg">
<path fill-rule="evenodd" clip-rule="evenodd" d="M17.5026 10H12.5026C12.0424 10 11.6693 9.6269 11.6693 9.16667V5.83333C11.6693 3.99238 13.1617 2.5 15.0026 2.5V2.5C16.8436 2.5 18.3359 3.99238 18.3359 5.83333V9.16667C18.3359 9.6269 17.9628 10 17.5026 10Z" stroke="#08151A" stroke-linecap="round" stroke-linejoin="round"/>
<path fill-rule="evenodd" clip-rule="evenodd" d="M15 15V15C13.6193 15 12.5 13.8807 12.5 12.5V10H17.5V12.5C17.5 13.8807 16.3807 15 15 15Z" stroke="#08151A" stroke-linecap="round" stroke-linejoin="round"/>
<path fill-rule="evenodd" clip-rule="evenodd" d="M7.5026 12.5H2.5026C2.04237 12.5 1.66927 12.1269 1.66927 11.6667L1.66927 8.33333C1.66927 6.49238 3.16166 5 5.0026 5V5C6.84355 5 8.33594 6.49238 8.33594 8.33333V11.6667C8.33594 12.1269 7.96284 12.5 7.5026 12.5Z" stroke="#08151A" stroke-linecap="round" stroke-linejoin="round"/>
<path fill-rule="evenodd" clip-rule="evenodd" d="M5 17.5V17.5C3.61929 17.5 2.5 16.3807 2.5 15L2.5 12.5H7.5L7.5 15C7.5 16.3807 6.38071 17.5 5 17.5Z" stroke="#08151A" stroke-linecap="round" stroke-linejoin="round"/>
<path d="M11.668 7.49992H18.3346" stroke="#08151A" stroke-linecap="round" stroke-linejoin="round"/>
<path d="M1.66797 9.99992H8.33464" stroke="#08151A" stroke-linecap="round" stroke-linejoin="round"/>
</svg>
