<svg width="34" height="34" viewBox="0 0 34 34" fill="none" xmlns="http://www.w3.org/2000/svg">
<rect width="34" height="34" rx="17" fill="#1C8CF3"/>
<path fill-rule="evenodd" clip-rule="evenodd" d="M12.3306 21.2291C11.4833 20.8528 10.5162 20.8528 9.66891 21.2291C9.4586 21.3225 9.21239 21.2278 9.11898 21.0174C9.02557 20.8071 9.12034 20.5609 9.33065 20.4675C10.3933 19.9955 11.6062 19.9955 12.6689 20.4675C13.5162 20.8439 14.4833 20.8439 15.3306 20.4675C16.3933 19.9955 17.6062 19.9955 18.6689 20.4675C19.5162 20.8439 20.4833 20.8439 21.3306 20.4675C22.3933 19.9955 23.6062 19.9955 24.6689 20.4675C24.8792 20.5609 24.974 20.8071 24.8806 21.0174C24.7872 21.2278 24.541 21.3225 24.3306 21.2291C23.4833 20.8528 22.5162 20.8528 21.6689 21.2291C20.6062 21.7011 19.3933 21.7011 18.3306 21.2291C17.4833 20.8528 16.5162 20.8528 15.6689 21.2291C14.6062 21.7011 13.3933 21.7011 12.3306 21.2291Z" fill="white"/>
<path fill-rule="evenodd" clip-rule="evenodd" d="M13.25 13.6667C13.25 13.4365 13.4365 13.25 13.6667 13.25H20.3333C20.5635 13.25 20.75 13.4365 20.75 13.6667C20.75 13.8968 20.5635 14.0833 20.3333 14.0833H13.6667C13.4365 14.0833 13.25 13.8968 13.25 13.6667Z" fill="white"/>
<path fill-rule="evenodd" clip-rule="evenodd" d="M13.25 16.9999C13.25 16.7698 13.4365 16.5833 13.6667 16.5833H20.3333C20.5635 16.5833 20.75 16.7698 20.75 16.9999C20.75 17.23 20.5635 17.4166 20.3333 17.4166H13.6667C13.4365 17.4166 13.25 17.23 13.25 16.9999Z" fill="white"/>
<path fill-rule="evenodd" clip-rule="evenodd" d="M21.5837 9.91659C21.1238 9.91659 20.7503 10.29 20.7503 10.7499V18.6666C20.7503 18.8967 20.5638 19.0833 20.3337 19.0833C20.1035 19.0833 19.917 18.8967 19.917 18.6666V10.7499C19.917 9.8298 20.6635 9.08325 21.5837 9.08325C22.5038 9.08325 23.2503 9.8298 23.2503 10.7499C23.2503 10.98 23.0638 11.1666 22.8337 11.1666C22.6035 11.1666 22.417 10.98 22.417 10.7499C22.417 10.29 22.0435 9.91659 21.5837 9.91659Z" fill="white"/>
<path fill-rule="evenodd" clip-rule="evenodd" d="M14.9167 9.91659C14.4568 9.91659 14.0833 10.29 14.0833 10.7499V18.6666C14.0833 18.8967 13.8968 19.0833 13.6667 19.0833C13.4365 19.0833 13.25 18.8967 13.25 18.6666V10.7499C13.25 9.8298 13.9965 9.08325 14.9167 9.08325C15.8368 9.08325 16.5833 9.8298 16.5833 10.7499C16.5833 10.98 16.3968 11.1666 16.1667 11.1666C15.9365 11.1666 15.75 10.98 15.75 10.7499C15.75 10.29 15.3765 9.91659 14.9167 9.91659Z" fill="white"/>
<path fill-rule="evenodd" clip-rule="evenodd" d="M12.3306 24.5624C11.4833 24.186 10.5162 24.186 9.66891 24.5624C9.4586 24.6558 9.21239 24.561 9.11898 24.3507C9.02557 24.1404 9.12034 23.8942 9.33065 23.8008C10.3933 23.3288 11.6062 23.3288 12.6689 23.8008C13.5162 24.1771 14.4833 24.1771 15.3306 23.8008C16.3933 23.3288 17.6062 23.3288 18.6689 23.8008C19.5162 24.1771 20.4833 24.1771 21.3306 23.8008C22.3933 23.3288 23.6062 23.3288 24.6689 23.8008C24.8792 23.8942 24.974 24.1404 24.8806 24.3507C24.7872 24.561 24.541 24.6558 24.3306 24.5624C23.4833 24.186 22.5162 24.186 21.6689 24.5624C20.6062 25.0344 19.3933 25.0344 18.3306 24.5624C17.4833 24.186 16.5162 24.186 15.6689 24.5624C14.6062 25.0344 13.3933 25.0344 12.3306 24.5624Z" fill="white"/>
</svg>
