<svg width="34" height="34" viewBox="0 0 34 34" fill="none" xmlns="http://www.w3.org/2000/svg">
<path d="M0 17C0 7.61116 7.61116 0 17 0C26.3888 0 34 7.61116 34 17C34 26.3888 26.3888 34 17 34C7.61116 34 0 26.3888 0 17Z" fill="#C052E7"/>
<g clip-path="url(#clip0_84_2226)">
<path d="M16.9067 14.6344C14.4821 14.6344 12.0575 14.6327 9.63292 14.6344C8.51677 14.6352 7.98178 15.1711 7.97921 16.2889C7.97579 17.3675 7.97665 18.4469 7.97921 19.5254C7.98007 20.0869 8.09972 20.2091 8.6518 20.21C10.6704 20.2117 12.6891 20.21 14.7077 20.2108C14.8786 20.2108 15.0504 20.2006 15.2153 20.2595C15.4384 20.339 15.5837 20.4937 15.5786 20.733C15.5734 20.9697 15.4316 21.1347 15.2 21.1919C15.0675 21.2244 14.9256 21.2278 14.788 21.2278C12.9719 21.2304 11.1567 21.2355 9.34063 21.2253C9.04066 21.2236 8.9099 21.3065 8.93041 21.6227C8.95178 21.9526 8.93981 22.285 8.93298 22.6158C8.92614 22.9508 8.72274 23.1687 8.43644 23.161C8.1621 23.1542 7.96981 22.9439 7.96383 22.6235C7.95614 22.2175 7.95614 21.8116 7.96383 21.4056C7.96725 21.2253 7.90486 21.1125 7.74248 21.021C7.23911 20.7407 7.00921 20.2886 7.00579 19.7246C6.9981 18.5067 6.99895 17.2889 7.00323 16.0719C7.00665 15.0198 7.62112 14.1404 8.60907 13.7926C8.83897 13.7114 8.92614 13.596 8.92358 13.3533C8.91332 12.3705 8.91845 11.3877 8.9193 10.4057C8.9193 8.45799 10.3764 7 12.3216 7C15.4512 7 18.5809 7.00085 21.7105 7C23.5847 7 25.0769 8.47338 25.0854 10.3459C25.0914 11.5526 25.0872 12.7602 25.0854 13.9669C25.0846 14.4669 24.9137 14.6335 24.4052 14.6335C21.9062 14.6344 19.4064 14.6335 16.9075 14.6335L16.9067 14.6344ZM17.0374 7.97342V7.97598C15.4564 7.97598 13.8761 7.96402 12.2951 7.9794C11.0063 7.99222 9.94828 8.92462 9.9064 10.1117C9.86879 11.1996 9.89871 12.2901 9.89358 13.3798C9.89272 13.5858 9.97819 13.6661 10.1816 13.6635C10.7687 13.6576 11.3567 13.655 11.9438 13.6652C12.1891 13.6695 12.2575 13.5678 12.2455 13.3371C12.2318 13.0713 12.2404 12.8046 12.3207 12.544C12.6532 11.4569 13.5463 10.7963 14.7265 10.7894C16.1896 10.7817 17.6536 10.8142 19.1159 10.78C20.7627 10.7407 21.8609 12.0047 21.7575 13.3482C21.7396 13.5849 21.843 13.6695 22.0763 13.6652C22.6318 13.655 23.1873 13.6499 23.742 13.6652C24.0172 13.6738 24.1197 13.5883 24.1154 13.302C24.1009 12.3944 24.1129 11.4868 24.1103 10.5783C24.106 8.94342 23.1326 7.97428 21.49 7.97257C20.0055 7.97086 18.521 7.97257 17.0366 7.97257L17.0374 7.97342ZM16.9964 13.6627C18.1271 13.6627 19.2577 13.6567 20.3884 13.667C20.6662 13.6695 20.7892 13.6046 20.785 13.2943C20.773 12.3859 20.22 11.809 19.3124 11.8073C17.7656 11.8047 16.2195 11.8047 14.6727 11.8073C13.7744 11.809 13.2335 12.3705 13.2232 13.2755C13.2198 13.5618 13.3035 13.6712 13.6044 13.6678C14.735 13.6533 15.8657 13.6618 16.9964 13.6618V13.6627Z" fill="white"/>
<path d="M22.2337 26.0403C19.5997 26.0403 17.4452 23.8807 17.4512 21.2484C17.4563 18.6546 19.6219 16.489 22.2089 16.4907C24.8232 16.4924 26.9897 18.6461 27.0008 21.2553C27.0119 23.8551 24.8335 26.0412 22.2345 26.0403H22.2337ZM25.9812 21.2758C26.0667 19.3691 24.4831 17.477 22.2192 17.4838C20.0287 17.4906 18.4357 19.1811 18.4383 21.2749C18.4408 23.4482 20.139 25.0447 22.2029 25.0524C24.5027 25.0618 26.0462 23.1611 25.9812 21.2758Z" fill="white"/>
<path d="M24.0452 21.2527C24.0529 21.5099 23.8512 21.7244 23.5597 21.7475C23.3692 21.7629 23.176 21.7594 22.9846 21.7552C22.7957 21.7509 22.7111 21.8347 22.7145 22.0235C22.7179 22.215 22.7222 22.4081 22.7068 22.5987C22.6829 22.8918 22.4709 23.0918 22.212 23.085C21.9505 23.0781 21.7633 22.8705 21.736 22.5807C21.7112 22.3209 21.8556 21.997 21.6531 21.8159C21.4702 21.6518 21.1608 21.774 20.9078 21.7535C20.6155 21.7295 20.4113 21.5381 20.4045 21.2757C20.3976 21.0048 20.6138 20.8023 20.9164 20.7749C21.1762 20.751 21.5009 20.8971 21.6804 20.6895C21.8394 20.5049 21.7189 20.1955 21.7377 19.9425C21.759 19.6579 21.959 19.4494 22.2205 19.4451C22.465 19.4417 22.6701 19.634 22.7068 19.9075C22.7154 19.9707 22.7137 20.0348 22.7137 20.0989C22.7179 20.8723 22.6487 20.7672 23.4068 20.7766C23.8025 20.7818 24.0358 20.957 24.0443 21.2527H24.0452Z" fill="white"/>
</g>
<defs>
<clipPath id="clip0_84_2226">
<rect width="20" height="19.0403" fill="white" transform="translate(7 7)"/>
</clipPath>
</defs>
</svg>
