<svg width="34" height="34" viewBox="0 0 34 34" fill="none" xmlns="http://www.w3.org/2000/svg">
<rect width="34" height="34" rx="17" fill="#01B7F2"/>
<path fill-rule="evenodd" clip-rule="evenodd" d="M20.3327 18.25C20.5628 18.25 20.7493 18.4365 20.7493 18.6667V22.1715C20.7493 22.4016 20.5628 22.5881 20.3327 22.5881C20.1026 22.5881 19.916 22.4016 19.916 22.1715V18.6667C19.916 18.4365 20.1026 18.25 20.3327 18.25Z" fill="white"/>
<path fill-rule="evenodd" clip-rule="evenodd" d="M13.6667 18.25C13.8968 18.25 14.0833 18.4365 14.0833 18.6667V22.1715C14.0833 22.4016 13.8968 22.5881 13.6667 22.5881C13.4365 22.5881 13.25 22.4016 13.25 22.1715V18.6667C13.25 18.4365 13.4365 18.25 13.6667 18.25Z" fill="white"/>
<path fill-rule="evenodd" clip-rule="evenodd" d="M16.9997 19.0833C17.2298 19.0833 17.4163 19.2698 17.4163 19.4999V24.2916C17.4163 24.5217 17.2298 24.7082 16.9997 24.7082C16.7696 24.7082 16.583 24.5217 16.583 24.2916V19.4999C16.583 19.2698 16.7696 19.0833 16.9997 19.0833Z" fill="white"/>
<path d="M17.7436 11.1673C18.4516 11.1509 18.7564 11.4932 18.6434 12.061C18.5565 12.5021 18.4369 12.9366 18.3238 13.3728C18.2304 13.7349 18.0058 13.9999 17.6486 14.1069C17.1618 14.2533 16.6701 14.3982 16.1703 14.4854C15.5967 14.5825 15.2443 14.1875 15.3525 13.5933C15.4246 13.1918 15.5426 12.7984 15.636 12.4001C15.754 11.8932 16.0588 11.5755 16.5685 11.457C17.0045 11.3549 17.4371 11.243 17.7436 11.1673ZM17.8419 12.298C17.8567 12.1581 17.8993 11.9475 17.701 11.9656C17.2798 12.0051 16.798 12.0182 16.4981 12.3326C16.2014 12.6437 16.1867 13.1226 16.1359 13.5473C16.1162 13.7119 16.2653 13.7036 16.3997 13.6954C17.3208 13.6444 17.7649 13.2181 17.8419 12.298Z" fill="white"/>
<path fill-rule="evenodd" clip-rule="evenodd" d="M16.9993 9.08333C14.9283 9.08333 13.2493 10.7623 13.2493 12.8333C13.2493 14.9044 14.9283 16.5833 16.9993 16.5833C19.0704 16.5833 20.7493 14.9044 20.7493 12.8333C20.7493 10.7623 19.0704 9.08333 16.9993 9.08333ZM12.416 12.8333C12.416 10.302 14.468 8.25 16.9993 8.25C19.5307 8.25 21.5827 10.302 21.5827 12.8333C21.5827 15.3646 19.5307 17.4167 16.9993 17.4167C14.468 17.4167 12.416 15.3646 12.416 12.8333Z" fill="white"/>
<path fill-rule="evenodd" clip-rule="evenodd" d="M10.8986 13.6606C11.017 13.8579 10.953 14.1139 10.7557 14.2323L10.1187 14.6145C9.99315 14.6898 9.91635 14.8254 9.91634 14.9718C9.91634 14.9718 9.91634 14.9718 9.91634 14.9718V23.0281C9.91633 23.1782 9.99708 23.3168 10.1277 23.3907C10.2583 23.4647 10.4186 23.4627 10.5474 23.3855C10.5474 23.3855 10.5474 23.3855 10.5474 23.3855L12.9714 21.931C13.4072 21.6695 13.958 21.6979 14.3646 22.0029C14.3646 22.0029 14.3646 22.0029 14.3646 22.0029L16.7497 23.7916C16.8978 23.9028 17.1015 23.9028 17.2497 23.7916L19.6348 22.0029C19.6347 22.0029 19.6348 22.0029 19.6348 22.0029C20.0413 21.6979 20.5921 21.6695 21.0279 21.931L23.452 23.3854C23.5807 23.4627 23.741 23.4647 23.8716 23.3907C24.0023 23.3168 24.083 23.1782 24.083 23.0281V14.9718C24.083 14.8254 24.0062 14.6898 23.8807 14.6145L23.2436 14.2323C23.0463 14.1139 22.9823 13.8579 23.1007 13.6606C23.2191 13.4633 23.4751 13.3993 23.6724 13.5177L24.3094 13.8999C24.3094 13.8999 24.3094 13.8999 24.3094 13.8999C24.6859 14.1258 24.9163 14.5327 24.9163 14.9718V23.0281C24.9164 23.4784 24.6741 23.894 24.2823 24.1159C23.8904 24.3378 23.4094 24.3317 23.0233 24.1L20.5992 22.6456C20.4539 22.5584 20.2703 22.5679 20.1348 22.6695L17.7497 24.4583C17.3052 24.7916 16.6941 24.7916 16.2497 24.4583C16.2497 24.4583 16.2497 24.4583 16.2497 24.4583L13.8646 22.6696C13.7291 22.5679 13.5455 22.5584 13.4002 22.6456L10.9761 24.1C10.5899 24.3317 10.109 24.3378 9.7171 24.1159C9.32522 23.894 9.083 23.4785 9.08301 23.0281C9.08301 23.0281 9.08301 23.0281 9.08301 23.0281V14.9718C9.08302 14.5327 9.3134 14.1258 9.68991 13.8999C9.68991 13.8999 9.68991 13.8999 9.68991 13.8999L10.327 13.5177C10.5243 13.3993 10.7802 13.4633 10.8986 13.6606Z" fill="white"/>
</svg>
