<svg width="34" height="34" viewBox="0 0 34 34" fill="none" xmlns="http://www.w3.org/2000/svg">
<rect width="34" height="34" rx="17" fill="#3ACAC1"/>
<path fill-rule="evenodd" clip-rule="evenodd" d="M11.79 16.5832C11.79 16.3531 11.9766 16.1665 12.2067 16.1665H13.8741C14.1042 16.1665 14.2907 16.3531 14.2907 16.5832C14.2907 16.8133 14.1042 16.9998 13.8741 16.9998H12.2067C11.9766 16.9998 11.79 16.8133 11.79 16.5832Z" fill="white"/>
<path fill-rule="evenodd" clip-rule="evenodd" d="M24.0426 12.8412C24.1455 13.047 24.0622 13.2973 23.8564 13.4002L22.0914 14.2831C21.8856 14.3861 21.6353 14.3027 21.5324 14.0969C21.4294 13.8911 21.5128 13.6408 21.7186 13.5378L23.4835 12.655C23.6893 12.552 23.9396 12.6354 24.0426 12.8412Z" fill="white"/>
<path fill-rule="evenodd" clip-rule="evenodd" d="M9.12416 12.8413C9.22707 12.6354 9.47735 12.552 9.68318 12.6549L11.4489 13.5378C11.6547 13.6407 11.7382 13.891 11.6352 14.0968C11.5323 14.3026 11.2821 14.3861 11.0762 14.2831L9.3105 13.4003C9.10467 13.2974 9.02125 13.0471 9.12416 12.8413Z" fill="white"/>
<path fill-rule="evenodd" clip-rule="evenodd" d="M11.6036 10.6888C11.8244 9.74656 12.6649 9.08032 13.6326 9.08032H19.5336C20.5014 9.08032 21.3418 9.74655 21.5627 10.6888L22.3661 14.1168C22.4186 14.3409 22.2796 14.5651 22.0555 14.6176C21.8315 14.6701 21.6073 14.531 21.5548 14.307L20.7513 10.879L21.157 10.7839L20.7513 10.879C20.6188 10.3135 20.1144 9.91366 19.5336 9.91366H13.6326C13.0518 9.91366 12.5475 10.3135 12.4149 10.879L12.0093 10.7839L12.4149 10.879L11.6115 14.307C11.559 14.531 11.3348 14.6701 11.1107 14.6176C10.8867 14.5651 10.7476 14.3409 10.8001 14.1168L11.6036 10.6888Z" fill="white"/>
<path fill-rule="evenodd" clip-rule="evenodd" d="M9.08008 16.5832C9.08008 14.9718 10.3864 13.6655 11.9978 13.6655H21.1683C22.7797 13.6655 24.086 14.9718 24.086 16.5832V17.0001C24.086 17.2302 23.8994 17.4167 23.6693 17.4167C23.4392 17.4167 23.2526 17.2302 23.2526 17.0001V16.5832C23.2526 15.4321 22.3194 14.4989 21.1683 14.4989H11.9978C10.8466 14.4989 9.91341 15.4321 9.91341 16.5832V20.3348C9.91341 20.5651 10.1001 20.7518 10.3304 20.7518H12.1945C12.4248 20.7518 12.6115 20.5651 12.6115 20.3348V19.0843C12.6115 18.8542 12.7981 18.6676 13.0282 18.6676H16.9757C17.2058 18.6676 17.3924 18.8542 17.3924 19.0843C17.3924 19.3144 17.2058 19.5009 16.9757 19.5009H13.4449V20.3348C13.4449 21.0253 12.8851 21.5851 12.1945 21.5851H10.3304C9.63988 21.5851 9.08008 21.0253 9.08008 20.3348V16.5832Z" fill="white"/>
<path fill-rule="evenodd" clip-rule="evenodd" d="M18.876 16.5832C18.876 16.3531 19.0625 16.1665 19.2926 16.1665H20.96C21.1901 16.1665 21.3767 16.3531 21.3767 16.5832C21.3767 16.8133 21.1901 16.9998 20.96 16.9998H19.2926C19.0625 16.9998 18.876 16.8133 18.876 16.5832Z" fill="white"/>
<path fill-rule="evenodd" clip-rule="evenodd" d="M22.0025 18.2507C22.2326 18.2507 22.4192 18.4373 22.4192 18.6674C22.4192 20.0488 23.539 21.1686 24.9204 21.1686C25.1505 21.1686 25.3371 21.3552 25.3371 21.5853C25.3371 21.8154 25.1505 22.0019 24.9204 22.0019C23.539 22.0019 22.4192 23.1218 22.4192 24.5032C22.4192 24.7333 22.2326 24.9198 22.0025 24.9198C21.7724 24.9198 21.5859 24.7333 21.5859 24.5032C21.5859 23.1218 20.466 22.0019 19.0846 22.0019C18.8545 22.0019 18.668 21.8154 18.668 21.5853C18.668 21.3552 18.8545 21.1686 19.0846 21.1686C20.466 21.1686 21.5859 20.0488 21.5859 18.6674C21.5859 18.4373 21.7724 18.2507 22.0025 18.2507ZM22.0025 20.2827C21.6992 20.8294 21.2467 21.282 20.7 21.5853C21.2467 21.8886 21.6992 22.3411 22.0025 22.8878C22.3058 22.3411 22.7583 21.8886 23.3051 21.5853C22.7583 21.282 22.3058 20.8294 22.0025 20.2827Z" fill="white"/>
</svg>
