<svg width="27" height="27" viewBox="0 0 27 27" fill="none" xmlns="http://www.w3.org/2000/svg">
<path fill-rule="evenodd" clip-rule="evenodd" d="M3.32896 12.1544C3.8161 6.79123 8.55783 2.83917 13.921 3.32631C17.4364 3.64562 20.3343 5.79859 21.7834 8.74416C21.9362 9.05481 21.8565 9.4297 21.5906 9.65135L13.2528 16.6006C13.1 16.728 12.9028 16.7894 12.7047 16.7714C12.5066 16.7534 12.3237 16.6574 12.1964 16.5046L8.77664 12.4004C8.51149 12.0822 8.5545 11.6093 8.87273 11.3441C9.19095 11.079 9.66387 11.122 9.92903 11.4402L12.8686 14.9681L20.1607 8.89042C18.8611 6.65974 16.5467 5.07098 13.7853 4.82016C9.24717 4.40796 5.23502 7.75195 4.82281 12.2901C4.41061 16.8282 7.7546 20.8403 12.2927 21.2525C16.5203 21.6365 20.2902 18.758 21.1179 14.6914C21.2006 14.2855 21.5966 14.0235 22.0025 14.1061C22.4084 14.1887 22.6704 14.5847 22.5878 14.9906C21.6095 19.7971 17.1555 23.2004 12.157 22.7464C6.79388 22.2592 2.84182 17.5175 3.32896 12.1544Z" fill="#FF692E"/>
</svg>
