<svg width="24" height="24" viewBox="0 0 24 24" fill="none" xmlns="http://www.w3.org/2000/svg">
<path fill-rule="evenodd" clip-rule="evenodd" d="M9.25 2C9.25 1.58579 9.58579 1.25 10 1.25H14C14.4142 1.25 14.75 1.58579 14.75 2C14.75 2.41421 14.4142 2.75 14 2.75H10C9.58579 2.75 9.25 2.41421 9.25 2Z" fill="#FF692E"/>
<path fill-rule="evenodd" clip-rule="evenodd" d="M17.1265 7.87347C14.2952 5.04218 9.70477 5.04218 6.87347 7.87347C4.04218 10.7048 4.04218 15.2952 6.87347 18.1265C9.70477 20.9578 14.2952 20.9578 17.1265 18.1265C19.9578 15.2952 19.9578 10.7048 17.1265 7.87347ZM18.1872 6.81281C14.7701 3.39573 9.2299 3.39573 5.81281 6.81281C2.39573 10.2299 2.39573 15.7701 5.81281 19.1872C9.2299 22.6043 14.7701 22.6043 18.1872 19.1872C21.6043 15.7701 21.6043 10.2299 18.1872 6.81281Z" fill="#FF692E"/>
<path fill-rule="evenodd" clip-rule="evenodd" d="M20.5266 4.46967C20.8195 4.76256 20.8195 5.23744 20.5266 5.53033L18.1866 7.87033C17.8937 8.16322 17.4188 8.16322 17.1259 7.87033C16.833 7.57744 16.833 7.10256 17.1259 6.80967L19.4659 4.46967C19.7588 4.17678 20.2337 4.17678 20.5266 4.46967Z" fill="#FF692E"/>
<path fill-rule="evenodd" clip-rule="evenodd" d="M18.4697 3.46967C18.7626 3.17678 19.2374 3.17678 19.5303 3.46967L21.5303 5.46967C21.8232 5.76256 21.8232 6.23744 21.5303 6.53033C21.2374 6.82322 20.7626 6.82322 20.4697 6.53033L18.4697 4.53033C18.1768 4.23744 18.1768 3.76256 18.4697 3.46967Z" fill="#FF692E"/>
<path fill-rule="evenodd" clip-rule="evenodd" d="M13.4161 8.91352C13.709 9.20641 13.709 9.68128 13.4161 9.97418L11.4849 11.9054L14.1102 13.218C14.3258 13.3258 14.4765 13.5307 14.5151 13.7687C14.5537 14.0067 14.4756 14.2487 14.3051 14.4192L11.6381 17.0862C11.3452 17.3791 10.8703 17.3791 10.5774 17.0862C10.2845 16.7933 10.2845 16.3184 10.5774 16.0255L12.5086 14.0943L9.88335 12.7817C9.66772 12.6739 9.51706 12.469 9.47844 12.231C9.43983 11.993 9.51796 11.751 9.68843 11.5805L12.3554 8.91352C12.6483 8.62062 13.1232 8.62062 13.4161 8.91352Z" fill="#FF692E"/>
</svg>
