<svg width="26" height="26" viewBox="0 0 26 26" fill="none" xmlns="http://www.w3.org/2000/svg">
<path fill-rule="evenodd" clip-rule="evenodd" d="M17.7498 8.43823C17.7218 8.02497 18.0341 7.66723 18.4473 7.6392L19.445 7.57153C20.9608 7.46873 22.272 8.61341 22.3748 10.1291L22.8485 17.1131C22.9513 18.6288 21.8066 19.9401 20.2909 20.0429L9.3161 20.7872C7.80037 20.89 6.48912 19.7453 6.38632 18.2296L6.31865 17.2319C6.29062 16.8186 6.60292 16.4609 7.01618 16.4329C7.42944 16.4048 7.78718 16.7171 7.81521 17.1304L7.88288 18.1281C7.92962 18.8173 8.52539 19.3374 9.2146 19.2907L20.1894 18.5463C20.8786 18.4996 21.3987 17.9038 21.3519 17.2146L20.8783 10.2306C20.8315 9.54144 20.2358 9.02135 19.5465 9.06809L18.5488 9.13576C18.1356 9.16379 17.7778 8.85149 17.7498 8.43823Z" fill="#FF692E"/>
<path fill-rule="evenodd" clip-rule="evenodd" d="M2.72295 8.53842C2.61711 6.97779 3.79713 5.62606 5.35776 5.52021L16.1669 4.78711C17.7277 4.68126 19.0797 5.86151 19.1842 7.42363L19.6071 13.6587C19.713 15.219 18.5342 16.5709 16.9723 16.6769L6.16414 17.4099C4.60328 17.5158 3.25177 16.3355 3.14587 14.7741L2.72295 8.53842ZM5.45926 7.01678C4.72516 7.06656 4.16972 7.70282 4.21951 8.43692L4.64243 14.6726C4.6923 15.4079 5.32878 15.9631 6.06264 15.9133L16.8708 15.1803C17.6057 15.1305 18.1604 14.4945 18.1106 13.7602L17.6876 7.52448C17.6384 6.78974 17.0024 6.23389 16.2684 6.28367L5.45926 7.01678Z" fill="#FF692E"/>
<path fill-rule="evenodd" clip-rule="evenodd" d="M14.2617 8.67504C14.2337 8.26177 14.546 7.90404 14.9592 7.87601L15.4581 7.84217C15.8713 7.81415 16.2291 8.12644 16.2571 8.5397C16.2851 8.95297 15.9728 9.31071 15.5596 9.33874L15.0607 9.37257C14.6475 9.4006 14.2897 9.0883 14.2617 8.67504Z" fill="#FF692E"/>
<path fill-rule="evenodd" clip-rule="evenodd" d="M6.082 13.74C6.05397 13.3267 6.36627 12.969 6.77953 12.9409L7.27838 12.9071C7.69165 12.8791 8.04939 13.1914 8.07742 13.6046C8.10544 14.0179 7.79315 14.3756 7.37989 14.4037L6.88103 14.4375C6.46777 14.4655 6.11003 14.1532 6.082 13.74Z" fill="#FF692E"/>
<path fill-rule="evenodd" clip-rule="evenodd" d="M11.7481 10.4823C11.4103 10.1874 10.8964 10.2223 10.6014 10.5601C10.3065 10.8979 10.3414 11.4119 10.6792 11.7068C11.0171 12.0017 11.531 11.9669 11.8259 11.629C12.1208 11.2912 12.086 10.7773 11.7481 10.4823ZM12.7346 9.35233C11.7727 8.5126 10.3112 8.61172 9.47144 9.57364C8.63171 10.5356 8.73084 11.9971 9.69276 12.8368C10.6547 13.6765 12.1162 13.5774 12.9559 12.6155C13.7956 11.6536 13.6965 10.1921 12.7346 9.35233Z" fill="#FF692E"/>
</svg>
