<svg width="44" height="33" viewBox="0 0 44 33" fill="none" xmlns="http://www.w3.org/2000/svg">
<path d="M16.6563 13.912C17.0226 13.8437 17.4746 13.867 17.9257 13.8598C18.2526 13.8541 18.2872 13.8019 18.1135 13.5345C17.6911 12.8832 17.2293 12.2583 16.7567 11.6407C16.4859 11.2865 16.42 11.2697 16.024 11.4833C15.9433 11.5267 15.8676 11.5789 15.7877 11.6246C15.5967 11.7347 15.5194 11.8816 15.586 12.1025C15.7243 12.5635 15.8478 13.0277 15.9804 13.4903C16.0841 13.8533 16.178 13.9168 16.6563 13.912ZM22.783 13.1217C23.1609 13.1217 23.4679 13.4204 23.4679 13.7899C23.4679 14.1593 23.1617 14.4581 22.783 14.4581C22.4043 14.4581 22.098 14.1593 22.098 13.7899C22.098 13.4204 22.4043 13.1217 22.783 13.1217ZM29.5576 17.0201C29.5667 17.0474 29.5757 17.0747 29.5839 17.102C29.8573 17.0747 30.1289 17.041 30.4023 17.0225C30.9349 16.9864 31.4684 16.9567 32.0019 16.9318C32.0718 16.9285 32.2126 16.8812 32.1624 17.0554C32.0784 17.351 32.1138 17.4008 32.4357 17.4056C32.886 17.412 33.3133 17.2996 33.7192 17.1205C34.3811 16.8281 35.0018 16.3174 35.7806 16.3712C37.9787 16.5222 40.6428 16.2579 42.6754 15.3343C42.78 15.311 42.9784 15.1592 42.8384 15.1295C42.5701 15.0725 42.3634 15.0709 42.0975 15.0677C41.6258 15.0613 41.154 15.0348 40.6815 15.0155C38.7954 14.9384 36.4376 15.0323 34.6141 14.8067C34.0304 14.7344 33.5356 14.8107 33.0169 15.1311C32.15 15.666 31.2206 16.1029 30.3199 16.5856C30.0623 16.7237 29.812 16.8755 29.5584 17.0217L29.5576 17.0201ZM36.4977 8.32777C36.161 8.09567 35.7847 8.09888 35.4134 8.10852C34.4618 8.13341 33.6558 8.57032 32.8548 9.00321C31.8743 9.53247 30.9069 10.085 29.9347 10.6271C28.4808 11.4375 27.0269 12.2471 25.5747 13.0598C25.4594 13.1241 25.3573 13.2116 25.2495 13.2879C25.1729 13.3417 25.0181 13.3466 25.0626 13.4815C25.0955 13.5803 25.2231 13.5554 25.3112 13.5514C26.1773 13.5176 27.0351 13.6349 27.8963 13.6807C27.9926 13.6855 28.1062 13.6638 28.1836 13.8148C27.8938 13.867 27.6196 13.9377 27.3414 13.9642C26.1946 14.0734 25.0445 14.1071 23.8919 14.1015C23.7454 14.1015 23.7248 14.0509 23.7347 13.9232C23.7693 13.4839 23.5741 13.1634 23.165 12.9827C22.7731 12.8093 22.3409 12.9105 22.0083 13.2333C21.7885 13.4478 21.5868 13.675 21.511 13.9802C21.4567 14.1995 21.3225 14.2758 21.0904 14.287C19.9699 14.3416 18.8478 14.3119 17.729 14.3513C15.1884 14.4404 12.6478 14.3834 10.1072 14.4011C9.77217 14.4035 9.48156 14.4926 9.23952 14.7247C9.16708 14.7946 9.06993 14.8428 9.00407 14.9175C8.51917 15.466 7.90502 15.5158 7.2176 15.4211C6.12019 15.2701 5.01126 15.1946 3.90809 15.0878C2.65262 14.9665 1.39632 14.7978 0.128498 14.8187C0.0889812 14.8187 0.0486414 14.8075 0.0115946 14.8018C-0.034508 14.6862 0.0683996 14.6613 0.118619 14.6075C0.720422 13.9658 1.50581 14.0694 2.27145 14.1063C2.76293 14.1304 3.2536 14.1939 3.74591 14.2067C5.35867 14.2493 6.96979 14.3537 8.58503 14.3465C8.86576 14.3457 8.98514 14.2573 9.03453 13.9883C9.33338 12.3675 9.89896 10.8287 10.6415 9.359C11.7249 7.21704 13.2513 5.41239 15.1365 3.88644C16.9189 2.4432 18.9219 1.40636 21.1299 0.756621C22.9419 0.225749 24.7983 -0.0665917 26.6984 0.0129186C28.149 0.0731537 29.5946 0.217718 30.9901 0.62571C32.6671 1.11643 34.2839 1.74367 35.7782 2.66166C37.0122 3.41982 38.145 4.29523 39.1692 5.29915C40.4098 6.5159 41.401 7.91175 42.2037 9.44333C43.1233 11.1998 43.6502 13.0614 43.9144 15.005C44.0396 15.9343 43.9885 16.8683 43.991 17.8007C43.9918 17.9919 43.8873 18.0521 43.7062 18.0778C42.4285 18.2609 41.4488 18.9163 40.7465 19.9475C40.1464 20.8278 40.0031 21.8236 40.1283 22.8621C40.1373 22.932 40.1546 23.0002 40.162 23.0701C40.1678 23.1287 40.1826 23.1978 40.12 23.234C40.0566 23.2709 40.0048 23.2211 39.9537 23.1898C38.4826 22.2742 36.8731 21.8783 35.1368 21.9955C33.669 22.0943 32.3517 22.6163 31.2033 23.4966C29.6012 24.7254 28.6166 26.322 28.3713 28.3194C28.3458 28.5282 28.3128 28.7386 28.3186 28.9475C28.326 29.2028 28.2132 29.3121 27.9621 29.3322C26.4572 29.451 25.2758 30.5979 25.0058 32.0243C24.949 32.3254 24.944 32.6362 24.9095 33.0001C24.6501 32.7888 24.4295 32.6017 24.1883 32.4403C23.1213 31.7255 21.963 31.4637 20.7018 31.7737C20.0448 31.9351 19.4669 32.2644 19.019 32.7752C18.9128 32.8957 18.8231 32.874 18.6963 32.8218C17.2416 32.2226 15.9639 31.352 14.7685 30.3642C13.304 29.1555 12.1242 27.7114 11.1297 26.1148C10.0389 24.364 9.31526 22.4782 8.89622 20.476C8.58915 19.0103 8.58339 17.5261 8.62537 16.0403C8.63031 15.8604 8.67065 15.6805 8.90281 15.6773C9.77464 15.666 11.7875 15.7728 12.4725 15.7054C12.4955 15.7054 14.6706 15.7327 14.8723 15.7921C15.1448 15.8025 15.4346 17.0675 16.1878 16.327C16.2537 16.2627 16.308 16.1134 16.4538 16.0595C16.8226 15.9238 18.1777 16.0523 18.3975 16.0852C18.6807 16.1278 18.8824 16.2025 19.0133 16.2965C18.1085 16.9285 18.1439 16.9567 16.7361 17.8297C15.47 17.8007 14.2063 17.8682 12.9426 17.9084C12.0929 17.9357 11.2351 17.9068 10.3921 18.0682C10.3419 18.0778 10.2867 18.0762 10.2406 18.0955C10.0817 18.163 9.85285 18.1597 9.87673 18.33C9.90143 18.5035 10.1311 18.4866 10.2719 18.4922C12.0789 18.5605 13.8868 18.6151 15.6931 18.689C15.9919 18.7011 16.3056 18.6818 16.5237 19.0111C16.6505 19.203 16.9617 19.207 17.212 19.2127C19.3953 19.2592 21.5769 19.2351 23.719 18.7709C24.851 18.5252 25.9517 18.1686 26.9964 17.6449C28.4248 16.9293 29.7807 16.0941 31.1802 15.3335C32.4909 14.6211 33.8089 13.9224 35.0767 13.141C36.1149 12.5017 37.0888 11.778 37.8207 10.799C38.0841 10.4472 38.336 10.0754 38.3204 9.59592C38.3015 9.03614 38.0421 8.75102 37.4765 8.6177C36.8887 8.47876 35.9082 9.00401 35.3665 9.15661C35.3369 9.16464 35.3097 9.18552 35.2801 9.18793C35.1492 9.20158 34.9533 9.26905 34.8701 9.10119C34.7894 8.93494 35.0109 8.8731 35.1393 8.79921C35.406 8.64662 36.1824 8.36311 36.496 8.32858L36.4977 8.32777Z" fill="#FF692E"/>
</svg>
