<svg width="67" height="50" viewBox="0 0 67 50" fill="none" xmlns="http://www.w3.org/2000/svg">
<path d="M52.304 17.5501C52.2176 17.5501 52.1312 17.5513 52.046 17.5537C50.9684 12.6601 46.6363 8.99988 41.4547 8.99988C35.9802 8.99988 31.4537 13.0857 30.7121 18.3953C26.8805 18.9237 23.9285 22.2345 23.9285 26.2405C23.9285 30.6141 27.4469 34.1595 31.7873 34.1595C33.219 34.1595 34.5618 33.7738 35.7174 33.099C37.3218 34.2937 39.3066 34.9999 41.4547 34.9999C43.6027 34.9999 45.5107 34.3203 47.0983 33.168C48.5455 34.2732 50.3491 34.9298 52.304 34.9298C57.0668 34.9298 60.9285 31.0386 60.9285 26.2393C60.9285 21.44 57.0668 17.5488 52.304 17.5488V17.5501Z" fill="#DEE2EB"/>
<path d="M39.6725 19.1945C39.5695 19.1945 39.4677 19.1969 39.3658 19.1992C38.0844 13.3636 32.9319 8.99988 26.7705 8.99988C20.2605 8.99988 14.8785 13.8708 13.9961 20.2018C9.43919 20.8319 5.92847 24.7795 5.92847 29.5558C5.92847 34.7708 10.1133 38.9973 15.274 38.9973C16.9768 38.9973 18.573 38.5374 19.948 37.7335C21.8567 39.1581 24.2159 39.9999 26.7705 39.9999C29.3252 39.9999 31.5931 39.19 33.4819 37.8151C35.2021 39.1333 37.3472 39.9159 39.6725 39.9159C45.3364 39.9159 49.9285 35.2768 49.9285 29.5546C49.9285 23.8325 45.3364 19.1933 39.6725 19.1933V19.1945Z" fill="#E8EBF1"/>
</svg>
