<svg width="67" height="50" viewBox="0 0 67 50" fill="none" xmlns="http://www.w3.org/2000/svg">
<path d="M21.0601 30.1916C25.7878 30.1916 29.6205 26.3592 29.6205 21.6318C29.6205 16.9044 25.7878 13.072 21.0601 13.072C16.3324 13.072 12.4998 16.9044 12.4998 21.6318C12.4998 26.3592 16.3324 30.1916 21.0601 30.1916Z" fill="#FDCC1D"/>
<path d="M19.2278 11.4462L21.06 5L22.8934 11.4462H19.2278Z" fill="#FDCC1D"/>
<path d="M12.5616 15.7254L9.30005 9.87122L15.1546 13.1338L12.5616 15.7254Z" fill="#FDCC1D"/>
<path d="M10.8749 23.4652L4.42822 21.6319L10.8749 19.7986V23.4652Z" fill="#FDCC1D"/>
<path d="M15.1546 30.1296L9.30005 33.3909L12.5616 27.5367L15.1546 30.1296Z" fill="#FDCC1D"/>
<path d="M22.8934 31.8164L21.06 38.2626L19.2278 31.8164H22.8934Z" fill="#FDCC1D"/>
<path d="M29.5588 27.5367L32.8216 33.3909L26.967 30.1296L29.5588 27.5367Z" fill="#FDCC1D"/>
<path d="M31.2461 19.7986L37.6927 21.6319L31.2461 23.4652V19.7986Z" fill="#FDCC1D"/>
<path d="M26.967 13.1338L32.8216 9.87122L29.5588 15.7254L26.967 13.1338Z" fill="#FDCC1D"/>
<path d="M51.1376 23.907C51.0329 23.907 50.9293 23.9094 50.8257 23.9118C49.5221 17.9955 44.2803 13.5714 38.0123 13.5714C31.3895 13.5714 25.9143 18.5097 25.0167 24.9282C20.3809 25.567 16.8093 29.5692 16.8093 34.4115C16.8093 39.6986 21.0666 43.9836 26.3167 43.9836C28.0489 43.9836 29.6728 43.5173 31.0716 42.7023C33.0133 44.1466 35.4134 45 38.0123 45C40.6111 45 42.9184 44.1789 44.8398 42.785C46.5899 44.1214 48.7721 44.9149 51.1376 44.9149C56.8997 44.9149 61.5712 40.2116 61.5712 34.4103C61.5712 28.6091 56.8997 23.9058 51.1376 23.9058V23.907Z" fill="#E8EBF1"/>
</svg>
