<svg width="40" height="40" viewBox="0 0 40 40" fill="none" xmlns="http://www.w3.org/2000/svg">
<path fill-rule="evenodd" clip-rule="evenodd" d="M6.5 6.25C5.44036 6.25 4.58333 7.10702 4.58333 8.16667V23.3333C4.58333 24.393 5.44036 25.25 6.5 25.25H18.3333C19.0237 25.25 19.5833 25.8096 19.5833 26.5C19.5833 27.1904 19.0237 27.75 18.3333 27.75H6.5C4.05964 27.75 2.08333 25.7737 2.08333 23.3333V8.16667C2.08333 5.72631 4.05964 3.75 6.5 3.75H31.8333C34.2737 3.75 36.25 5.72631 36.25 8.16667V16.6667C36.25 17.357 35.6904 17.9167 35 17.9167C34.3096 17.9167 33.75 17.357 33.75 16.6667V8.16667C33.75 7.10702 32.893 6.25 31.8333 6.25H6.5Z" fill="#FF692E"/>
<path fill-rule="evenodd" clip-rule="evenodd" d="M30 22.9167C27.0087 22.9167 24.5833 25.342 24.5833 28.3333C24.5833 31.3246 27.0087 33.75 30 33.75C32.9928 33.75 35.4167 31.3248 35.4167 28.3333C35.4167 25.3418 32.9928 22.9167 30 22.9167ZM30 36.25C34.3739 36.25 37.9167 32.7052 37.9167 28.3333C37.9167 23.9615 34.3739 20.4167 30 20.4167C25.628 20.4167 22.0833 23.9613 22.0833 28.3333C22.0833 32.7054 25.628 36.25 30 36.25Z" fill="#FF692E"/>
<path fill-rule="evenodd" clip-rule="evenodd" d="M19.5 18.6172C21.1569 18.6172 22.5 17.274 22.5 15.6172C22.5 13.9603 21.1569 12.6172 19.5 12.6172C17.8431 12.6172 16.5 13.9603 16.5 15.6172C16.5 17.274 17.8431 18.6172 19.5 18.6172ZM19.5 21.1172C22.5376 21.1172 25 18.6548 25 15.6172C25 12.5796 22.5376 10.1172 19.5 10.1172C16.4624 10.1172 14 12.5796 14 15.6172C14 18.6548 16.4624 21.1172 19.5 21.1172Z" fill="#FF692E"/>
<path fill-rule="evenodd" clip-rule="evenodd" d="M7.08333 21.6667C7.08333 20.9763 7.64298 20.4167 8.33333 20.4167H10C10.6904 20.4167 11.25 20.9763 11.25 21.6667C11.25 22.357 10.6904 22.9167 10 22.9167H8.33333C7.64298 22.9167 7.08333 22.357 7.08333 21.6667Z" fill="#FF692E"/>
<path fill-rule="evenodd" clip-rule="evenodd" d="M27.0833 10C27.0833 9.30964 27.643 8.75 28.3333 8.75H30C30.6904 8.75 31.25 9.30964 31.25 10C31.25 10.6904 30.6904 11.25 30 11.25H28.3333C27.643 11.25 27.0833 10.6904 27.0833 10Z" fill="#FF692E"/>
<path fill-rule="evenodd" clip-rule="evenodd" d="M33.8472 25.9678C34.3354 26.4559 34.3354 27.2474 33.8472 27.7355L30.1439 31.4389C29.6559 31.9269 28.8647 31.9271 28.3764 31.4392L26.1531 29.2175C25.6648 28.7296 25.6645 27.9381 26.1525 27.4498C26.6404 26.9614 27.4319 26.9611 27.9202 27.4491L29.2597 28.7876L32.0794 25.9678C32.5676 25.4796 33.3591 25.4796 33.8472 25.9678Z" fill="#FF692E"/>
</svg>
