<svg width="40" height="40" viewBox="0 0 40 40" fill="none" xmlns="http://www.w3.org/2000/svg">
<path fill-rule="evenodd" clip-rule="evenodd" d="M3.74219 9.16215C3.74219 6.63007 5.79484 4.57742 8.32691 4.57742H16.6637C19.1958 4.57742 21.2484 6.63007 21.2484 9.16215V17.499C21.2484 20.031 19.1958 22.0837 16.6637 22.0837H8.32691C5.79484 22.0837 3.74219 20.031 3.74219 17.499V9.16215ZM8.32691 7.07742C7.17555 7.07742 6.24219 8.01078 6.24219 9.16215V17.499C6.24219 18.6503 7.17555 19.5837 8.32691 19.5837H16.6637C17.8151 19.5837 18.7484 18.6503 18.7484 17.499V9.16215C18.7484 8.01078 17.8151 7.07742 16.6637 7.07742H8.32691Z" fill="#FF692E"/>
<path fill-rule="evenodd" clip-rule="evenodd" d="M8.74219 11.0379C8.74219 10.3476 9.30183 9.78793 9.99219 9.78793H14.9943C15.6846 9.78793 16.2443 10.3476 16.2443 11.0379C16.2443 11.7283 15.6846 12.2879 14.9943 12.2879H9.99219C9.30183 12.2879 8.74219 11.7283 8.74219 11.0379Z" fill="#FF692E"/>
<path fill-rule="evenodd" clip-rule="evenodd" d="M12.4922 9.78793C13.1825 9.78793 13.7422 10.3476 13.7422 11.0379V15.6232C13.7422 16.3135 13.1825 16.8732 12.4922 16.8732C11.8018 16.8732 11.2422 16.3135 11.2422 15.6232V11.0379C11.2422 10.3476 11.8018 9.78793 12.4922 9.78793Z" fill="#FF692E"/>
<path fill-rule="evenodd" clip-rule="evenodd" d="M23.75 20C23.75 19.3096 24.3096 18.75 25 18.75H35.0042C35.6945 18.75 36.2542 19.3096 36.2542 20C36.2542 20.6904 35.6945 21.25 35.0042 21.25H25C24.3096 21.25 23.75 20.6904 23.75 20Z" fill="#FF692E"/>
<path fill-rule="evenodd" clip-rule="evenodd" d="M23.75 13.3305C23.75 12.6402 24.3096 12.0805 25 12.0805H35.0042C35.6945 12.0805 36.2542 12.6402 36.2542 13.3305C36.2542 14.0209 35.6945 14.5805 35.0042 14.5805H25C24.3096 14.5805 23.75 14.0209 23.75 13.3305Z" fill="#FF692E"/>
<path fill-rule="evenodd" clip-rule="evenodd" d="M23.75 6.6611C23.75 5.97075 24.3096 5.4111 25 5.4111H35.0042C35.6945 5.4111 36.2542 5.97075 36.2542 6.6611C36.2542 7.35146 35.6945 7.9111 35.0042 7.9111H25C24.3096 7.9111 23.75 7.35146 23.75 6.6611Z" fill="#FF692E"/>
<path fill-rule="evenodd" clip-rule="evenodd" d="M3.74219 33.3389C3.74219 32.6485 4.30183 32.0889 4.99219 32.0889H35.0047C35.695 32.0889 36.2547 32.6485 36.2547 33.3389C36.2547 34.0292 35.695 34.5889 35.0047 34.5889H4.99219C4.30183 34.5889 3.74219 34.0292 3.74219 33.3389Z" fill="#FF692E"/>
<path fill-rule="evenodd" clip-rule="evenodd" d="M3.74219 26.6694C3.74219 25.9791 4.30183 25.4194 4.99219 25.4194H35.0047C35.695 25.4194 36.2547 25.9791 36.2547 26.6694C36.2547 27.3598 35.695 27.9194 35.0047 27.9194H4.99219C4.30183 27.9194 3.74219 27.3598 3.74219 26.6694Z" fill="#FF692E"/>
</svg>
