<svg width="67" height="50" viewBox="0 0 67 50" fill="none" xmlns="http://www.w3.org/2000/svg">
<path d="M33.7544 37.4926C40.7908 37.4926 46.4949 31.7889 46.4949 24.753C46.4949 17.7171 40.7908 12.0134 33.7544 12.0134C26.7181 12.0134 21.014 17.7171 21.014 24.753C21.014 31.7889 26.7181 37.4926 33.7544 37.4926Z" fill="#FDCC1D"/>
<path d="M31.0255 9.59418L33.7545 0L36.4822 9.59418H31.0255Z" fill="#FDCC1D"/>
<path d="M21.1057 15.9627L16.2504 7.25012L24.9635 12.1052L21.1057 15.9627Z" fill="#FDCC1D"/>
<path d="M18.5947 27.4806L8.99988 24.7531L18.5947 22.0255V27.4806Z" fill="#FDCC1D"/>
<path d="M24.9635 37.4009L16.2504 42.2559L21.1057 33.5433L24.9635 37.4009Z" fill="#FDCC1D"/>
<path d="M36.4822 39.9119L33.7545 49.506L31.0255 39.9119H36.4822Z" fill="#FDCC1D"/>
<path d="M46.4031 33.5433L51.2585 42.2559L42.5453 37.4009L46.4031 33.5433Z" fill="#FDCC1D"/>
<path d="M48.9144 22.0255L58.5092 24.7531L48.9144 27.4806V22.0255Z" fill="#FDCC1D"/>
<path d="M42.5453 12.1052L51.2585 7.25012L46.4031 15.9627L42.5453 12.1052Z" fill="#FDCC1D"/>
</svg>
