<svg width="67" height="50" viewBox="0 0 67 50" fill="none" xmlns="http://www.w3.org/2000/svg">
<path d="M45.5298 12.1946C45.4268 12.1946 45.325 12.197 45.2232 12.1993C43.9417 6.36371 38.7891 2 32.6278 2C26.1177 2 20.7358 6.8709 19.8534 13.2019C15.2965 13.832 11.7858 17.7796 11.7858 22.5559C11.7858 27.7709 15.9706 31.9974 21.1313 31.9974C22.834 31.9974 24.4303 31.5375 25.8053 30.7336C27.714 32.1582 30.0732 33 32.6278 33C35.1825 33 37.4504 32.1902 39.3392 30.8152C41.0594 32.1334 43.2045 32.9161 45.5298 32.9161C51.1937 32.9161 55.7858 28.2769 55.7858 22.5547C55.7858 16.8326 51.1937 12.1934 45.5298 12.1934V12.1946Z" fill="#E8EBF1"/>
<path d="M27.6539 38.4891C27.6539 36.9079 26.0737 33.5862 26.0737 33.5862C26.0737 33.5862 24.4935 36.9079 24.4935 38.4891C24.4935 40.0703 25.2006 41.3523 26.0737 41.3523C26.9468 41.3523 27.6539 40.0703 27.6539 38.4891Z" fill="#5DBDF1"/>
<path d="M40.37 37.7966C40.37 36.6212 39.1956 34.1538 39.1956 34.1538C39.1956 34.1538 38.0212 36.6212 38.0212 37.7966C38.0212 38.9721 38.5469 39.9243 39.1956 39.9243C39.8444 39.9243 40.37 38.9721 40.37 37.7966Z" fill="#5DBDF1"/>
<path d="M33.3753 46.153C33.3753 45.1975 32.4197 43.1886 32.4197 43.1886C32.4197 43.1886 31.4641 45.1964 31.4641 46.153C31.4641 47.1096 31.8919 47.8837 32.4197 47.8837C32.9475 47.8837 33.3753 47.1085 33.3753 46.153Z" fill="#5DBDF1"/>
</svg>
