<svg width="67" height="50" viewBox="0 0 67 50" fill="none" xmlns="http://www.w3.org/2000/svg">
<path d="M45.1019 12.1943C44.999 12.1943 44.8971 12.1966 44.7942 12.1999C43.5123 6.36442 38.3606 2 32.1995 2C25.6903 2 20.3076 6.87099 19.4252 13.2019C14.869 13.8313 11.3572 17.7798 11.3572 22.5557C11.3572 27.7707 15.5412 31.9979 20.7028 31.9979C22.4051 31.9979 24.0012 31.5378 25.3761 30.7337C27.2842 32.1583 29.6444 33 32.1995 33C34.7546 33 37.0228 32.1904 38.9112 30.8156C40.6321 32.134 42.7767 32.917 45.1019 32.917C50.7659 32.917 55.3572 28.2783 55.3572 22.5557C55.3572 16.8331 50.7659 12.1943 45.1019 12.1943Z" fill="#E8EBF1"/>
<path d="M20.6222 37.9178C20.842 37.7176 21.0617 37.5181 21.2815 37.3179C21.3124 37.2901 21.3426 37.2622 21.3736 37.2343C21.4904 37.128 21.4834 36.9454 21.3736 36.8375C21.1623 36.6293 20.9519 36.421 20.7406 36.2127C20.7422 36.1291 20.743 36.0462 20.7445 35.9626L20.7515 35.5277C20.9851 35.7088 21.2196 35.89 21.4533 36.0711L21.6126 36.1943C21.6745 36.242 21.7357 36.2758 21.8177 36.2765C21.8912 36.2772 21.9802 36.2471 22.0305 36.1943C22.0815 36.1415 22.1194 36.0733 22.1171 36C22.1148 35.9289 22.0916 35.8452 22.0305 35.7983C21.8835 35.6846 21.7364 35.571 21.5894 35.4573C21.3558 35.2761 21.1213 35.095 20.8876 34.9146C20.8459 34.8823 20.8033 34.8493 20.7615 34.817C20.7638 34.6806 20.7662 34.5442 20.7685 34.4078C20.8884 34.5002 21.0083 34.5933 21.1283 34.6857C21.167 34.7158 21.2057 34.7459 21.2443 34.7752C21.3062 34.8229 21.3674 34.8566 21.4494 34.8573C21.5229 34.8581 21.6119 34.828 21.6622 34.7752C21.7132 34.7224 21.7511 34.6542 21.7488 34.5809C21.7465 34.5097 21.7233 34.4261 21.6622 34.3792C21.5569 34.2978 21.4525 34.2171 21.3472 34.1357C21.1809 34.0066 21.0145 33.8782 20.8482 33.7492C20.825 33.7316 20.8025 33.7132 20.7793 33.6956L20.7809 33.6186C20.7832 33.4903 20.7847 33.3627 20.7871 33.2343C21.0401 33.4125 21.2931 33.5915 21.5453 33.7697C21.6057 33.8122 21.6668 33.8555 21.7272 33.8981C21.8053 33.9406 21.8896 33.9626 21.9794 33.9641C22.0722 33.9648 22.1597 33.9435 22.2409 33.9003C22.3222 33.8562 22.3856 33.7968 22.4328 33.7206C22.4777 33.6465 22.5009 33.5666 22.5025 33.4815C22.4816 33.2871 22.4614 33.0928 22.4406 32.8992C22.4212 32.7158 22.4019 32.5317 22.3825 32.3484C22.4576 32.388 22.5334 32.4276 22.6085 32.4672C22.6897 32.5097 22.7709 32.553 22.8522 32.5955C22.8684 32.6894 22.8847 32.7833 22.9017 32.8772C22.9365 33.0781 22.9721 33.2791 23.0069 33.48C23.0154 33.5269 23.0232 33.5732 23.0317 33.6201C23.0433 33.6883 23.1091 33.7602 23.1702 33.7939C23.2313 33.8276 23.3219 33.843 23.3907 33.8232C23.465 33.802 23.537 33.7594 23.5741 33.692C23.6112 33.6245 23.6182 33.5585 23.605 33.4829C23.5826 33.3561 23.5609 33.2299 23.5385 33.103C23.5292 33.0495 23.5199 32.996 23.5106 32.9424C23.6058 32.9923 23.701 33.0429 23.7954 33.0928C23.8256 33.1089 23.855 33.1243 23.8851 33.1404C23.9114 33.2901 23.9378 33.4397 23.9633 33.5893L24.1111 34.4364L24.1451 34.6293C24.1567 34.6975 24.2225 34.7693 24.2836 34.8031C24.3447 34.8368 24.4353 34.8522 24.5041 34.8324C24.5784 34.8111 24.6504 34.7686 24.6875 34.7011C24.7247 34.6337 24.7316 34.5676 24.7185 34.4921C24.6875 34.3146 24.6566 34.1371 24.6256 33.9597L24.5428 33.4866C24.6349 33.535 24.7262 33.5834 24.8183 33.6318C24.9312 33.6912 25.0442 33.7506 25.1572 33.81C25.1618 33.8122 25.1665 33.8152 25.1711 33.8174C25.2407 34.0557 25.3112 34.2948 25.3808 34.5332C25.3924 34.5721 25.4032 34.6109 25.4148 34.6498C25.4566 34.7928 25.6168 34.8947 25.7739 34.8537C26.0671 34.7767 26.3611 34.6989 26.6544 34.6219C26.6954 34.6109 26.7364 34.6007 26.7774 34.5897C26.8006 34.5838 26.8231 34.575 26.8439 34.564C26.8927 34.5398 26.9352 34.5053 26.9608 34.4584C26.9824 34.4239 26.9964 34.3792 27.0002 34.3352C27.0002 34.333 27.0002 34.3315 27.0002 34.3293C27.0002 34.3264 27.0002 34.3242 27.0002 34.3212C27.0002 34.3198 27.0002 34.3176 27.0002 34.3161C27.0002 34.2926 26.9979 34.2699 26.991 34.2494C26.9097 33.9714 26.8277 33.6927 26.7465 33.4147L26.7124 33.2981C26.6706 33.1551 26.5105 33.0532 26.3534 33.0942C26.0601 33.1712 25.7661 33.249 25.4729 33.326L25.4613 33.3289C25.3777 33.2849 25.2941 33.2409 25.2106 33.1969C25.079 33.1272 24.9467 33.0583 24.8152 32.9886L24.8353 32.9798C25.11 32.861 25.3847 32.7415 25.6593 32.6227C25.722 32.5955 25.7847 32.5684 25.8466 32.5413C25.9124 32.5126 25.9673 32.4356 25.9859 32.3718C26.0052 32.3058 25.9975 32.2178 25.958 32.1591C25.917 32.0975 25.8566 32.044 25.7793 32.0271C25.6988 32.0095 25.6292 32.0205 25.5549 32.0535C25.3823 32.1283 25.2098 32.2032 25.0372 32.278C24.7626 32.3968 24.4879 32.5163 24.2132 32.6351C24.2008 32.6403 24.1877 32.6461 24.1753 32.6513C24.0407 32.5801 23.9053 32.509 23.7706 32.4378L24.2326 32.2376C24.2782 32.2178 24.3231 32.198 24.3687 32.179C24.4345 32.1503 24.4894 32.0733 24.508 32.0095C24.5273 31.9435 24.5196 31.8555 24.4802 31.7968C24.4391 31.7352 24.3788 31.6817 24.3014 31.6648C24.2209 31.6472 24.1513 31.6582 24.077 31.6912C23.954 31.7448 23.831 31.7983 23.7072 31.8511C23.5153 31.9347 23.3226 32.0176 23.1307 32.1012C23.1021 32.0858 23.0727 32.0711 23.0441 32.0557L22.7384 31.8944C23.0015 31.7873 23.2646 31.6795 23.5277 31.5724C23.5973 31.5438 23.6669 31.516 23.7358 31.4873C23.817 31.4433 23.8805 31.3839 23.9277 31.3077C23.9726 31.2336 23.9958 31.1536 23.9973 31.0686C23.9981 30.9806 23.9757 30.8977 23.93 30.8207C23.8836 30.7437 23.8209 30.6835 23.7404 30.6388C23.5524 30.5589 23.3652 30.4782 23.1772 30.3982C23.0224 30.3322 22.8677 30.2662 22.7129 30.1995C22.774 30.1665 22.8352 30.1342 22.8963 30.1012C22.9822 30.055 23.0681 30.0095 23.1532 29.9633C23.2166 29.9905 23.2793 30.0169 23.3427 30.044C23.5385 30.1276 23.735 30.2112 23.9308 30.2948C23.9764 30.3139 24.0221 30.3337 24.0677 30.3528C24.1405 30.3836 24.2086 30.4012 24.2883 30.3821C24.3594 30.3652 24.4368 30.3139 24.4716 30.2508C24.5065 30.1878 24.525 30.1115 24.5026 30.0418C24.4809 29.9736 24.4353 29.8981 24.3641 29.868C24.2403 29.8152 24.1173 29.7624 23.9935 29.7103C23.9246 29.681 23.8565 29.6516 23.7876 29.623C23.8844 29.5717 23.9803 29.5196 24.077 29.4683C24.1142 29.4485 24.1505 29.4287 24.1877 29.4089C24.3006 29.4573 24.4144 29.5057 24.5273 29.5534C24.8028 29.6707 25.0783 29.788 25.3537 29.9054C25.4164 29.9318 25.4791 29.9589 25.5417 29.9853C25.6145 30.0161 25.6826 30.0337 25.7622 30.0147C25.8334 29.9978 25.9108 29.9465 25.9456 29.8834C25.9804 29.8203 25.999 29.744 25.9766 29.6744C25.9549 29.6062 25.9093 29.5306 25.8381 29.5006C25.6648 29.4265 25.4922 29.3531 25.3189 29.2791C25.1533 29.2087 24.9877 29.1375 24.8221 29.0671C24.9127 29.018 25.004 28.9696 25.0945 28.9204C25.2067 28.8603 25.3189 28.8001 25.4319 28.7393C25.445 28.7319 25.4582 28.7253 25.4713 28.718C25.7205 28.7833 25.9704 28.8493 26.2195 28.9146L26.3426 28.9468C26.4965 28.9872 26.6637 28.8977 26.7062 28.7517C26.7875 28.4738 26.8687 28.1951 26.95 27.9171C26.96 27.8834 26.9701 27.8489 26.9794 27.8152C26.9809 27.8101 26.9824 27.8057 26.9832 27.8005C26.991 27.7734 26.9941 27.744 26.9933 27.7147C26.9925 27.67 26.9809 27.626 26.9561 27.5878C26.9205 27.5277 26.8494 27.4712 26.7774 27.4558C26.4842 27.3788 26.1901 27.3018 25.8969 27.2248C25.8559 27.2138 25.8149 27.2035 25.7739 27.1925C25.6199 27.1522 25.4528 27.2417 25.4102 27.3876C25.329 27.6656 25.2477 27.9443 25.1665 28.2222L25.161 28.2398C25.0736 28.2868 24.9862 28.3337 24.8987 28.3806C24.7719 28.4489 24.6442 28.5171 24.5173 28.5853C24.5637 28.3088 24.6101 28.0323 24.6566 27.755C24.6674 27.6905 24.6782 27.6267 24.6891 27.5622C24.7022 27.4859 24.703 27.4192 24.6612 27.3495C24.6256 27.2893 24.5544 27.2329 24.4825 27.2175C24.4082 27.2013 24.3246 27.2043 24.2581 27.2439C24.1962 27.2805 24.1312 27.3414 24.1188 27.4133C24.0886 27.5908 24.0592 27.7682 24.0291 27.9457C23.9819 28.2281 23.9339 28.5112 23.8867 28.7936C23.8789 28.8412 23.8704 28.8889 23.8627 28.9366C23.7374 29.004 23.612 29.0715 23.4859 29.139C23.5099 28.9974 23.5331 28.8566 23.5571 28.7151L23.5803 28.575C23.5934 28.4987 23.5942 28.432 23.5524 28.3623C23.5168 28.3022 23.4457 28.2457 23.3737 28.2303C23.2994 28.2142 23.2158 28.2171 23.1493 28.2567C23.0874 28.2934 23.0224 28.3542 23.01 28.4261C22.9891 28.553 22.9675 28.6799 22.9466 28.8068C22.9125 29.0077 22.8793 29.2087 22.8452 29.4103C22.8406 29.4375 22.8359 29.4639 22.8313 29.491L22.7423 29.5387L22.405 29.7198C22.4413 29.4287 22.4769 29.1383 22.5133 28.8471C22.5218 28.7759 22.5311 28.7048 22.5396 28.6337C22.5404 28.5457 22.5179 28.4628 22.4723 28.3858C22.4259 28.3088 22.3632 28.2486 22.2827 28.2039C22.2046 28.1614 22.1202 28.1394 22.0305 28.1379C21.9376 28.1372 21.8502 28.1584 21.7689 28.2017C21.6018 28.3154 21.4347 28.4298 21.2676 28.5435C21.1291 28.6381 20.9906 28.7327 20.8521 28.8266C20.8528 28.7613 20.8544 28.696 20.8551 28.6315C20.8567 28.5215 20.859 28.4114 20.8606 28.3014L21.1198 28.0961C21.2846 27.9655 21.4494 27.835 21.6142 27.7037C21.6521 27.6736 21.6908 27.6428 21.7287 27.6128C21.7829 27.5702 21.8146 27.483 21.8154 27.4184C21.8161 27.3487 21.7844 27.2644 21.7287 27.2167C21.673 27.1683 21.601 27.1324 21.5237 27.1346C21.4401 27.1368 21.3743 27.1654 21.3109 27.2167C21.2072 27.2989 21.1035 27.3817 20.9991 27.4639C20.9565 27.4976 20.9147 27.5306 20.8722 27.5644C20.8737 27.4925 20.8745 27.4199 20.876 27.348C20.8768 27.2835 20.8784 27.2197 20.8791 27.1551C21.0107 27.051 21.1422 26.9468 21.273 26.8427C21.5043 26.6593 21.7357 26.4753 21.9678 26.2919C22.0204 26.2501 22.073 26.2083 22.1256 26.1665C22.1798 26.124 22.2115 26.0367 22.2123 25.9721C22.2131 25.9025 22.1813 25.8181 22.1256 25.7705C22.0699 25.722 21.998 25.6861 21.9206 25.6883C21.837 25.6905 21.7713 25.7191 21.7078 25.7705C21.5623 25.8856 21.4169 26.0015 21.2714 26.1166C21.1445 26.2171 21.0176 26.3176 20.8907 26.4188C20.8915 26.3579 20.8931 26.297 20.8938 26.2369C20.8962 26.1152 20.8977 25.9934 20.9 25.8717C20.9 25.8563 20.9 25.8416 20.9008 25.8262C21.1004 25.6399 21.2993 25.4536 21.4989 25.2666C21.5291 25.238 21.5593 25.2101 21.5894 25.1815C21.7039 25.0745 21.7016 24.8926 21.5894 24.7848C21.3759 24.5794 21.1615 24.3741 20.948 24.168C20.9225 24.143 20.8969 24.1188 20.8706 24.0939C20.8668 24.0895 20.8621 24.0858 20.8582 24.0822C20.8064 24.0323 20.7267 24.0007 20.6532 24C20.5797 23.9993 20.4907 24.0293 20.4404 24.0822C20.2238 24.2846 20.0071 24.4877 19.7897 24.6901C19.7595 24.7188 19.7293 24.7466 19.6992 24.7752C19.5847 24.8823 19.587 25.0642 19.6992 25.172C19.9027 25.3678 20.1069 25.5636 20.3104 25.7595V25.802L20.3042 26.1254C20.3027 26.2362 20.3004 26.3462 20.2988 26.4569L20.2772 26.4423C20.0296 26.2787 19.782 26.1144 19.5344 25.9509C19.4779 25.9135 19.4214 25.8761 19.3649 25.8394C19.3069 25.8013 19.2102 25.7939 19.1444 25.8101C19.0732 25.8269 18.9958 25.8783 18.961 25.9413C18.9262 26.0044 18.9076 26.0807 18.9301 26.1504C18.954 26.2259 18.9997 26.2794 19.0686 26.3242C19.2241 26.4269 19.3796 26.5303 19.5351 26.6329C19.7827 26.7965 20.0303 26.9608 20.2779 27.1243L20.2888 27.1309V27.1867L20.281 27.612C20.1417 27.5204 20.0025 27.4279 19.864 27.3363C19.823 27.3091 19.782 27.282 19.7409 27.2549C19.6829 27.2167 19.5862 27.2094 19.5204 27.2255C19.4492 27.2424 19.3719 27.2937 19.3371 27.3568C19.3022 27.4199 19.2837 27.4962 19.3061 27.5658C19.3301 27.6414 19.3757 27.6949 19.4446 27.7396C19.556 27.813 19.6667 27.8863 19.7781 27.9597C19.9429 28.0682 20.1069 28.1775 20.2717 28.286C20.271 28.3476 20.2694 28.4092 20.2686 28.4709C20.2663 28.5941 20.2648 28.7173 20.2625 28.8405C20.0133 28.6645 19.7642 28.4885 19.5142 28.3124L19.3324 28.1841C19.2543 28.1416 19.1699 28.1196 19.0802 28.1181C18.9873 28.1174 18.8999 28.1386 18.8186 28.1819C18.7374 28.2259 18.674 28.2853 18.6268 28.3616C18.5819 28.4357 18.5587 28.5156 18.5571 28.6007C18.578 28.795 18.5981 28.9894 18.619 29.183C18.6391 29.3759 18.66 29.5688 18.6801 29.7616C18.6012 29.7206 18.5231 29.6788 18.4449 29.6377L18.1904 29.5035C18.178 29.414 18.1648 29.3238 18.1524 29.2343C18.1238 29.0326 18.096 28.8302 18.0673 28.6285C18.0604 28.5816 18.0542 28.5347 18.0472 28.4877C18.0379 28.4202 17.9683 28.3462 17.9087 28.3139C17.8476 28.2802 17.7571 28.2648 17.6882 28.2846C17.6139 28.3058 17.542 28.3484 17.5048 28.4158C17.4948 28.4378 17.4855 28.4599 17.4754 28.4819C17.4615 28.5295 17.4607 28.5772 17.4739 28.6249C17.4917 28.7517 17.5095 28.8794 17.5273 29.0062C17.535 29.0598 17.542 29.1126 17.5497 29.1661C17.4545 29.1155 17.3586 29.0656 17.2634 29.015C17.2232 28.9938 17.1837 28.9725 17.1435 28.952C17.1241 28.8148 17.1048 28.6777 17.0854 28.5405C17.046 28.2567 17.0058 27.9729 16.9655 27.689C16.9562 27.6245 16.9477 27.56 16.9384 27.4954C16.9292 27.428 16.8595 27.3539 16.7999 27.3216C16.7388 27.2879 16.6483 27.2725 16.5794 27.2923C16.5051 27.3135 16.4332 27.3561 16.396 27.4235C16.386 27.4456 16.3767 27.4676 16.3666 27.4896C16.3527 27.5372 16.3519 27.5849 16.3651 27.6326C16.3899 27.8108 16.4154 27.989 16.4401 28.1672C16.461 28.3161 16.4819 28.465 16.5028 28.6146C16.4154 28.5684 16.3272 28.5222 16.2397 28.476C16.1276 28.4166 16.0146 28.3572 15.9024 28.2985C15.8761 28.2846 15.8498 28.2706 15.8227 28.2567C15.7546 28.0337 15.6865 27.8101 15.6184 27.5871L15.5828 27.4712C15.5395 27.3297 15.3817 27.2241 15.2238 27.2673C14.9313 27.3473 14.6389 27.428 14.3464 27.5079C14.3054 27.5189 14.2651 27.5306 14.2241 27.5416C14.2087 27.546 14.1924 27.5512 14.1777 27.5578C14.1212 27.582 14.0702 27.6194 14.0408 27.6722C14.0237 27.7 14.0114 27.733 14.0052 27.7682C13.9997 27.7969 13.9982 27.8262 14.0036 27.8555C14.0052 27.8643 14.0075 27.8731 14.0098 27.8812C14.0941 28.1584 14.1793 28.4356 14.2636 28.7129L14.2992 28.8288C14.3425 28.9703 14.5004 29.0759 14.6582 29.0326C14.9507 28.9527 15.2432 28.872 15.5356 28.7921C15.555 28.787 15.5743 28.7818 15.5929 28.7767C15.6772 28.8214 15.7616 28.8654 15.8459 28.9102C15.9759 28.9791 16.1067 29.0473 16.2366 29.1162C16.2204 29.1228 16.2034 29.1295 16.1871 29.1361C15.9086 29.2468 15.63 29.3575 15.3515 29.4683C15.288 29.4932 15.2246 29.5189 15.1611 29.5438C15.0961 29.5695 15.0397 29.6516 15.0219 29.7132C15.0025 29.7792 15.0103 29.8673 15.0497 29.9259C15.0907 29.9875 15.1511 30.0411 15.2285 30.0579C15.2532 30.0616 15.2787 30.0645 15.3035 30.0682C15.3569 30.0682 15.4064 30.0565 15.4536 30.0315C15.6285 29.9619 15.8033 29.8922 15.9782 29.8225C16.2568 29.7118 16.5353 29.601 16.8139 29.4903C16.8394 29.48 16.8649 29.4697 16.8905 29.4595C17.015 29.5255 17.1404 29.5908 17.265 29.6568C17.1079 29.7191 16.9508 29.7814 16.793 29.8445C16.7473 29.8629 16.7009 29.8812 16.6552 29.8995C16.5903 29.9252 16.5338 30.0073 16.516 30.0689C16.4966 30.1349 16.5044 30.223 16.5438 30.2816C16.5848 30.3432 16.6452 30.3968 16.7226 30.4136C16.7473 30.4173 16.7729 30.4202 16.7976 30.4239C16.851 30.4239 16.9005 30.4122 16.9477 30.3872L17.3222 30.2384C17.5203 30.1599 17.7184 30.0807 17.9165 30.0022H17.9188L18.007 30.0477C18.1014 30.0975 18.1966 30.1474 18.2909 30.1973C18.0372 30.3007 17.7834 30.4041 17.5304 30.5083C17.4607 30.5369 17.3911 30.5647 17.3222 30.5933C17.241 30.6373 17.1775 30.6967 17.1303 30.773C17.0854 30.8471 17.0622 30.927 17.0607 31.0121C17.0599 31.1001 17.0824 31.183 17.128 31.26C17.1744 31.337 17.2371 31.3971 17.3176 31.4419C17.5056 31.5218 17.6928 31.6025 17.8809 31.6824C18.0441 31.7521 18.2066 31.8218 18.3699 31.8915C18.3026 31.9274 18.2352 31.9633 18.1679 31.9993C18.0983 32.0367 18.0294 32.0733 17.9598 32.1107C17.8484 32.0675 17.7369 32.0249 17.6255 31.9817C17.4267 31.9047 17.2278 31.8276 17.029 31.7506L16.8905 31.6971C16.8255 31.6722 16.7241 31.692 16.6661 31.7235C16.6026 31.7572 16.5431 31.8247 16.5268 31.8929C16.5098 31.9633 16.5129 32.0425 16.5547 32.1056L16.6026 32.1657C16.6398 32.2002 16.6831 32.2244 16.7334 32.2376C16.8587 32.286 16.9841 32.3344 17.1094 32.3828C17.176 32.4085 17.2425 32.4342 17.3091 32.4598L16.9918 32.63C16.9717 32.641 16.9516 32.6513 16.9322 32.6623C16.7651 32.5977 16.5988 32.5332 16.4316 32.4686C16.1523 32.3608 15.8722 32.2523 15.5929 32.1445C15.5294 32.1195 15.466 32.0953 15.4018 32.0704C15.3368 32.0455 15.2354 32.0653 15.1774 32.0968C15.1139 32.1305 15.0544 32.198 15.0381 32.2662C15.0211 32.3366 15.0242 32.4158 15.066 32.4789L15.1139 32.5391C15.1511 32.5735 15.1944 32.5977 15.2447 32.6109C15.4203 32.6791 15.596 32.7466 15.7716 32.8148C15.9411 32.8808 16.1113 32.9461 16.2808 33.0121C16.1778 33.0671 16.0749 33.1221 15.972 33.1778C15.8598 33.238 15.7484 33.2981 15.6362 33.3583C15.6115 33.3715 15.5867 33.3847 15.5612 33.3979C15.3352 33.3443 15.1093 33.2908 14.8834 33.238C14.8424 33.2285 14.8013 33.2182 14.7596 33.2086C14.6079 33.1727 14.4354 33.2534 14.3959 33.4037C14.3224 33.6839 14.2489 33.9641 14.1746 34.2442C14.1646 34.2831 14.1537 34.3227 14.1437 34.3616C14.1382 34.3814 14.1352 34.4019 14.1344 34.4232C14.1313 34.476 14.1413 34.5295 14.1715 34.575C14.1916 34.6087 14.2226 34.641 14.259 34.6659L14.262 34.6681C14.269 34.6733 14.2767 34.6777 14.2837 34.6813H14.2853C14.2853 34.6813 14.2922 34.6857 14.2953 34.6872C14.3131 34.696 14.3309 34.7026 14.3495 34.7063C14.6451 34.7759 14.9406 34.8456 15.2362 34.916C15.2772 34.9256 15.3182 34.9358 15.36 34.9454C15.5116 34.9813 15.6842 34.9006 15.7237 34.7503C15.7972 34.4701 15.8707 34.1899 15.9449 33.9098L15.9674 33.8247C16.0339 33.7888 16.1005 33.7528 16.167 33.7176C16.2869 33.6531 16.4069 33.5893 16.5268 33.5247C16.4912 33.8012 16.4548 34.0777 16.4193 34.355C16.4107 34.4195 16.4022 34.484 16.3937 34.5486C16.3852 34.6161 16.4316 34.7048 16.4804 34.7503C16.5307 34.7979 16.6135 34.8346 16.6854 34.8324C16.7628 34.8302 16.844 34.8067 16.8982 34.7503C16.9137 34.7312 16.9292 34.7121 16.9446 34.6923C16.9702 34.6498 16.9841 34.6043 16.9849 34.5552C17.0081 34.377 17.0313 34.198 17.0545 34.0198C17.0909 33.7404 17.1272 33.4609 17.1636 33.1815C17.2982 33.1096 17.4321 33.037 17.5667 32.9652C17.5482 33.1104 17.5288 33.2556 17.5102 33.4008C17.504 33.4477 17.4979 33.4947 17.4917 33.5416C17.4832 33.6091 17.5296 33.6978 17.5783 33.7433C17.6286 33.791 17.7114 33.8276 17.7834 33.8254C17.8607 33.8232 17.942 33.7998 17.9961 33.7433C18.0116 33.7242 18.0271 33.7052 18.0426 33.6854C18.0681 33.6428 18.082 33.5974 18.0828 33.5482C18.0991 33.4206 18.1161 33.2937 18.1323 33.1661C18.1555 32.985 18.1795 32.8038 18.2027 32.6227C18.2414 32.6021 18.2793 32.5816 18.318 32.5611C18.4271 32.5024 18.537 32.4437 18.6461 32.385C18.6113 32.6674 18.5765 32.9498 18.5409 33.2321C18.5324 33.3033 18.5231 33.3744 18.5146 33.4455C18.5138 33.5336 18.5362 33.6164 18.5819 33.6934C18.6283 33.7704 18.691 33.8306 18.7714 33.8753C18.8496 33.9179 18.9339 33.9399 19.0237 33.9413C19.1165 33.9421 19.204 33.9208 19.2852 33.8775C19.4523 33.7638 19.6195 33.6494 19.7866 33.5358C19.9212 33.4441 20.0566 33.3517 20.1913 33.26C20.1905 33.326 20.1889 33.392 20.1882 33.458C20.1866 33.5475 20.1851 33.637 20.1835 33.7264C20.1286 33.7638 20.0744 33.8005 20.0195 33.8379C19.8446 33.9567 19.6698 34.0748 19.4957 34.1936C19.4554 34.2215 19.4144 34.2486 19.3742 34.2765C19.3084 34.3212 19.2574 34.3689 19.2349 34.4459C19.2156 34.5119 19.2233 34.5999 19.2628 34.6586C19.3038 34.7202 19.3641 34.7737 19.4415 34.7906C19.5135 34.806 19.604 34.8067 19.6659 34.7642C19.7758 34.6894 19.8864 34.6146 19.9963 34.5398C20.0551 34.5002 20.1139 34.4598 20.1727 34.4202C20.1712 34.5266 20.1696 34.6337 20.1673 34.74C20.1673 34.7803 20.1657 34.8207 20.165 34.861C20.0675 34.927 19.9708 34.993 19.8733 35.059C19.628 35.2255 19.3819 35.392 19.1367 35.5592C19.0809 35.5974 19.0252 35.6348 18.9687 35.6729C18.903 35.7176 18.8519 35.7653 18.8295 35.8423C18.8101 35.9083 18.8179 35.9963 18.8573 36.055C18.8983 36.1166 18.9587 36.1701 19.0361 36.187C19.108 36.2024 19.1986 36.2031 19.2605 36.1606L19.7232 35.8467C19.8663 35.7492 20.0102 35.6524 20.1534 35.5548L20.1487 35.8511C20.1472 35.9685 20.1448 36.0858 20.1433 36.2031C19.9522 36.377 19.7611 36.5508 19.5692 36.7253C19.5382 36.7532 19.5081 36.7811 19.4771 36.8089C19.3603 36.9153 19.3672 37.0979 19.4771 37.2057C19.6883 37.414 19.8988 37.6223 20.11 37.8306C20.134 37.854 20.158 37.8775 20.182 37.9017C20.1874 37.9076 20.1928 37.9127 20.1982 37.9178C20.2493 37.9685 20.3305 37.9993 20.4033 38C20.4768 38.0007 20.5658 37.9707 20.6161 37.9178H20.6222ZM20.0783 31.5629C20.0837 31.5218 20.0884 31.4807 20.0938 31.4397C20.1046 31.3502 20.0334 31.2307 19.9468 31.1933C19.8214 31.1397 19.6961 31.0862 19.5707 31.0326C19.6574 30.9974 19.744 30.9622 19.8307 30.9263C19.8709 30.9102 19.9112 30.8933 19.9506 30.8772C20.0357 30.8427 20.11 30.7246 20.1007 30.6373C20.0868 30.5068 20.0729 30.3762 20.059 30.245C20.1348 30.2985 20.2114 30.3528 20.2872 30.4063C20.322 30.4312 20.3569 30.4554 20.3924 30.4804C20.4667 30.5332 20.6122 30.5332 20.6872 30.4818C20.7994 30.4056 20.9109 30.3293 21.023 30.253C21.0122 30.341 21.0014 30.4298 20.9906 30.5178C20.9875 30.542 20.9844 30.5662 20.9813 30.5904C20.9766 30.6102 20.9743 30.6307 20.9743 30.6505C20.972 30.6923 20.989 30.74 21.013 30.7811C21.0377 30.8258 21.0741 30.8669 21.1221 30.8874L21.1283 30.8904C21.143 30.8984 21.1592 30.905 21.1755 30.9102C21.283 30.9564 21.3906 31.0018 21.4981 31.048C21.4115 31.0832 21.3248 31.1184 21.2382 31.1544L21.1701 31.1823C21.1492 31.1881 21.1291 31.1969 21.1105 31.2072C21.0416 31.2395 20.9813 31.3253 20.9689 31.403V31.4067C20.9689 31.4067 20.9681 31.4118 20.9673 31.414C20.9673 31.4155 20.9673 31.4169 20.9673 31.4184C20.9673 31.4221 20.9673 31.425 20.9673 31.4287V31.4323C20.9673 31.436 20.9673 31.4397 20.9673 31.4441L21.0091 31.8365C20.9333 31.7829 20.8567 31.7286 20.7809 31.6751C20.746 31.6502 20.7112 31.626 20.6756 31.601C20.6014 31.5482 20.4559 31.5482 20.3808 31.5996L20.3754 31.6032C20.3599 31.612 20.3445 31.6223 20.3313 31.6333C20.2361 31.6986 20.141 31.7631 20.0458 31.8284C20.0566 31.7404 20.0675 31.6516 20.0783 31.5636V31.5629Z" fill="#5DBDF1"/>
<path d="M28.8002 49.4388C28.9264 49.3178 29.0526 49.1968 29.1789 49.0748L29.2321 49.0237C29.2988 48.959 29.2947 48.8484 29.2321 48.7827C29.1111 48.6565 28.99 48.5303 28.868 48.404C28.868 48.3529 28.869 48.3029 28.8701 48.2528C28.8711 48.1652 28.8732 48.0775 28.8743 47.9889C29.0088 48.0984 29.1434 48.2079 29.278 48.3185L29.3698 48.3936C29.4052 48.4228 29.4407 48.4426 29.4876 48.4437C29.5294 48.4437 29.5815 48.4259 29.6097 48.3936C29.6389 48.3613 29.6608 48.3196 29.6598 48.2757C29.6587 48.233 29.6452 48.1819 29.6097 48.1537C29.5252 48.0849 29.4407 48.016 29.3562 47.9472C29.2216 47.8376 29.0871 47.7281 28.9525 47.6175C28.9285 47.5977 28.9045 47.5779 28.8795 47.5581L28.8836 47.3098C28.9525 47.3661 29.0213 47.4225 29.0902 47.4788L29.157 47.533C29.1924 47.5622 29.2279 47.5821 29.2748 47.5831C29.3166 47.5831 29.3687 47.5654 29.3969 47.533C29.4261 47.5007 29.448 47.459 29.447 47.4152C29.4459 47.3724 29.4324 47.3213 29.3969 47.2931C29.3364 47.2441 29.2759 47.1951 29.2164 47.145C29.1204 47.0668 29.0255 46.9885 28.9295 46.9103L28.8899 46.878V46.831C28.892 46.7538 28.893 46.6756 28.8941 46.5984C29.0391 46.7069 29.1851 46.8154 29.3301 46.9228C29.3646 46.9489 29.4 46.975 29.4344 47.0011C29.4793 47.0271 29.5273 47.0407 29.5794 47.0417C29.6326 47.0417 29.6827 47.0292 29.7297 47.0031C29.7766 46.9771 29.8131 46.9406 29.8402 46.8947C29.8663 46.8498 29.8799 46.8018 29.8809 46.7497C29.8695 46.6318 29.8569 46.5139 29.8455 46.396C29.834 46.2844 29.8236 46.1739 29.8121 46.0622C29.8559 46.0862 29.8987 46.1102 29.9425 46.1342C29.9894 46.1603 30.0353 46.1864 30.0823 46.2125C30.0916 46.2698 30.101 46.3262 30.1104 46.3835C30.1302 46.5056 30.1511 46.6276 30.1709 46.7486C30.1751 46.7768 30.1803 46.8049 30.1845 46.8331C30.1918 46.8748 30.2283 46.9186 30.2638 46.9385C30.2992 46.9593 30.3504 46.9687 30.391 46.9562C30.4338 46.9437 30.4755 46.9176 30.4964 46.8769C30.5183 46.8362 30.5214 46.7956 30.5141 46.7497L30.4755 46.5191C30.4703 46.4868 30.4651 46.4545 30.4599 46.4221C30.5141 46.4524 30.5694 46.4826 30.6237 46.5129L30.6758 46.5421C30.6904 46.6328 30.7061 46.7236 30.7207 46.8143C30.7489 46.9854 30.777 47.1565 30.8062 47.3276C30.8125 47.3661 30.8187 47.4058 30.8261 47.4444C30.8334 47.4861 30.8699 47.5299 30.9053 47.5497C30.9408 47.5706 30.9919 47.58 31.0326 47.5675C31.0754 47.5549 31.1171 47.5289 31.138 47.4882C31.1599 47.4475 31.163 47.4068 31.1557 47.3609C31.138 47.2535 31.1202 47.146 31.1025 47.0386C31.0868 46.9426 31.0712 46.8477 31.0545 46.7517C31.1077 46.781 31.1599 46.8102 31.2131 46.8394C31.2778 46.8759 31.3424 46.9113 31.4081 46.9479L31.4165 46.952C31.4572 47.097 31.4968 47.241 31.5375 47.386L31.5573 47.4569C31.5813 47.5435 31.6731 47.605 31.7639 47.58C31.9329 47.533 32.1008 47.4861 32.2698 47.4392L32.3408 47.4193C32.3543 47.4152 32.3668 47.41 32.3794 47.4037C32.4075 47.3891 32.4315 47.3682 32.4461 47.3401C32.4586 47.3192 32.467 47.2921 32.4691 47.265V47.2535C32.4691 47.2389 32.4691 47.2253 32.4649 47.2128C32.418 47.0438 32.371 46.8759 32.3241 46.7069C32.3178 46.6829 32.3105 46.66 32.3042 46.636C32.2803 46.5494 32.1885 46.4878 32.0977 46.5129C31.9287 46.5598 31.7607 46.6068 31.5917 46.6537L31.5855 46.6558C31.5375 46.6287 31.4895 46.6026 31.4415 46.5755C31.3654 46.5337 31.2903 46.491 31.2141 46.4492L31.2256 46.444C31.3831 46.3721 31.5417 46.3001 31.6992 46.2271C31.7347 46.2104 31.7712 46.1947 31.8066 46.178C31.8442 46.1613 31.8765 46.1144 31.887 46.0758C31.8984 46.0351 31.8932 45.983 31.8713 45.9465C31.8484 45.9089 31.8129 45.8766 31.7691 45.8661C31.7232 45.8557 31.6825 45.862 31.6397 45.8818C31.5406 45.9266 31.4415 45.9725 31.3424 46.0174C31.1849 46.0894 31.0263 46.1613 30.8688 46.2344L30.8469 46.2448C30.7697 46.202 30.6915 46.1582 30.6143 46.1154C30.703 46.0748 30.7916 46.0341 30.8793 45.9944C30.9053 45.983 30.9314 45.9704 30.9575 45.959C30.995 45.9423 31.0274 45.8953 31.0378 45.8568C31.0493 45.8161 31.0441 45.7639 31.0222 45.7274C30.9992 45.6899 30.9638 45.6575 30.9199 45.6471C30.874 45.6367 30.8334 45.6429 30.7906 45.6627C30.7196 45.6951 30.6487 45.7274 30.5778 45.7597C30.4672 45.8098 30.3566 45.8609 30.246 45.911C30.2294 45.9016 30.2127 45.8922 30.196 45.8828C30.1376 45.8505 30.0791 45.8182 30.0207 45.7848C30.172 45.7201 30.3232 45.6544 30.4745 45.5897C30.5141 45.573 30.5548 45.5553 30.5945 45.5386C30.6414 45.5125 30.6779 45.476 30.705 45.4301C30.7311 45.3853 30.7447 45.3373 30.7447 45.2851C30.7447 45.2319 30.7322 45.1819 30.7061 45.1349C30.68 45.088 30.6435 45.0515 30.5976 45.0243C30.4901 44.9753 30.3817 44.9273 30.2742 44.8783L30.0072 44.7584C30.0426 44.7385 30.077 44.7187 30.1125 44.6989C30.1615 44.6707 30.2106 44.6436 30.2606 44.6154C30.2972 44.6321 30.3337 44.6478 30.3691 44.6645C30.4818 44.7156 30.5945 44.7657 30.7071 44.8168L30.7854 44.8522C30.8271 44.871 30.8667 44.8814 30.9126 44.87C30.9533 44.8595 30.9982 44.8282 31.018 44.7907C31.0378 44.7521 31.0482 44.7062 31.0357 44.6634C31.0232 44.6227 30.9971 44.5758 30.9564 44.5581C30.8855 44.5257 30.8146 44.4944 30.7436 44.4621C30.704 44.4444 30.6654 44.4266 30.6258 44.4089C30.681 44.3776 30.7363 44.3463 30.7916 44.315L30.8553 44.2785C30.9199 44.3077 30.9857 44.3369 31.0503 44.3661C31.2089 44.4371 31.3664 44.508 31.525 44.58C31.5615 44.5967 31.597 44.6123 31.6335 44.629C31.6752 44.6478 31.7148 44.6582 31.7607 44.6467C31.8014 44.6363 31.8463 44.605 31.8661 44.5675C31.8859 44.5289 31.8964 44.483 31.8838 44.4402C31.8713 44.3995 31.8452 44.3526 31.8046 44.3348C31.7055 44.29 31.6053 44.2451 31.5062 44.2003C31.4113 44.1575 31.3153 44.1147 31.2204 44.072L31.3769 43.9833C31.4415 43.9468 31.5062 43.9103 31.5709 43.8738C31.5782 43.8696 31.5855 43.8654 31.5938 43.8613C31.7368 43.9009 31.8807 43.9405 32.0236 43.9802C32.0476 43.9864 32.0706 43.9927 32.0946 44C32.1832 44.025 32.2792 43.9698 32.3042 43.8811C32.3512 43.7121 32.3981 43.5442 32.444 43.3752L32.4607 43.3136C32.4607 43.3136 32.4628 43.3074 32.4628 43.3053C32.467 43.2886 32.4691 43.2709 32.468 43.2531C32.468 43.226 32.4607 43.1989 32.4461 43.1759C32.4253 43.1394 32.3846 43.105 32.3439 43.0956C32.1749 43.0487 32.0069 43.0017 31.8379 42.9558C31.8139 42.9496 31.791 42.9433 31.767 42.936C31.6783 42.912 31.5824 42.9663 31.5573 43.0549C31.5104 43.2239 31.4634 43.3919 31.4175 43.5609L31.4144 43.5713C31.3643 43.5994 31.3143 43.6287 31.2631 43.6568C31.1901 43.6985 31.1171 43.7392 31.0441 43.781C31.0712 43.613 31.0973 43.4451 31.1244 43.2782C31.1307 43.2396 31.1369 43.1999 31.1432 43.1613C31.1505 43.1154 31.1515 43.0748 31.1275 43.032C31.1067 42.9955 31.066 42.9611 31.0253 42.9517C30.9825 42.9412 30.9345 42.9433 30.8959 42.9673C30.8605 42.9892 30.8229 43.0268 30.8156 43.0695L30.7645 43.3929C30.7374 43.564 30.7103 43.7361 30.6831 43.9072C30.679 43.9364 30.6737 43.9645 30.6696 43.9937C30.5976 44.0344 30.5256 44.0751 30.4536 44.1158C30.4672 44.0303 30.4808 43.9447 30.4943 43.8592L30.5079 43.7747C30.5152 43.7288 30.5162 43.6881 30.4922 43.6453C30.4714 43.6088 30.4307 43.5744 30.39 43.565C30.3472 43.5546 30.2992 43.5567 30.2606 43.5807C30.2252 43.6026 30.1876 43.6401 30.1803 43.6829C30.1678 43.7601 30.1563 43.8362 30.1438 43.9134C30.124 44.0355 30.1052 44.1575 30.0854 44.2796C30.0833 44.2962 30.0802 44.3119 30.0781 44.3286L30.027 44.3578C29.9623 44.3943 29.8976 44.4308 29.8329 44.4673C29.8538 44.291 29.8747 44.1147 29.8945 43.9385C29.8997 43.8957 29.9049 43.8519 29.9101 43.8091C29.9101 43.7559 29.8976 43.7058 29.8715 43.6589C29.8455 43.612 29.8089 43.5755 29.763 43.5483C29.7182 43.5223 29.6702 43.5087 29.618 43.5087C29.5648 43.5087 29.5148 43.5212 29.4678 43.5473C29.3719 43.6161 29.2759 43.685 29.1799 43.7549C29.1006 43.8122 29.0203 43.8696 28.941 43.927C28.941 43.8873 28.9421 43.8477 28.9431 43.8081C28.9431 43.7413 28.9452 43.6746 28.9462 43.6078C28.9963 43.5661 29.0453 43.5243 29.0954 43.4837C29.1903 43.4044 29.2853 43.3251 29.3792 43.2458C29.4011 43.2271 29.423 43.2093 29.4449 43.1905C29.4762 43.1645 29.4939 43.1113 29.4949 43.0727C29.4949 43.0309 29.4772 42.9788 29.4449 42.9506C29.4125 42.9214 29.3708 42.8995 29.327 42.9006C29.279 42.9016 29.2415 42.9193 29.2049 42.9506C29.1455 43.0007 29.086 43.0508 29.0255 43.1008C29.0015 43.1207 28.9765 43.1415 28.9525 43.1613C28.9525 43.1175 28.9535 43.0737 28.9546 43.0299C28.9546 42.9913 28.9556 42.9517 28.9567 42.9131C29.0318 42.8494 29.1079 42.7869 29.183 42.7232C29.3166 42.6116 29.449 42.5 29.5826 42.3894L29.6733 42.3133C29.7046 42.2872 29.7224 42.234 29.7234 42.1954C29.7234 42.1537 29.7057 42.1015 29.6733 42.0734C29.641 42.0442 29.5993 42.0223 29.5555 42.0233C29.5075 42.0243 29.4699 42.0421 29.4334 42.0734C29.3499 42.1433 29.2665 42.2131 29.183 42.283C29.11 42.3435 29.037 42.4051 28.964 42.4656C28.964 42.4291 28.965 42.3915 28.9661 42.355C28.9671 42.2809 28.9681 42.2069 28.9692 42.1339C28.9692 42.1245 28.9692 42.1151 28.9692 42.1067C29.0839 41.9941 29.1987 41.8804 29.3124 41.7677C29.3301 41.751 29.3468 41.7333 29.3646 41.7166C29.4303 41.6519 29.4292 41.5414 29.3646 41.4757C29.2415 41.3515 29.1184 41.2264 28.9953 41.1022C28.9807 41.0876 28.9661 41.072 28.9514 41.0574C28.9494 41.0553 28.9473 41.0522 28.9441 41.0501C28.9139 41.0198 28.869 41.001 28.8263 41C28.7845 41 28.7324 41.0177 28.7042 41.0501C28.5801 41.1732 28.4549 41.2962 28.3308 41.4193L28.2786 41.4704C28.2129 41.5351 28.2139 41.6457 28.2786 41.7114C28.3954 41.8303 28.5123 41.9492 28.6301 42.0671V42.0932C28.6291 42.1589 28.6281 42.2236 28.627 42.2893C28.627 42.3561 28.6249 42.4228 28.6239 42.4906L28.6114 42.4823C28.4695 42.3832 28.3266 42.2841 28.1847 42.185C28.1524 42.162 28.12 42.1401 28.0877 42.1172C28.0543 42.0942 27.999 42.0901 27.9604 42.0994C27.9197 42.1099 27.8749 42.1412 27.8551 42.1787C27.8352 42.2173 27.8248 42.2632 27.8373 42.306C27.8509 42.3519 27.878 42.3842 27.9166 42.4113L28.1847 42.5981C28.3266 42.6972 28.4695 42.7962 28.6114 42.8953L28.6176 42.8995C28.6176 42.911 28.6176 42.9225 28.6176 42.9329C28.6166 43.0184 28.6145 43.105 28.6135 43.1905C28.5331 43.1353 28.4539 43.0789 28.3735 43.0236C28.3495 43.007 28.3266 42.9913 28.3026 42.9746C28.2692 42.9517 28.2139 42.9475 28.1753 42.9569C28.1346 42.9673 28.0898 42.9986 28.07 43.0362C28.0501 43.0748 28.0397 43.1207 28.0522 43.1634C28.0658 43.2093 28.0929 43.2417 28.1315 43.2688L28.3235 43.4023C28.4184 43.468 28.5123 43.5337 28.6072 43.6005L28.6051 43.7131L28.602 43.9374C28.4591 43.831 28.3151 43.7236 28.1722 43.6172C28.1378 43.5911 28.1023 43.565 28.0679 43.5389C28.023 43.5129 27.975 43.4993 27.9229 43.4983C27.8697 43.4983 27.8196 43.5108 27.7727 43.5369C27.7257 43.5629 27.6892 43.5994 27.6621 43.6453C27.636 43.6902 27.6224 43.7382 27.6224 43.7903C27.6339 43.9082 27.6464 44.0261 27.6579 44.144L27.6934 44.4944C27.6485 44.4694 27.6026 44.4444 27.5578 44.4193L27.4117 44.338C27.4044 44.2837 27.3971 44.2295 27.3898 44.1742L27.3408 43.807L27.3293 43.7215C27.3241 43.6808 27.2834 43.636 27.25 43.6161C27.2145 43.5953 27.1634 43.5859 27.1227 43.5984C27.08 43.6109 27.0382 43.637 27.0174 43.6777L27.0007 43.7173C26.9923 43.7465 26.9923 43.7747 26.9997 43.8039C27.0101 43.8811 27.0205 43.9583 27.0309 44.0355C27.0351 44.0678 27.0393 44.1001 27.0435 44.1325C26.9882 44.1022 26.9339 44.072 26.8786 44.0407C26.8557 44.0282 26.8327 44.0146 26.8098 44.0021C26.7983 43.9186 26.7879 43.8362 26.7764 43.7528C26.7535 43.5807 26.7305 43.4086 26.7076 43.2364C26.7023 43.1968 26.6971 43.1582 26.6919 43.1186C26.6867 43.0779 26.646 43.033 26.6126 43.0132C26.5772 42.9924 26.526 42.983 26.4854 42.9955C26.4426 43.008 26.4009 43.0341 26.38 43.0748L26.3633 43.1144C26.355 43.1436 26.355 43.1718 26.3623 43.201C26.3769 43.3095 26.3915 43.4169 26.405 43.5254C26.4176 43.6161 26.429 43.7058 26.4415 43.7966C26.3915 43.7684 26.3404 43.7403 26.2903 43.7121C26.2256 43.6766 26.1609 43.6401 26.0963 43.6047C26.0806 43.5963 26.066 43.588 26.0504 43.5796C26.0107 43.444 25.9721 43.3095 25.9325 43.1739C25.9262 43.1509 25.9189 43.1269 25.9116 43.104C25.8866 43.0184 25.7958 42.9538 25.7051 42.9809C25.5371 43.0299 25.3692 43.0779 25.2002 43.1269C25.1772 43.1332 25.1532 43.1405 25.1303 43.1478C25.1209 43.1509 25.1125 43.154 25.1031 43.1572C25.0708 43.1718 25.0416 43.1947 25.0239 43.2271C25.0145 43.2437 25.0072 43.2646 25.003 43.2855C24.9999 43.3032 24.9988 43.3209 25.003 43.3387C25.003 43.3439 25.0051 43.3491 25.0061 43.3543C25.0552 43.5223 25.1031 43.6902 25.1522 43.8592C25.1595 43.8821 25.1657 43.9061 25.173 43.9291C25.1981 44.0146 25.2888 44.0793 25.3796 44.0522C25.5475 44.0031 25.7155 43.9551 25.8845 43.9061L25.9179 43.8967C25.9659 43.9239 26.0149 43.951 26.0629 43.9771C26.138 44.0188 26.2131 44.0605 26.2872 44.1022L26.259 44.1137L25.7791 44.315L25.6696 44.3609C25.632 44.3766 25.5997 44.4266 25.5893 44.4631C25.5778 44.5038 25.583 44.556 25.6049 44.5925C25.6279 44.63 25.6633 44.6624 25.7071 44.6728C25.7218 44.6749 25.7353 44.677 25.7499 44.6791C25.7802 44.6791 25.8094 44.6718 25.8365 44.6572C25.9366 44.6154 26.0378 44.5727 26.138 44.531L26.6178 44.3296L26.6617 44.3109C26.7336 44.3505 26.8046 44.3901 26.8766 44.4308C26.7858 44.4684 26.6961 44.507 26.6053 44.5445C26.5792 44.556 26.5521 44.5664 26.526 44.5779C26.4885 44.5935 26.4562 44.6436 26.4457 44.6801C26.4342 44.7208 26.4395 44.773 26.4614 44.8095C26.4843 44.847 26.5198 44.8793 26.5636 44.8898L26.6064 44.896C26.6366 44.896 26.6658 44.8887 26.693 44.8741C26.7649 44.8439 26.8369 44.8136 26.9079 44.7834C27.0216 44.7354 27.1353 44.6874 27.249 44.6405H27.25L27.3011 44.6686C27.3554 44.6989 27.4096 44.7291 27.4649 44.7594C27.3189 44.822 27.1739 44.8846 27.0278 44.9482C26.9882 44.9649 26.9475 44.9826 26.9079 44.9993C26.8609 45.0254 26.8244 45.0619 26.7973 45.1078C26.7712 45.1526 26.7576 45.2006 26.7576 45.2528C26.7576 45.306 26.7701 45.3561 26.7962 45.403C26.8223 45.4499 26.8588 45.4864 26.9047 45.5136C27.0122 45.5626 27.1207 45.6106 27.2281 45.6596C27.322 45.7013 27.4148 45.7441 27.5087 45.7858C27.4701 45.8077 27.4315 45.8296 27.3929 45.8515C27.3533 45.8745 27.3136 45.8964 27.273 45.9193C27.2093 45.8933 27.1447 45.8672 27.081 45.8411C26.9663 45.7942 26.8526 45.7483 26.7378 45.7013C26.7117 45.6909 26.6846 45.6794 26.6585 45.669C26.621 45.6533 26.5626 45.6659 26.5292 45.6846C26.4927 45.7055 26.4582 45.7462 26.4489 45.7869C26.4384 45.8296 26.4405 45.8776 26.4645 45.9162C26.4739 45.9287 26.4833 45.9402 26.4916 45.9527C26.5125 45.9736 26.5375 45.9882 26.5667 45.9965C26.6387 46.0257 26.7107 46.0549 26.7827 46.0852C26.8213 46.1008 26.8588 46.1165 26.8974 46.1321C26.8369 46.1666 26.7754 46.201 26.7149 46.2354L26.6804 46.2552C26.5845 46.2166 26.4885 46.177 26.3925 46.1384C26.2319 46.0727 26.0712 46.007 25.9106 45.9423C25.8741 45.9277 25.8375 45.912 25.801 45.8974C25.7635 45.8818 25.7051 45.8943 25.6717 45.9131C25.6352 45.9339 25.6007 45.9746 25.5914 46.0153C25.5809 46.0581 25.583 46.1061 25.607 46.1447L25.6341 46.1812C25.655 46.202 25.68 46.2166 25.7092 46.225C25.8104 46.2657 25.9116 46.3074 26.0118 46.3481L26.3049 46.467C26.2454 46.5004 26.187 46.5337 26.1275 46.5671C26.0629 46.6036 25.9992 46.6401 25.9346 46.6766C25.92 46.685 25.9064 46.6923 25.8918 46.7006C25.7624 46.6683 25.632 46.636 25.5027 46.6036L25.4317 46.5859C25.3441 46.564 25.245 46.613 25.2221 46.7048C25.1793 46.8748 25.1376 47.0449 25.0948 47.2138C25.0885 47.2378 25.0833 47.2608 25.0771 47.2848C25.0739 47.2973 25.0718 47.3098 25.0718 47.3223C25.0698 47.3547 25.076 47.387 25.0927 47.4141C25.1042 47.4339 25.1219 47.4538 25.1428 47.4694H25.1449C25.1449 47.4694 25.1532 47.4767 25.1574 47.4788C25.1574 47.4788 25.1616 47.4819 25.1636 47.483C25.1741 47.4882 25.1845 47.4924 25.1949 47.4944C25.365 47.5372 25.535 47.5789 25.704 47.6217L25.775 47.6394C25.8626 47.6613 25.9617 47.6123 25.9846 47.5205C26.0274 47.3505 26.0691 47.1805 26.1119 47.0115C26.1161 46.9948 26.1202 46.9771 26.1244 46.9604C26.163 46.9385 26.2006 46.9166 26.2392 46.8957C26.308 46.8571 26.3769 46.8175 26.4457 46.7789C26.4249 46.9468 26.404 47.1148 26.3842 47.2817C26.379 47.3213 26.3748 47.3599 26.3696 47.3995C26.3644 47.4402 26.3915 47.4944 26.4196 47.5216C26.4488 47.5508 26.4958 47.5727 26.5375 47.5716C26.5824 47.5706 26.6293 47.556 26.6596 47.5216L26.6867 47.4871C26.7013 47.4611 26.7096 47.4339 26.7096 47.4037C26.7232 47.2952 26.7368 47.1878 26.7493 47.0793C26.7702 46.9103 26.791 46.7403 26.8119 46.5713L27.0435 46.4399C27.033 46.5275 27.0216 46.6161 27.0111 46.7038C27.008 46.7319 27.0038 46.7611 27.0007 46.7893C26.9955 46.83 27.0226 46.8842 27.0508 46.9113C27.08 46.9405 27.1269 46.9625 27.1686 46.9614C27.2135 46.9604 27.2604 46.9458 27.2907 46.9113L27.3178 46.8769C27.3324 46.8508 27.3408 46.8237 27.3408 46.7935C27.3502 46.7163 27.3595 46.6391 27.3689 46.5619C27.3825 46.4524 27.3961 46.3418 27.4096 46.2323C27.4315 46.2198 27.4534 46.2072 27.4753 46.1947C27.5379 46.1593 27.6005 46.1238 27.6642 46.0883C27.6443 46.2594 27.6235 46.4305 27.6037 46.6015C27.5984 46.6443 27.5932 46.6881 27.588 46.7309C27.588 46.7841 27.6005 46.8342 27.6266 46.8811C27.6527 46.928 27.6892 46.9645 27.7351 46.9917C27.78 47.0177 27.8279 47.0313 27.8801 47.0323C27.9333 47.0323 27.9834 47.0198 28.0303 46.9938C28.1263 46.9249 28.2223 46.8561 28.3182 46.7862C28.3954 46.7309 28.4737 46.6746 28.5509 46.6193L28.5488 46.7392L28.5467 46.902C28.5154 46.9249 28.4841 46.9468 28.4528 46.9698L28.1513 47.1857L28.0814 47.2358C28.0439 47.2629 28.0147 47.2921 28.0011 47.338C27.9896 47.3787 27.9948 47.4308 28.0168 47.4673C28.0397 47.5049 28.0752 47.5372 28.119 47.5476C28.1607 47.557 28.2118 47.557 28.2483 47.532C28.312 47.4871 28.3746 47.4412 28.4382 47.3964C28.4716 47.3724 28.506 47.3484 28.5394 47.3234C28.5394 47.388 28.5373 47.4527 28.5363 47.5174V47.5904C28.4789 47.6301 28.4236 47.6707 28.3673 47.7104C28.2264 47.8116 28.0856 47.9127 27.9437 48.0139C27.9114 48.0369 27.8791 48.0598 27.8478 48.0828C27.8102 48.1099 27.781 48.1391 27.7674 48.185C27.756 48.2257 27.7612 48.2778 27.7831 48.3143C27.806 48.3519 27.8415 48.3842 27.8853 48.3947C27.927 48.404 27.9782 48.404 28.0147 48.379C28.1033 48.3154 28.192 48.2518 28.2807 48.1881C28.3631 48.1287 28.4455 48.0702 28.5279 48.0108L28.5248 48.1902L28.5217 48.404C28.4121 48.5094 28.3015 48.6148 28.192 48.7201C28.1743 48.7368 28.1565 48.7535 28.1388 48.7712C28.072 48.8359 28.0762 48.9465 28.1388 49.0122C28.2598 49.1384 28.3808 49.2646 28.5029 49.3908C28.5164 49.4054 28.53 49.419 28.5446 49.4336C28.5477 49.4367 28.5509 49.4409 28.554 49.443C28.5832 49.4732 28.6301 49.492 28.6719 49.4931C28.7136 49.4931 28.7658 49.4753 28.7939 49.443L28.8002 49.4388ZM28.4872 45.5866L28.4956 45.5115C28.5018 45.4572 28.4612 45.3842 28.4111 45.3623C28.3391 45.33 28.2671 45.2976 28.1951 45.2653C28.2452 45.2434 28.2942 45.2225 28.3443 45.2006L28.4132 45.1704C28.4622 45.1495 28.505 45.0775 28.4998 45.0243C28.4914 44.9451 28.4841 44.8658 28.4758 44.7865C28.5196 44.8188 28.5634 44.8522 28.6072 44.8846C28.627 44.8992 28.6479 44.9148 28.6677 44.9294C28.7105 44.9618 28.7939 44.9618 28.8367 44.9294C28.9014 44.8835 28.965 44.8366 29.0297 44.7907C29.0234 44.8439 29.0172 44.8981 29.0109 44.9513C29.0088 44.9659 29.0078 44.9805 29.0057 44.9951C29.0026 45.0077 29.0015 45.0191 29.0015 45.0316C29.0005 45.0567 29.0099 45.0859 29.0234 45.1109C29.038 45.138 29.0589 45.1631 29.086 45.1756L29.0892 45.1777C29.0975 45.1829 29.1069 45.186 29.1163 45.1902C29.1778 45.2184 29.2394 45.2455 29.302 45.2737C29.2519 45.2956 29.2029 45.3164 29.1528 45.3383L29.1142 45.355C29.1017 45.3592 29.0902 45.3634 29.0798 45.3696C29.0401 45.3894 29.0057 45.4416 28.9984 45.4885V45.4979C28.9984 45.4979 28.9973 45.5021 28.9973 45.5042V45.5063C28.9973 45.5063 28.9973 45.5104 28.9973 45.5136C29.0057 45.5928 29.013 45.6721 29.0213 45.7514C28.9775 45.7191 28.9337 45.6857 28.8899 45.6533L28.8294 45.6085C28.7866 45.5762 28.7032 45.5762 28.6604 45.6085L28.6573 45.6106C28.6479 45.6158 28.6395 45.6221 28.6322 45.6294C28.578 45.669 28.5227 45.7076 28.4685 45.7472C28.4747 45.694 28.481 45.6398 28.4872 45.5866Z" fill="#5DBDF1"/>
<path d="M43.0933 44.9315C43.2625 44.7744 43.4317 44.6174 43.6 44.4603C43.6233 44.4386 43.6475 44.4169 43.6708 44.3943C43.7606 44.3108 43.7554 44.1679 43.6708 44.0827C43.5085 43.919 43.3462 43.7552 43.1839 43.5923C43.1848 43.5263 43.1856 43.4612 43.1874 43.396C43.1891 43.2824 43.1908 43.1688 43.1925 43.0543C43.3721 43.1963 43.5525 43.3383 43.7321 43.4804C43.7727 43.5129 43.8141 43.5447 43.8547 43.5773C43.9022 43.6149 43.9496 43.6408 44.0127 43.6416C44.0688 43.6416 44.1378 43.6182 44.1767 43.5773C44.2155 43.5363 44.2449 43.482 44.2432 43.4244C44.2414 43.3684 44.2233 43.3024 44.1767 43.2657C44.0636 43.1763 43.9505 43.0869 43.8374 42.9975C43.6578 42.8555 43.4774 42.7135 43.2979 42.5714C43.265 42.5455 43.2331 42.5205 43.2003 42.4946C43.202 42.3876 43.2038 42.2807 43.2055 42.1729L43.4817 42.3918C43.5111 42.4152 43.5413 42.4386 43.5707 42.462C43.6181 42.4996 43.6656 42.5255 43.7286 42.5263C43.7848 42.5263 43.8538 42.5029 43.8927 42.462C43.9315 42.4211 43.9609 42.3667 43.9591 42.3091C43.9574 42.2531 43.9393 42.1871 43.8927 42.1504L43.6509 41.9591C43.5232 41.858 43.3945 41.7569 43.2668 41.6558L43.2141 41.614C43.2141 41.594 43.2141 41.5739 43.215 41.553L43.2202 41.2515C43.4144 41.3918 43.6086 41.5322 43.8037 41.6717L43.9436 41.7728C44.004 41.8062 44.0688 41.8237 44.1378 41.8246C44.2095 41.8246 44.276 41.8087 44.339 41.7744C44.4011 41.7402 44.4504 41.6934 44.4866 41.6333C44.5211 41.5748 44.5393 41.5121 44.5401 41.4453L44.4927 40.9875C44.478 40.8429 44.4624 40.6992 44.4478 40.5547C44.5056 40.5856 44.5635 40.6174 44.6213 40.6483C44.6834 40.6817 44.7465 40.7151 44.8086 40.7494L44.8466 40.9699C44.8734 41.1278 44.901 41.2857 44.9278 41.4436C44.9338 41.4804 44.9407 41.5171 44.9468 41.5539C44.9563 41.6074 45.0063 41.6642 45.0529 41.6909C45.1004 41.7176 45.1695 41.7293 45.223 41.7143C45.28 41.6976 45.3361 41.6642 45.3646 41.6115C45.3931 41.5581 45.3991 41.5063 45.3888 41.4469L45.3378 41.1487L45.3162 41.0226C45.3896 41.0618 45.4621 41.1011 45.5355 41.1404L45.6046 41.1779C45.6244 41.2957 45.6452 41.4127 45.665 41.5305C45.703 41.7519 45.741 41.9741 45.779 42.1955L45.8049 42.3467C45.8144 42.4002 45.8644 42.457 45.9111 42.4837C45.9585 42.5104 46.0276 42.5221 46.0811 42.5071C46.1381 42.4904 46.1942 42.457 46.2227 42.4043C46.2512 42.3509 46.2572 42.2991 46.2469 42.2398C46.2227 42.1002 46.1994 41.9607 46.1752 41.8221C46.1536 41.6984 46.1329 41.5748 46.1113 41.4503C46.1821 41.4879 46.2529 41.5263 46.3229 41.5639C46.41 41.6107 46.4964 41.6575 46.5836 41.7043L46.5948 41.7101C46.6483 41.8972 46.7027 42.0852 46.7562 42.2723C46.7649 42.3024 46.7735 42.3333 46.7821 42.3634C46.8141 42.4762 46.9375 42.5556 47.0584 42.523L47.7352 42.3409C47.7663 42.3325 47.7982 42.3241 47.8293 42.3158C47.8474 42.3108 47.8647 42.3041 47.8802 42.2957C47.9174 42.2765 47.9502 42.2498 47.97 42.213C47.9864 42.1855 47.9977 42.1504 48.0002 42.1161C48.0002 42.1145 48.0002 42.1128 48.0002 42.1119C48.0002 42.1094 48.0002 42.1078 48.0002 42.1053V42.1011C48.0002 42.0827 47.9985 42.0652 47.9933 42.0485C47.9303 41.8304 47.8682 41.6115 47.8051 41.3935C47.7965 41.3634 47.7879 41.3325 47.7792 41.3024C47.7473 41.1896 47.6238 41.1103 47.503 41.1429C47.2777 41.2038 47.0515 41.264 46.8262 41.325L46.8175 41.3275C46.7536 41.2932 46.6889 41.2581 46.625 41.2239C46.524 41.1696 46.4221 41.1145 46.3211 41.0601L46.3367 41.0535C46.5482 40.9599 46.7588 40.8663 46.9703 40.7728L47.1145 40.7093C47.1646 40.6867 47.2077 40.6266 47.2215 40.5764C47.2362 40.5246 47.2302 40.4553 47.2 40.4094C47.1689 40.3609 47.1214 40.3191 47.0627 40.3058C47.0014 40.2916 46.9479 40.3008 46.89 40.3267C46.7571 40.3851 46.625 40.4444 46.4921 40.5029C46.2806 40.5965 46.0699 40.6901 45.8584 40.7836L45.829 40.7962C45.7255 40.7402 45.6219 40.6842 45.5174 40.6291C45.6357 40.5764 45.7539 40.5246 45.8722 40.472C45.9067 40.457 45.9421 40.4411 45.9767 40.4261C46.0267 40.4035 46.0699 40.3434 46.0837 40.2932C46.0984 40.2414 46.0924 40.1721 46.0621 40.1261C46.0311 40.0777 45.9836 40.0359 45.9249 40.0226C45.8636 40.0084 45.8101 40.0175 45.7522 40.0434C45.6572 40.0852 45.5632 40.127 45.4682 40.1696L45.0245 40.3659C45.002 40.3542 44.9804 40.3417 44.958 40.33C44.8794 40.2882 44.8017 40.2456 44.7232 40.2038C44.9252 40.1195 45.128 40.0351 45.3301 39.9507L45.4906 39.8839C45.5528 39.8496 45.602 39.8028 45.6383 39.7427C45.6728 39.6842 45.6909 39.6216 45.6918 39.5547C45.6918 39.4854 45.6754 39.4211 45.64 39.3601C45.6046 39.2999 45.5562 39.2523 45.4941 39.2172C45.3499 39.1546 45.2057 39.0911 45.0607 39.0284C44.9416 38.9766 44.8224 38.9248 44.7033 38.8722C44.7499 38.8463 44.7974 38.8204 44.844 38.7953C44.9096 38.7594 44.9761 38.7235 45.0417 38.6867C45.0901 38.7076 45.1384 38.7293 45.1876 38.7502C45.3387 38.8154 45.4889 38.8814 45.64 38.9474C45.6754 38.9624 45.7099 38.9774 45.7453 38.9933C45.8014 39.0175 45.8541 39.0317 45.9154 39.0167C45.9698 39.0033 46.0302 38.9632 46.057 38.914C46.0837 38.8647 46.0984 38.8045 46.0811 38.7494C46.0647 38.6959 46.0293 38.6366 45.9749 38.6124C45.88 38.5714 45.785 38.5297 45.6901 38.4887C45.6374 38.4662 45.5847 38.4428 45.5321 38.4202C45.6063 38.3793 45.6806 38.3392 45.7539 38.2982C45.7824 38.2824 45.8109 38.2673 45.8394 38.2515C45.9266 38.2891 46.0138 38.3275 46.101 38.3651C46.3125 38.457 46.5249 38.5497 46.7364 38.6416C46.7847 38.6625 46.8331 38.6834 46.8805 38.7043C46.9367 38.7285 46.9893 38.7427 47.0506 38.7277C47.105 38.7143 47.1654 38.6742 47.1922 38.6249C47.219 38.5756 47.2336 38.5155 47.2164 38.4603C47.2 38.4069 47.1646 38.3475 47.1102 38.3233C46.9772 38.2657 46.8443 38.2072 46.7113 38.1495C46.5836 38.0944 46.4567 38.0384 46.3289 37.9833C46.3988 37.9449 46.4688 37.9064 46.5387 37.868C46.625 37.8204 46.7113 37.7736 46.7977 37.726C46.808 37.7201 46.8175 37.7151 46.8279 37.7093C47.0195 37.7611 47.2112 37.812 47.4037 37.8638C47.4348 37.8722 47.4667 37.8805 47.4978 37.8889C47.6161 37.9206 47.7447 37.8505 47.7775 37.7352C47.8397 37.5171 47.9027 37.2982 47.9648 37.0794L47.9882 36.9992C47.9882 36.9992 47.9907 36.9916 47.9916 36.9875C47.9977 36.9657 48.0002 36.9432 47.9994 36.9198C47.9994 36.8847 47.9899 36.8505 47.9709 36.8204C47.9433 36.7736 47.8889 36.7293 47.8336 36.7168C47.6074 36.6566 47.3821 36.5957 47.1559 36.5355L47.0618 36.5104C46.9436 36.4787 46.8149 36.5489 46.7821 36.6642L46.5948 37.32L46.5905 37.3342C46.5231 37.3709 46.4558 37.4077 46.3885 37.4444C46.2909 37.4979 46.1925 37.5514 46.0949 37.6048C46.1303 37.3876 46.1666 37.1704 46.202 36.9532L46.227 36.802C46.2365 36.7419 46.2382 36.6901 46.2054 36.6349C46.1778 36.5881 46.1234 36.5439 46.0682 36.5313C46.0112 36.5188 45.9465 36.5205 45.8955 36.5522C45.848 36.5815 45.798 36.6282 45.7885 36.685C45.7652 36.8246 45.7427 36.9641 45.7194 37.1036C45.6832 37.3258 45.646 37.5472 45.6098 37.7694C45.6037 37.807 45.5977 37.8438 45.5916 37.8814C45.495 37.934 45.3983 37.9875 45.3024 38.0401C45.3206 37.929 45.3387 37.8187 45.3568 37.7076C45.3629 37.6708 45.3689 37.6341 45.375 37.5973C45.3844 37.5372 45.3862 37.4854 45.3534 37.4302C45.3257 37.3835 45.2714 37.3392 45.2161 37.3266C45.1591 37.3141 45.0944 37.3158 45.0434 37.3475C44.996 37.3768 44.9459 37.4236 44.9364 37.4804C44.92 37.5798 44.9036 37.6792 44.8872 37.7786C44.8613 37.9365 44.8354 38.0944 44.8095 38.2523L44.7991 38.3158L44.7301 38.3534L44.4711 38.4954C44.4987 38.2673 44.5263 38.0384 44.554 37.8104L44.5747 37.6424C44.5747 37.5731 44.5583 37.5088 44.5229 37.4478C44.4875 37.3876 44.4391 37.34 44.377 37.3049C44.3165 37.2715 44.2518 37.254 44.1827 37.2531C44.1111 37.2531 44.0437 37.269 43.9816 37.3033C43.853 37.3927 43.7243 37.482 43.5957 37.5714C43.4895 37.6458 43.3825 37.7201 43.2763 37.7937C43.2763 37.7427 43.278 37.6917 43.2789 37.6399L43.2832 37.381C43.3497 37.3275 43.4161 37.2732 43.4826 37.2197C43.6095 37.117 43.7364 37.0142 43.8625 36.9114L43.9505 36.8396C43.9919 36.8062 44.017 36.7377 44.017 36.6867C44.017 36.6324 43.9928 36.5656 43.9505 36.528C43.9082 36.4904 43.8521 36.462 43.7925 36.4637C43.7286 36.4653 43.6777 36.4879 43.6285 36.528C43.5482 36.5923 43.4688 36.6575 43.3885 36.7218C43.3557 36.7485 43.3238 36.7744 43.2909 36.8012C43.2918 36.7444 43.2927 36.6884 43.2935 36.6316C43.2935 36.5815 43.2953 36.5305 43.2961 36.4804C43.3971 36.3985 43.4981 36.3166 43.5991 36.2348C43.777 36.0902 43.9557 35.9465 44.1335 35.802L44.2553 35.7034C44.2967 35.67 44.3217 35.6015 44.3217 35.5505C44.3217 35.4962 44.2976 35.4294 44.2553 35.3918C44.213 35.3542 44.1568 35.3258 44.0973 35.3275C44.0334 35.3292 43.9825 35.3517 43.9332 35.3918C43.821 35.482 43.7096 35.5731 43.5974 35.6633C43.4999 35.7427 43.4023 35.8212 43.3048 35.9006C43.3048 35.853 43.3065 35.8053 43.3074 35.7577L43.3117 35.4703C43.3117 35.4586 43.3117 35.447 43.3117 35.4344C43.4653 35.2882 43.6181 35.142 43.7718 34.995C43.7951 34.9724 43.8184 34.9507 43.8417 34.9282C43.9298 34.8446 43.9281 34.7009 43.8417 34.6165C43.6768 34.4553 43.5128 34.2941 43.3479 34.132C43.3281 34.1128 43.3082 34.0936 43.2884 34.0735C43.2849 34.0702 43.2823 34.0668 43.2789 34.0643C43.2391 34.0251 43.1779 34.0008 43.1209 34C43.0648 34 42.9957 34.0234 42.9569 34.0643C42.7902 34.2239 42.6236 34.3826 42.457 34.5422C42.4337 34.5647 42.4104 34.5865 42.3871 34.609C42.299 34.6926 42.3007 34.8363 42.3871 34.9206C42.5442 35.0744 42.7004 35.2281 42.8576 35.3818C42.8576 35.3927 42.8576 35.4035 42.8576 35.4152C42.8558 35.4996 42.855 35.5848 42.8533 35.6692C42.8515 35.7561 42.8507 35.8429 42.8489 35.929L42.8325 35.9173C42.6417 35.7886 42.4518 35.66 42.261 35.5313C42.2179 35.5021 42.1747 35.4729 42.1307 35.4436C42.0858 35.4135 42.0115 35.4077 41.9606 35.4202C41.9062 35.4336 41.8458 35.4737 41.819 35.523C41.7923 35.5723 41.7776 35.6324 41.7948 35.6876C41.813 35.7469 41.8484 35.7886 41.901 35.8246C42.021 35.9056 42.1402 35.9858 42.2602 36.0668C42.451 36.1955 42.6409 36.3241 42.8317 36.4528L42.8394 36.4587V36.5029C42.8369 36.614 42.8351 36.7251 42.8334 36.8371C42.7263 36.7652 42.6193 36.6926 42.5122 36.6207C42.4812 36.5998 42.4492 36.5781 42.4182 36.5572C42.3733 36.5272 42.299 36.5213 42.2481 36.5338C42.1937 36.5472 42.1333 36.5873 42.1065 36.6366C42.0797 36.6859 42.0651 36.746 42.0823 36.8012C42.1005 36.8605 42.1359 36.9023 42.1885 36.9382C42.274 36.9958 42.3594 37.0535 42.4449 37.1111C42.5718 37.1963 42.6979 37.2815 42.8248 37.3676L42.8222 37.513C42.8204 37.6099 42.8187 37.7059 42.8179 37.8028C42.6262 37.665 42.4346 37.5263 42.2429 37.3885C42.1963 37.3551 42.1497 37.3208 42.103 37.2874C42.0426 37.254 41.9779 37.2364 41.9088 37.2356C41.8372 37.2356 41.7707 37.2515 41.7077 37.2857C41.6455 37.32 41.5963 37.3668 41.56 37.4269C41.5255 37.4854 41.5074 37.548 41.5065 37.6149C41.522 37.7678 41.5385 37.9198 41.554 38.0727C41.5695 38.2239 41.5851 38.3751 41.6006 38.5271C41.5402 38.4946 41.4797 38.462 41.4193 38.4294C41.3537 38.3943 41.289 38.3592 41.2233 38.3241C41.2138 38.254 41.2044 38.183 41.194 38.1128L41.1284 37.6374L41.1128 37.5272C41.1059 37.4745 41.0524 37.416 41.0067 37.3901C40.9592 37.3634 40.8901 37.3517 40.8366 37.3668C40.7796 37.3835 40.7235 37.4169 40.695 37.4695C40.6872 37.4871 40.6803 37.5038 40.6726 37.5213C40.6622 37.5589 40.6613 37.5965 40.6708 37.6341C40.6846 37.7343 40.6985 37.8338 40.7123 37.934C40.7183 37.9758 40.7235 38.0175 40.7295 38.0593C40.6562 38.0201 40.5828 37.9808 40.5094 37.9407C40.4783 37.924 40.4481 37.9073 40.417 37.8914C40.4023 37.7836 40.3877 37.6759 40.373 37.5681L40.2815 36.8998L40.2608 36.7477C40.2539 36.6951 40.2003 36.6366 40.1546 36.6107C40.1071 36.584 40.038 36.5723 39.9845 36.5873C39.9275 36.604 39.8714 36.6374 39.8429 36.6901C39.8352 36.7076 39.8283 36.7243 39.8205 36.7419C39.8101 36.7794 39.8093 36.817 39.8188 36.8546C39.8378 36.995 39.8576 37.1345 39.8766 37.2749C39.893 37.3918 39.9085 37.5088 39.9249 37.6257C39.8576 37.5898 39.7903 37.5531 39.7229 37.5171C39.6366 37.4703 39.5503 37.4244 39.4639 37.3776C39.4432 37.3668 39.4234 37.3559 39.4026 37.345C39.35 37.1696 39.2982 36.9942 39.2455 36.8195C39.236 36.7895 39.2274 36.7586 39.2179 36.7285C39.1842 36.6174 39.0634 36.5347 38.9416 36.5689C38.7163 36.6316 38.4919 36.6951 38.2665 36.7577L38.1724 36.7845C38.1604 36.7878 38.1483 36.792 38.137 36.797C38.093 36.8162 38.0542 36.8454 38.0317 36.8872C38.0188 36.9089 38.0093 36.9357 38.0041 36.9624C37.9998 36.985 37.9989 37.0084 38.0024 37.0309C38.0032 37.0376 38.005 37.0451 38.0067 37.051C38.0714 37.269 38.137 37.4862 38.2018 37.7043C38.2113 37.7343 38.2199 37.7652 38.2294 37.7953C38.2631 37.9064 38.384 37.9891 38.5057 37.9549L39.1808 37.7661L39.2248 37.7536C39.2896 37.7886 39.3543 37.8237 39.419 37.858C39.5192 37.9123 39.6193 37.9658 39.7195 38.0201L39.6815 38.0359C39.4674 38.1228 39.2533 38.2097 39.0392 38.2966C38.9909 38.3166 38.9416 38.3358 38.8933 38.3559C38.8432 38.3759 38.8001 38.4403 38.7862 38.4887C38.7716 38.5405 38.7776 38.609 38.8078 38.6558C38.8389 38.7043 38.8864 38.746 38.9451 38.7594C38.9641 38.7619 38.9831 38.7644 39.0029 38.7678C39.0444 38.7678 39.0824 38.7586 39.1178 38.7394C39.2524 38.685 39.3871 38.6299 39.5218 38.5756C39.7359 38.4887 39.95 38.4018 40.1641 38.315C40.1839 38.3066 40.2038 38.2991 40.2228 38.2907C40.3186 38.3425 40.4144 38.3943 40.5103 38.4453C40.3894 38.4946 40.2685 38.5439 40.1477 38.5923C40.1123 38.6065 40.0769 38.6207 40.0415 38.6358C39.9914 38.6558 39.9483 38.7201 39.9344 38.7686C39.9198 38.8204 39.9258 38.8897 39.956 38.9357C39.9871 38.9841 40.0346 39.0259 40.0933 39.0393C40.1123 39.0418 40.1313 39.0443 40.1511 39.0476C40.1926 39.0476 40.2306 39.0384 40.2659 39.0192L40.5543 38.9023C40.7071 38.8404 40.859 38.7786 41.0118 38.7168H41.0136C41.036 38.7285 41.0593 38.7402 41.0818 38.7527C41.1543 38.792 41.2277 38.8312 41.3002 38.8705C41.1051 38.9515 40.91 39.0334 40.7149 39.1145C40.6613 39.137 40.6078 39.1587 40.5543 39.1813C40.4921 39.2155 40.4429 39.2623 40.4067 39.3225C40.3721 39.381 40.354 39.4436 40.3531 39.5104C40.3531 39.5798 40.3695 39.6441 40.4049 39.7051C40.4403 39.7652 40.4887 39.8129 40.5508 39.848C40.695 39.9106 40.8392 39.9741 40.9842 40.0368C41.1094 40.0911 41.2346 40.1462 41.3597 40.2005L41.2044 40.2857C41.1508 40.315 41.0982 40.3442 41.0446 40.3734C40.9592 40.34 40.8737 40.3058 40.7882 40.2723C40.6354 40.2122 40.4826 40.1512 40.329 40.0911C40.2936 40.0769 40.2582 40.0627 40.2219 40.0493C40.1718 40.0292 40.0941 40.0451 40.0493 40.0702C40.0009 40.0969 39.9552 40.1495 39.9422 40.203C39.9293 40.2581 39.931 40.3208 39.9638 40.3701C39.9759 40.386 39.988 40.4018 40.0009 40.4169C40.0294 40.4444 40.0631 40.4628 40.1011 40.4737C40.1977 40.5121 40.2936 40.5497 40.3903 40.5881C40.4412 40.6082 40.493 40.6282 40.5439 40.6491C40.4628 40.6934 40.3816 40.7385 40.2996 40.7828C40.2841 40.7911 40.2685 40.7995 40.2539 40.8079C40.1252 40.7569 39.9975 40.7068 39.8688 40.6558C39.6539 40.5706 39.4389 40.4862 39.2239 40.401C39.1747 40.3818 39.1264 40.3626 39.0772 40.3434C39.0271 40.3233 38.9494 40.3392 38.9045 40.3642C38.8562 40.391 38.8104 40.4436 38.7975 40.4971C38.7845 40.5522 38.7863 40.6149 38.8191 40.6642C38.8311 40.68 38.8432 40.6959 38.8562 40.7109C38.8847 40.7385 38.9183 40.7569 38.9563 40.7678C39.091 40.8212 39.2265 40.8747 39.3612 40.9282C39.4916 40.98 39.6228 41.0309 39.7531 41.0827C39.6737 41.1261 39.5952 41.1696 39.5157 41.213C39.4294 41.2598 39.3431 41.3074 39.2576 41.3542C39.2386 41.3651 39.2196 41.3751 39.1998 41.386C39.0262 41.3442 38.8519 41.3024 38.6783 41.2598L38.5834 41.2373C38.4668 41.2089 38.3339 41.2723 38.3037 41.391C38.2467 41.6107 38.1906 41.8312 38.1336 42.051L38.1103 42.1429C38.106 42.1587 38.1042 42.1746 38.1034 42.1913C38.1008 42.2331 38.1086 42.2749 38.1319 42.3108C38.1474 42.3375 38.1707 42.3626 38.1992 42.3818L38.2018 42.3835C38.207 42.3876 38.213 42.391 38.2191 42.3943H38.2208C38.2208 42.3943 38.226 42.3977 38.2286 42.3993C38.2424 42.406 38.2562 42.411 38.27 42.4144C38.497 42.4695 38.725 42.5238 38.952 42.5789L39.047 42.6015C39.1635 42.6299 39.2965 42.5664 39.3267 42.4478C39.3837 42.2281 39.4398 42.0075 39.4967 41.7878C39.5028 41.7652 39.508 41.7435 39.514 41.721C39.5649 41.6926 39.6167 41.665 39.6677 41.6366C39.7601 41.5865 39.8524 41.5355 39.9439 41.4854C39.9163 41.7026 39.8887 41.9198 39.8611 42.137C39.855 42.188 39.8481 42.2389 39.8421 42.2891C39.8352 42.3425 39.8714 42.4119 39.9085 42.4478C39.9474 42.4854 40.0113 42.5138 40.0665 42.5121C40.1261 42.5104 40.1891 42.4921 40.2306 42.4478C40.2426 42.4328 40.2547 42.4177 40.2668 42.4027C40.2867 42.3693 40.297 42.3333 40.2979 42.2949C40.316 42.1546 40.3333 42.0142 40.3514 41.8747C40.379 41.655 40.4075 41.4361 40.4352 41.2164L40.7451 41.0468C40.7304 41.1604 40.7157 41.2749 40.7019 41.3885C40.6976 41.4252 40.6924 41.462 40.6881 41.4987C40.6812 41.5522 40.7175 41.6207 40.7546 41.6575C40.7934 41.6951 40.8573 41.7235 40.9126 41.7218C40.9721 41.7201 41.0351 41.7018 41.0766 41.6575C41.0887 41.6424 41.1008 41.6274 41.1128 41.6124C41.1327 41.5789 41.1431 41.543 41.1439 41.5046C41.1569 41.4043 41.169 41.3049 41.1819 41.2047C41.2 41.0627 41.2182 40.9198 41.2363 40.7778C41.2656 40.7619 41.295 40.7452 41.3244 40.7293L41.5764 40.5915C41.5497 40.8129 41.5229 41.0351 41.4961 41.2565L41.4754 41.4244C41.4754 41.4937 41.4918 41.5581 41.5272 41.619C41.5626 41.6792 41.611 41.7268 41.6731 41.7619C41.7336 41.7953 41.7983 41.8129 41.8674 41.8137C41.939 41.8137 42.0064 41.7978 42.0685 41.7636C42.1971 41.6742 42.3258 41.5848 42.4544 41.4954C42.558 41.4236 42.6625 41.3509 42.7661 41.279C42.7661 41.3308 42.7643 41.3826 42.7635 41.4344C42.7626 41.5046 42.7609 41.5748 42.76 41.6449C42.7177 41.6742 42.6763 41.7034 42.634 41.7318C42.4993 41.8246 42.3655 41.9181 42.2308 42.0109C42.1997 42.0326 42.1687 42.0543 42.1376 42.076C42.0866 42.1111 42.0478 42.1487 42.0305 42.2089C42.0159 42.2606 42.0219 42.3292 42.0521 42.3759C42.0832 42.4244 42.1307 42.4662 42.1894 42.4795C42.2446 42.4921 42.3137 42.4921 42.362 42.4586C42.4466 42.4002 42.5312 42.3417 42.6158 42.2824C42.6607 42.2506 42.7065 42.2197 42.7514 42.188C42.7497 42.2715 42.7488 42.3551 42.7471 42.4394C42.7471 42.4712 42.7462 42.5029 42.7453 42.5347C42.6702 42.5865 42.596 42.6383 42.5209 42.6901C42.3318 42.8212 42.1436 42.9515 41.9546 43.0827L41.8259 43.1721C41.775 43.2072 41.7361 43.2448 41.7189 43.3049C41.7042 43.3567 41.7102 43.4261 41.7405 43.472C41.7715 43.5205 41.819 43.5622 41.8777 43.5756C41.933 43.5881 42.002 43.5881 42.0504 43.5547C42.1687 43.4728 42.2878 43.3901 42.4061 43.3083C42.5166 43.2322 42.6262 43.1554 42.7367 43.0794C42.7358 43.1571 42.7341 43.2348 42.7333 43.3124C42.7315 43.4043 42.7307 43.4971 42.7289 43.589C42.5822 43.726 42.4346 43.8622 42.2878 43.9992C42.2645 44.0209 42.2403 44.0426 42.217 44.0652C42.1272 44.1487 42.1324 44.2916 42.217 44.3768C42.3793 44.5405 42.5416 44.7043 42.7039 44.8672C42.722 44.8855 42.741 44.9039 42.7592 44.9231C42.7635 44.9273 42.7678 44.9323 42.7721 44.9357C42.811 44.9749 42.874 44.9992 42.9301 45C42.9862 45 43.0553 44.9766 43.0941 44.9357L43.0933 44.9315ZM42.6746 39.9415C42.6789 39.9089 42.6823 39.8772 42.6866 39.8446C42.6953 39.7744 42.64 39.68 42.5735 39.6516C42.4769 39.6099 42.381 39.5673 42.2843 39.5255C42.3508 39.4979 42.4173 39.4703 42.4838 39.4419C42.5148 39.4294 42.5451 39.416 42.5761 39.4035C42.6417 39.3759 42.6987 39.284 42.6918 39.2147L42.6599 38.9064C42.7186 38.949 42.7773 38.9908 42.836 39.0334C42.8627 39.0526 42.8895 39.0718 42.9163 39.0919C42.9733 39.1328 43.0846 39.1337 43.1425 39.0927C43.2288 39.0326 43.3143 38.9733 43.4006 38.9131C43.392 38.9825 43.3842 39.0518 43.3755 39.1211C43.373 39.1404 43.3712 39.1587 43.3686 39.1779C43.3652 39.1938 43.3635 39.2097 43.3635 39.2256C43.3617 39.2581 43.3747 39.2957 43.3937 39.3283C43.4127 39.3634 43.4412 39.396 43.4774 39.4119L43.4826 39.4135C43.4938 39.4194 43.5059 39.4252 43.5189 39.4294L43.7666 39.538C43.7002 39.5656 43.6337 39.5932 43.5672 39.6216C43.5499 39.6291 43.5327 39.6358 43.5154 39.6433C43.499 39.6483 43.4835 39.6541 43.4696 39.6625C43.4161 39.6876 43.3704 39.7552 43.3609 39.8162V39.8187C43.3609 39.8187 43.3609 39.8229 43.36 39.8246V39.8279C43.36 39.8279 43.36 39.8329 43.36 39.8363V39.8396C43.36 39.8396 43.36 39.8454 43.36 39.8488C43.3704 39.9515 43.3816 40.0543 43.392 40.1571C43.3332 40.1145 43.2745 40.0727 43.2158 40.0301C43.1891 40.0109 43.1623 39.9916 43.1356 39.9716C43.0786 39.9307 42.9672 39.9298 42.9094 39.9708L42.9051 39.9741C42.893 39.9808 42.8817 39.9891 42.8705 39.9975C42.7971 40.0485 42.7238 40.0994 42.6504 40.1504C42.659 40.081 42.6668 40.0117 42.6754 39.9424L42.6746 39.9415Z" fill="#5DBDF1"/>
</svg>
