<svg width="67" height="50" viewBox="0 0 67 50" fill="none" xmlns="http://www.w3.org/2000/svg">
<path d="M24.6665 38.3122C24.6665 36.6258 22.9811 33.0829 22.9811 33.0829C22.9811 33.0829 21.2958 36.6258 21.2958 38.3122C21.2958 39.9986 22.0499 41.3661 22.9811 41.3661C23.9124 41.3661 24.6665 39.9986 24.6665 38.3122Z" fill="#5DBDF1"/>
<path d="M41.5568 39.065C41.5568 37.8113 40.3042 35.1797 40.3042 35.1797C40.3042 35.1797 39.0516 37.8113 39.0516 39.065C39.0516 40.3187 39.6122 41.3343 40.3042 41.3343C40.9962 41.3343 41.5568 40.3187 41.5568 39.065Z" fill="#5DBDF1"/>
<path d="M34.095 47.977C34.095 46.9579 33.0758 44.8164 33.0758 44.8164C33.0758 44.8164 32.0566 46.9579 32.0566 47.977C32.0566 48.9961 32.5129 49.8229 33.0758 49.8229C33.6388 49.8229 34.095 48.9961 34.095 47.977Z" fill="#5DBDF1"/>
<path d="M45.7214 10.2562C45.6181 10.2562 45.5161 10.2586 45.4141 10.2609C44.1298 4.4722 38.9658 0.143555 32.7909 0.143555C26.2664 0.143555 20.8725 4.97532 19.9882 11.2554C15.4212 11.8805 11.9027 15.7963 11.9027 20.5343C11.9027 25.7073 16.0968 29.8999 21.269 29.8999C22.9754 29.8999 24.5752 29.4437 25.9533 28.6462C27.8661 30.0594 30.2306 30.8944 32.7909 30.8944C35.3512 30.8944 37.6241 30.0911 39.5171 28.7272C41.2411 30.0348 43.3909 30.8111 45.7214 30.8111C51.3979 30.8111 56 26.2092 56 20.5331C56 14.857 51.3979 10.2551 45.7214 10.2551V10.2562Z" fill="#E8EBF1"/>
<path d="M34.0354 28.1877L41.7256 18.8432L37.2454 15.563C35.5777 18.1337 27.7795 30.1579 26.2771 32.473L30.226 31.896L34.5092 31.2709C32.248 34.7247 26.7099 43.1814 26.7099 43.1814C27.9531 41.8022 39.2744 29.2397 40.1752 28.2405L37.1352 28.2147L34.0366 28.1877H34.0354Z" fill="#FDCC1D"/>
</svg>
