<svg width="79" height="59" viewBox="0 0 79 59" fill="none" xmlns="http://www.w3.org/2000/svg">
<path d="M61.6718 20.7091C61.5699 20.7091 61.468 20.7105 61.3676 20.7134C60.097 14.9389 54.989 10.6199 48.8793 10.6199C42.4244 10.6199 37.0872 15.4412 36.2128 21.7064C31.6949 22.33 28.2141 26.2367 28.2141 30.9638C28.2141 36.1247 32.3627 40.3082 37.4806 40.3082C39.1686 40.3082 40.7519 39.8531 42.1145 39.0569C44.0063 40.4666 46.3466 41.2999 48.8793 41.2999C51.4121 41.2999 53.6618 40.498 55.5338 39.1382C57.2402 40.4423 59.3668 41.2171 61.6718 41.2171C67.2877 41.2171 71.841 36.6255 71.841 30.9624C71.841 25.2993 67.2877 20.7077 61.6718 20.7077V20.7091Z" fill="#DEE2EB"/>
<path d="M46.7779 22.6495C46.6565 22.6495 46.5364 22.6523 46.4164 22.6551C44.9055 15.7691 38.8301 10.6199 31.5652 10.6199C23.8891 10.6199 17.5432 16.3675 16.5028 23.8381C11.1297 24.5817 6.99023 29.2398 6.99023 34.8759C6.99023 41.0295 11.9246 46.0169 18.0096 46.0169C20.0173 46.0169 21.8994 45.4742 23.5207 44.5255C25.7712 46.2066 28.553 47.1999 31.5652 47.1999C34.5774 47.1999 37.2515 46.2443 39.4786 44.6218C41.5069 46.1773 44.0362 47.1008 46.7779 47.1008C53.4564 47.1008 58.8708 41.6266 58.8708 34.8745C58.8708 28.1224 53.4564 22.6481 46.7779 22.6481V22.6495Z" fill="#E8EBF1"/>
</svg>
