<svg width="161" height="192" viewBox="0 0 161 192" fill="none" xmlns="http://www.w3.org/2000/svg">
<path d="M273.004 5.58646C277.99 7.8251 282.477 10.8448 286.586 14.4336C292.089 19.2387 296.552 24.8947 299.864 31.396C307.004 45.4092 308.365 59.9975 303.917 75.0549C301.222 84.1782 296.444 92.0972 289.808 98.8855C287.77 100.97 285.59 102.907 283.214 104.595C282.529 105.081 282.436 105.426 282.798 106.144C284.72 109.941 286.151 113.925 286.98 118.095C290.666 136.641 286.196 152.969 273.321 166.71C264.64 175.974 253.712 181.147 241.091 182.675C240.364 182.762 240.179 183.002 240.092 183.69C238.52 195.959 233.76 206.819 225.729 216.206C220.947 221.796 215.317 226.36 208.848 229.867C194.21 237.801 178.82 239.493 162.746 235.162C156.205 233.4 150.145 230.53 144.555 226.685C144.069 226.349 143.809 226.274 143.293 226.754C132.687 236.614 120.144 240.879 105.736 239.201C94.789 237.926 85.4514 233.162 77.7604 225.203C75.6813 223.052 73.8148 220.73 72.2524 218.176C71.9229 217.636 71.6885 217.656 71.1977 217.962C62.6697 223.273 53.3566 225.459 43.3449 224.827C43.3192 224.825 43.2958 224.801 43.2703 224.787C43.187 224.774 43.1024 224.763 43.0201 224.753L43.0296 224.755C42.9095 224.523 42.6759 224.492 42.4589 224.414C40.7476 223.808 39.1626 222.975 37.7137 221.865C33.1161 218.344 30.2248 213.589 27.986 208.378C26.2154 204.255 25.0178 199.958 24.3651 195.518C23.9219 192.503 23.6903 189.466 24.1753 186.446C25.0833 180.783 27.5255 175.797 30.9988 171.278C34.8202 166.308 39.6497 162.477 44.7754 158.979C45.8784 158.225 47.0969 157.639 48.2345 156.933C50.1513 155.744 52.1776 154.761 54.2038 153.791C57.051 152.425 60.0193 151.328 62.9277 150.1C64.9894 149.229 65.7831 148.531 65.5564 145.774C65.4269 144.204 65.1321 142.655 65.0327 141.078C64.6586 135.148 65.0704 129.312 66.6443 123.562C68.0083 118.58 70.0606 113.94 72.8718 109.616C76.4084 104.175 80.9123 99.7058 86.3208 96.1717C88.1235 94.9925 90.0556 93.9962 92.0158 93.066C95.4841 91.4193 99.0988 90.1987 102.815 89.2956C108.73 87.8601 114.75 87.2287 120.839 87.3372C124.41 87.4009 125.756 86.3523 126.985 82.9663C127.892 80.468 128.82 77.9831 129.948 75.5723C131.785 71.6495 133.977 67.9372 136.487 64.4198C139.513 60.1795 142.961 56.3029 146.781 52.7675C149.835 49.9396 153.062 47.3141 156.541 45.0299C158.639 43.6532 160.743 42.2813 162.948 41.059C165.668 39.5497 168.445 38.1661 171.338 37.0498C177.069 34.8399 182.999 33.4577 189.152 33.04C193.881 32.7182 198.582 32.9235 203.243 33.73C207.992 34.5511 212.619 35.8458 216.984 37.9669C217.894 38.4096 218.844 38.7133 219.841 38.8689C220.487 38.9707 221.048 38.8607 221.571 38.3809C222.582 37.4526 222.963 36.208 223.23 34.9668C223.866 32.01 225.127 29.356 226.718 26.8185C230.374 20.9877 235.33 16.442 240.874 12.5044C244.205 10.1375 247.82 8.24934 251.652 6.79529C257.895 4.42719 264.26 3.38259 270.882 5.06495C271.203 5.14589 271.54 5.32264 271.872 5.07961L271.865 5.07803C271.961 5.25995 272.092 5.35378 272.299 5.24766C272.422 5.30836 272.545 5.37052 272.669 5.4303C272.743 5.56738 272.86 5.6108 273.008 5.58989L273.004 5.58646Z" fill="#2A97FC"/>
<path d="M271.868 5.07618C271.536 5.31921 271.199 5.14246 270.878 5.06152C264.256 3.37917 257.891 4.42377 251.648 6.79185C247.816 8.24591 244.2 10.134 240.869 12.501C235.326 16.4386 230.371 20.9857 226.714 26.8151C225.123 29.3526 223.862 32.008 223.226 34.9633C222.958 36.2031 222.579 37.4482 221.566 38.3775C221.045 38.8549 220.484 38.9663 219.837 38.8655C218.842 38.7089 217.889 38.4062 216.98 37.9635C212.616 35.8438 207.988 34.5477 203.239 33.7265C198.578 32.92 193.877 32.7148 189.148 33.0365C182.994 33.4551 177.065 34.838 171.334 37.0464C168.44 38.1612 165.666 39.5453 162.944 41.0556C160.739 42.2794 158.637 43.6488 156.537 45.0265C153.056 47.3093 149.831 49.9361 146.777 52.7641C142.956 56.3004 139.51 60.1776 136.483 64.4164C133.971 67.9346 131.781 71.646 129.944 75.5689C128.815 77.9782 127.887 80.4655 126.981 82.9629C125.751 86.3498 124.406 87.3975 120.835 87.3338C114.745 87.2261 108.724 87.8575 102.811 89.2922C99.0946 90.1953 95.4799 91.416 92.0116 93.0626C90.0514 93.9928 88.1202 94.9905 86.3165 96.1683C80.909 99.7038 76.4042 104.171 72.8676 109.612C70.0573 113.938 68.0035 118.579 66.6401 123.559C65.0662 129.308 64.6544 135.144 65.0285 141.074C65.1279 142.652 65.4227 144.2 65.5522 145.771C65.7789 148.527 64.9842 149.224 62.9235 150.096C60.0151 151.325 57.0468 152.422 54.1995 153.788C52.1743 154.759 50.1471 155.741 48.2303 156.93C47.0927 157.636 45.8742 158.222 44.7711 158.976C39.6469 162.473 34.816 166.304 30.9945 171.275C27.5204 175.792 25.0791 180.78 24.1711 186.442C23.6866 189.46 23.9168 192.498 24.3609 195.515C25.0136 199.954 26.2098 204.253 27.9818 208.375C30.2206 213.585 33.1119 218.341 37.7095 221.862C39.1584 222.972 40.7444 223.806 42.4547 224.411C42.6708 224.487 42.9043 224.518 43.0254 224.751C40.1462 224.699 37.3456 224.129 34.5884 223.354C26.5432 221.091 19.5141 217.048 13.6134 211.092C10.1245 207.57 7.22747 203.627 5.00288 199.171C0.996691 191.147 -0.638521 182.692 0.224097 173.798C1.28317 162.876 5.62631 153.444 13.2652 145.567C16.2218 142.517 19.538 139.92 23.2192 137.82C26.9105 135.713 30.8233 134.105 34.9983 133.078C33.9317 129.392 33.1203 125.672 32.7679 121.867C31.1215 104.054 36.0628 88.3514 47.7094 74.8238C52.3316 69.4545 57.8374 65.1337 64.036 61.7545C74.226 56.1992 85.1664 53.7566 96.7832 54.4064C97.4138 54.4425 97.6825 54.2765 97.882 53.6842C101.746 42.1605 107.955 32.1057 116.556 23.5202C121.334 18.7532 126.643 14.6753 132.491 11.3592C146.804 3.24239 162.194 -0.0695072 178.615 1.60551C190.194 2.78739 200.974 6.43057 210.938 12.4875C211.509 12.8341 211.893 12.9664 212.493 12.47C214.075 11.1598 215.72 9.91956 217.478 8.8425C229.94 1.20167 243.398 -1.52124 257.868 0.805877C262.528 1.55599 267.014 2.91183 271.347 4.79166C271.527 4.8688 271.692 4.98001 271.865 5.07565L271.868 5.07618Z" fill="#2A97FC"/>
<path d="M272.295 5.24423C272.087 5.3489 271.957 5.25653 271.86 5.0746C272.042 5.03386 272.171 5.13337 272.295 5.24423Z" fill="#2A97FC"/>
<path d="M273.004 5.58646C272.856 5.60737 272.739 5.56395 272.665 5.42688C272.81 5.41166 272.919 5.47304 273.004 5.58646Z" fill="#2A97FC"/>
<path d="M43.0173 224.748C43.1005 224.76 43.1852 224.772 43.2675 224.782C43.1843 224.77 43.0996 224.759 43.0173 224.748Z" fill="#2A97FC"/>
</svg>
