<svg width="161" height="192" viewBox="0 0 161 192" fill="none" xmlns="http://www.w3.org/2000/svg">
<path d="M273.004 5.58646C277.99 7.8251 282.477 10.8448 286.585 14.4336C292.089 19.2387 296.552 24.8947 299.864 31.396C307.004 45.4092 308.365 59.9975 303.917 75.0549C301.222 84.1782 296.444 92.0972 289.808 98.8855C287.77 100.97 285.59 102.907 283.214 104.595C282.529 105.081 282.436 105.426 282.798 106.144C284.72 109.941 286.151 113.925 286.98 118.095C290.666 136.641 286.196 152.969 273.321 166.71C264.64 175.974 253.712 181.147 241.091 182.675C240.364 182.762 240.179 183.002 240.092 183.69C238.52 195.959 233.76 206.819 225.729 216.206C220.947 221.796 215.317 226.36 208.848 229.867C194.21 237.801 178.82 239.493 162.745 235.162C156.205 233.4 150.145 230.53 144.555 226.685C144.069 226.349 143.809 226.274 143.293 226.754C132.687 236.614 120.144 240.879 105.736 239.201C94.789 237.926 85.4513 233.162 77.7603 225.203C75.6812 223.052 73.8147 220.73 72.2524 218.176C71.9228 217.636 71.6885 217.656 71.1977 217.962C62.6696 223.273 53.3565 225.459 43.3448 224.827C43.3191 224.825 43.2957 224.801 43.2702 224.787C43.187 224.774 43.1023 224.763 43.02 224.753L43.0295 224.755C42.9094 224.523 42.6759 224.492 42.4589 224.414C40.7476 223.808 39.1626 222.975 37.7137 221.865C33.116 218.344 30.2248 213.589 27.9859 208.378C26.2154 204.255 25.0178 199.958 24.365 195.518C23.9218 192.503 23.6902 189.466 24.1752 186.446C25.0833 180.783 27.5255 175.797 30.9987 171.278C34.8202 166.308 39.6496 162.477 44.7753 158.979C45.8784 158.225 47.0969 157.639 48.2344 156.933C50.1512 155.744 52.1775 154.761 54.2037 153.791C57.051 152.425 60.0192 151.328 62.9276 150.1C64.9893 149.229 65.783 148.531 65.5563 145.774C65.4268 144.204 65.132 142.655 65.0327 141.078C64.6586 135.148 65.0704 129.312 66.6443 123.562C68.0082 118.58 70.0606 113.94 72.8718 109.616C76.4084 104.175 80.9122 99.7058 86.3207 96.1717C88.1234 94.9925 90.0556 93.9962 92.0158 93.066C95.484 91.4193 99.0988 90.1987 102.815 89.2956C108.73 87.8601 114.75 87.2287 120.839 87.3372C124.41 87.4009 125.756 86.3523 126.985 82.9663C127.892 80.468 128.82 77.9831 129.948 75.5723C131.785 71.6495 133.977 67.9372 136.487 64.4198C139.513 60.1795 142.961 56.3029 146.781 52.7675C149.835 49.9396 153.061 47.3141 156.541 45.0299C158.639 43.6532 160.743 42.2813 162.948 41.059C165.668 39.5497 168.445 38.1661 171.338 37.0498C177.068 34.8399 182.999 33.4577 189.152 33.04C193.881 32.7182 198.582 32.9235 203.243 33.73C207.992 34.5511 212.619 35.8458 216.984 37.9669C217.894 38.4096 218.844 38.7133 219.841 38.8689C220.487 38.9707 221.048 38.8607 221.571 38.3809C222.582 37.4526 222.963 36.208 223.23 34.9668C223.866 32.01 225.127 29.356 226.718 26.8185C230.374 20.9877 235.33 16.442 240.874 12.5044C244.205 10.1375 247.82 8.24934 251.652 6.79529C257.895 4.42719 264.26 3.38259 270.882 5.06495C271.203 5.14589 271.54 5.32264 271.872 5.07961L271.865 5.07803C271.961 5.25995 272.092 5.35378 272.299 5.24766C272.422 5.30836 272.545 5.37052 272.669 5.4303C272.743 5.56738 272.86 5.6108 273.008 5.58989L273.004 5.58646Z" fill="#FF8150"/>
<path d="M271.868 5.07618C271.536 5.31921 271.199 5.14246 270.878 5.06152C264.256 3.37917 257.891 4.42377 251.648 6.79185C247.816 8.24591 244.2 10.134 240.869 12.501C235.326 16.4386 230.371 20.9857 226.714 26.8151C225.123 29.3526 223.862 32.008 223.226 34.9633C222.958 36.2031 222.579 37.4482 221.566 38.3775C221.045 38.8549 220.484 38.9663 219.837 38.8655C218.842 38.7089 217.889 38.4062 216.98 37.9635C212.616 35.8438 207.988 34.5477 203.239 33.7265C198.578 32.92 193.877 32.7148 189.148 33.0365C182.994 33.4551 177.065 34.838 171.333 37.0464C168.44 38.1612 165.666 39.5453 162.944 41.0556C160.739 42.2794 158.637 43.6488 156.537 45.0265C153.056 47.3093 149.831 49.9361 146.777 52.7641C142.956 56.3004 139.51 60.1776 136.483 64.4164C133.971 67.9346 131.78 71.646 129.944 75.5689C128.815 77.9782 127.886 80.4655 126.981 82.9629C125.751 86.3498 124.406 87.3975 120.835 87.3338C114.745 87.2261 108.724 87.8575 102.811 89.2922C99.0945 90.1953 95.4798 91.416 92.0116 93.0626C90.0514 93.9928 88.1201 94.9905 86.3165 96.1683C80.9089 99.7038 76.4041 104.171 72.8676 109.612C70.0573 113.938 68.0035 118.579 66.64 123.559C65.0661 129.308 64.6544 135.144 65.0285 141.074C65.1278 142.652 65.4226 144.2 65.5521 145.771C65.7788 148.527 64.9842 149.224 62.9234 150.096C60.015 151.325 57.0467 152.422 54.1995 153.788C52.1743 154.759 50.147 155.741 48.2302 156.93C47.0927 157.636 45.8741 158.222 44.7711 158.976C39.6468 162.473 34.816 166.304 30.9945 171.275C27.5203 175.792 25.079 180.78 24.171 186.442C23.6866 189.46 23.9167 192.498 24.3608 195.515C25.0136 199.954 26.2097 204.253 27.9817 208.375C30.2205 213.585 33.1118 218.341 37.7094 221.862C39.1583 222.972 40.7443 223.806 42.4546 224.411C42.6707 224.487 42.9043 224.518 43.0253 224.751C40.1461 224.699 37.3455 224.129 34.5883 223.354C26.5431 221.091 19.514 217.048 13.6133 211.092C10.1244 207.57 7.2274 203.627 5.00282 199.171C0.99663 191.147 -0.638582 182.692 0.224036 173.798C1.28311 162.876 5.62625 153.444 13.2652 145.567C16.2218 142.517 19.5379 139.92 23.2191 137.82C26.9104 135.713 30.8233 134.105 34.9982 133.078C33.9317 129.392 33.1202 125.672 32.7678 121.867C31.1214 104.054 36.0628 88.3514 47.7094 74.8238C52.3315 69.4545 57.8374 65.1337 64.036 61.7545C74.226 56.1992 85.1664 53.7566 96.7832 54.4064C97.4137 54.4425 97.6824 54.2765 97.8819 53.6842C101.746 42.1605 107.955 32.1057 116.556 23.5202C121.334 18.7532 126.643 14.6753 132.49 11.3592C146.804 3.24239 162.194 -0.0695072 178.615 1.60551C190.194 2.78739 200.974 6.43057 210.938 12.4875C211.509 12.8341 211.893 12.9664 212.493 12.47C214.075 11.1598 215.72 9.91956 217.478 8.8425C229.94 1.20167 243.398 -1.52124 257.868 0.805877C262.527 1.55599 267.014 2.91183 271.347 4.79166C271.527 4.8688 271.692 4.98001 271.865 5.07565L271.868 5.07618Z" fill="#FF8150"/>
<path d="M272.295 5.24423C272.087 5.3489 271.957 5.25653 271.86 5.0746C272.042 5.03386 272.171 5.13337 272.295 5.24423Z" fill="#FF8150"/>
<path d="M273.004 5.58646C272.856 5.60737 272.738 5.56395 272.665 5.42688C272.81 5.41166 272.919 5.47304 273.004 5.58646Z" fill="#FF8150"/>
<path d="M43.0173 224.748C43.1005 224.76 43.1851 224.772 43.2674 224.782C43.1842 224.77 43.0996 224.759 43.0173 224.748Z" fill="#FF8150"/>
</svg>
