<svg width="20" height="20" viewBox="0 0 20 20" fill="none" xmlns="http://www.w3.org/2000/svg">
<path fill-rule="evenodd" clip-rule="evenodd" d="M17.2915 10C17.2915 9.65482 17.0117 9.375 16.6665 9.375H3.33317C2.98799 9.375 2.70817 9.65482 2.70817 10C2.70817 10.3452 2.98799 10.625 3.33317 10.625H16.6665C17.0117 10.625 17.2915 10.3452 17.2915 10Z" fill="#08151A"/>
<path fill-rule="evenodd" clip-rule="evenodd" d="M8.77544 4.55806C8.53136 4.31398 8.13563 4.31398 7.89155 4.55806L2.89156 9.55806C2.64748 9.80214 2.64748 10.1979 2.89156 10.4419L7.89155 15.4419C8.13563 15.686 8.53136 15.686 8.77544 15.4419C9.01952 15.1979 9.01952 14.8021 8.77544 14.5581L4.21738 10L8.77544 5.44194C9.01952 5.19786 9.01952 4.80214 8.77544 4.55806Z" fill="#08151A"/>
</svg>
