<svg width="20" height="20" viewBox="0 0 20 20" fill="none" xmlns="http://www.w3.org/2000/svg">
<path d="M5.64635 15.2279C5.21725 15.2279 4.81629 15.0802 4.52788 14.8058C4.16209 14.4611 3.98623 13.9406 4.04954 13.3778L4.30981 11.0987C4.35905 10.6696 4.61933 10.0998 4.92181 9.7903L10.697 3.6774C12.1391 2.15094 13.6445 2.10873 15.1709 3.55078C16.6974 4.99284 16.7396 6.4982 15.2975 8.02466L9.5223 14.1376C9.22686 14.4541 8.67818 14.7495 8.24908 14.8199L5.984 15.2068C5.86442 15.2138 5.7589 15.2279 5.64635 15.2279ZM12.9551 3.54375C12.4134 3.54375 11.9421 3.8814 11.4638 4.38788L5.68856 10.5078C5.54787 10.6555 5.38608 11.0072 5.35794 11.2112L5.09767 13.4904C5.06953 13.7225 5.1258 13.9125 5.25242 14.032C5.37904 14.1516 5.56897 14.1938 5.80111 14.1587L8.06618 13.7718C8.27018 13.7366 8.60783 13.5537 8.74852 13.406L14.5238 7.29309C15.396 6.36454 15.7126 5.50635 14.4394 4.3105C13.8766 3.76885 13.3912 3.54375 12.9551 3.54375Z" fill="#292D32"/>
<path d="M13.9469 9.19941C13.9329 9.19941 13.9118 9.19941 13.8977 9.19941C11.703 8.98134 9.93733 7.31419 9.59968 5.13352C9.55748 4.84511 9.75444 4.57781 10.0429 4.52857C10.3313 4.48636 10.5986 4.68332 10.6478 4.97173C10.9151 6.67406 12.2939 7.98246 14.0103 8.15128C14.2987 8.17942 14.5097 8.43969 14.4816 8.7281C14.4464 8.99541 14.2143 9.19941 13.9469 9.19941Z" fill="#292D32"/>
<path d="M16.5215 17.5H3.85961C3.5712 17.5 3.33203 17.2608 3.33203 16.9724C3.33203 16.684 3.5712 16.4448 3.85961 16.4448H16.5215C16.8099 16.4448 17.0491 16.684 17.0491 16.9724C17.0491 17.2608 16.8099 17.5 16.5215 17.5Z" fill="#292D32"/>
</svg>
