<svg width="18" height="18" viewBox="0 0 18 18" fill="none" xmlns="http://www.w3.org/2000/svg">
<path fill-rule="evenodd" clip-rule="evenodd" d="M2.28125 3.00003C2.28125 2.60238 2.6036 2.28003 3.00125 2.28003H6.00125C6.3989 2.28003 6.72125 2.60238 6.72125 3.00003C6.72125 3.39767 6.3989 3.72003 6.00125 3.72003H4.73948L7.26037 6.24091C7.54154 6.52209 7.54154 6.97797 7.26037 7.25915C6.97919 7.54032 6.52331 7.54032 6.24213 7.25915L3.72125 4.73826V6.00003C3.72125 6.39767 3.3989 6.72003 3.00125 6.72003C2.6036 6.72003 2.28125 6.39767 2.28125 6.00003V3.00003ZM12.0013 2.28003H15.0013C15.3989 2.28003 15.7213 2.60238 15.7213 3.00003V6.00003C15.7213 6.39767 15.3989 6.72003 15.0013 6.72003C14.6036 6.72003 14.2813 6.39767 14.2813 6.00003V4.73826L11.7604 7.25915C11.4792 7.54032 11.0233 7.54032 10.7421 7.25915C10.461 6.97797 10.461 6.52209 10.7421 6.24091L13.263 3.72003H12.0013C11.6036 3.72003 11.2813 3.39767 11.2813 3.00003C11.2813 2.60238 11.6036 2.28003 12.0013 2.28003ZM7.26037 10.7409C7.54154 11.0221 7.54154 11.478 7.26037 11.7591L4.73948 14.28H6.00125C6.3989 14.28 6.72125 14.6024 6.72125 15C6.72125 15.3977 6.3989 15.72 6.00125 15.72H3.00125C2.6036 15.72 2.28125 15.3977 2.28125 15V12C2.28125 11.6024 2.6036 11.28 3.00125 11.28C3.3989 11.28 3.72125 11.6024 3.72125 12V13.2618L6.24213 10.7409C6.52331 10.4597 6.97919 10.4597 7.26037 10.7409ZM10.7421 10.7409C11.0233 10.4597 11.4792 10.4597 11.7604 10.7409L14.2813 13.2618V12C14.2813 11.6024 14.6036 11.28 15.0013 11.28C15.3989 11.28 15.7213 11.6024 15.7213 12V15C15.7213 15.3977 15.3989 15.72 15.0013 15.72H12.0013C11.6036 15.72 11.2813 15.3977 11.2813 15C11.2813 14.6024 11.6036 14.28 12.0013 14.28H13.263L10.7421 11.7591C10.461 11.478 10.461 11.0221 10.7421 10.7409Z" fill="white"/>
</svg>
