<svg width="18" height="18" viewBox="0 0 18 18" fill="none" xmlns="http://www.w3.org/2000/svg">
<path d="M9 17.0625C4.5525 17.0625 0.9375 13.4475 0.9375 9C0.9375 4.5525 4.5525 0.9375 9 0.9375C13.4475 0.9375 17.0625 4.5525 17.0625 9C17.0625 9.3075 16.8075 9.5625 16.5 9.5625C16.1925 9.5625 15.9375 9.3075 15.9375 9C15.9375 5.175 12.825 2.0625 9 2.0625C5.175 2.0625 2.0625 5.175 2.0625 9C2.0625 12.825 5.175 15.9375 9 15.9375C9.3075 15.9375 9.5625 16.1925 9.5625 16.5C9.5625 16.8075 9.3075 17.0625 9 17.0625Z" fill="#08151A"/>
<path d="M6.74969 16.3125H5.99969C5.69219 16.3125 5.43719 16.0575 5.43719 15.75C5.43719 15.4425 5.67719 15.195 5.98469 15.1875C4.80719 11.1675 4.80719 6.8325 5.98469 2.8125C5.68469 2.805 5.43719 2.5575 5.43719 2.25C5.43719 1.9425 5.69219 1.6875 5.99969 1.6875H6.74969C6.92969 1.6875 7.10219 1.7775 7.20719 1.92C7.31219 2.07 7.3422 2.25749 7.2822 2.42999C5.8722 6.66749 5.8722 11.34 7.2822 15.5775C7.3422 15.75 7.31219 15.9375 7.20719 16.0875C7.10219 16.2375 6.92969 16.3125 6.74969 16.3125Z" fill="#08151A"/>
<path d="M12.3439 9.56235C12.0364 9.56235 11.7814 9.30735 11.7814 8.99985C11.7814 6.76485 11.4214 4.55234 10.7164 2.42984C10.6189 2.13734 10.7764 1.81483 11.0689 1.71733C11.3614 1.61983 11.6839 1.77736 11.7814 2.06986C12.5239 4.30486 12.9064 6.63735 12.9064 8.99985C12.9064 9.30735 12.6514 9.56235 12.3439 9.56235Z" fill="#08151A"/>
<path d="M9 12.9076C6.9 12.9076 4.8225 12.6076 2.8125 12.0151C2.805 12.3151 2.5575 12.5626 2.25 12.5626C1.9425 12.5626 1.6875 12.3076 1.6875 12.0001V11.2501C1.6875 11.0701 1.7775 10.8976 1.92 10.7926C2.0625 10.6876 2.2575 10.6576 2.43 10.7176C4.5525 11.4226 6.765 11.7826 9 11.7826C9.3075 11.7826 9.5625 12.0376 9.5625 12.3451C9.5625 12.6526 9.3075 12.9076 9 12.9076Z" fill="#08151A"/>
<path d="M15.7485 7.31254C15.6885 7.31254 15.6285 7.30505 15.5685 7.28255C11.331 5.87255 6.65855 5.87255 2.42105 7.28255C2.12855 7.38005 1.80605 7.22253 1.70855 6.93003C1.61105 6.63753 1.76855 6.31502 2.06105 6.21752C6.53105 4.72502 11.451 4.72502 15.9135 6.21752C16.206 6.31502 16.3636 6.63753 16.2661 6.93003C16.2061 7.16253 15.981 7.31254 15.7485 7.31254Z" fill="#08151A"/>
<path d="M11.8647 17.0627C11.5797 17.0627 11.3097 16.9577 11.1147 16.7627C10.8822 16.5302 10.7772 16.1927 10.8297 15.8402L10.9722 14.8278C11.0097 14.5653 11.1672 14.2502 11.3547 14.0627L14.0097 11.4078C14.3697 11.0478 14.7222 10.8602 15.1047 10.8227C15.5772 10.7777 16.0347 10.9728 16.4697 11.4078C16.9047 11.8428 17.0997 12.3003 17.0547 12.7728C17.0172 13.1478 16.8222 13.5077 16.4697 13.8677L13.8147 16.5228C13.6272 16.7103 13.3197 16.8677 13.0572 16.9052L12.0447 17.0477C11.9772 17.0552 11.9247 17.0627 11.8647 17.0627ZM15.2322 11.9402C15.2247 11.9402 15.2172 11.9402 15.2097 11.9402C15.1047 11.9477 14.9622 12.0378 14.8047 12.2028L12.1497 14.8577C12.1272 14.8802 12.0897 14.9552 12.0897 14.9852L11.9547 15.9227L12.8922 15.7877C12.9222 15.7802 12.9972 15.7428 13.0197 15.7203L15.6747 13.0652C15.8322 12.9077 15.9297 12.7652 15.9372 12.6602C15.9522 12.5102 15.8022 12.3303 15.6747 12.2028C15.5547 12.0828 15.3822 11.9402 15.2322 11.9402Z" fill="#08151A"/>
<path d="M15.6904 14.415C15.6379 14.415 15.5854 14.4075 15.5404 14.3925C14.5504 14.115 13.7629 13.3275 13.4854 12.3375C13.4029 12.0375 13.5754 11.73 13.8754 11.6475C14.1754 11.565 14.4829 11.7375 14.5729 12.0375C14.7454 12.6525 15.2329 13.14 15.8479 13.3125C16.1479 13.395 16.3204 13.71 16.2379 14.0025C16.1629 14.25 15.9379 14.415 15.6904 14.415Z" fill="#08151A"/>
</svg>
