<svg width="18" height="18" viewBox="0 0 18 18" fill="none" xmlns="http://www.w3.org/2000/svg">
<path d="M12.75 15.9375H5.25C2.5125 15.9375 0.9375 14.3625 0.9375 11.625V6.375C0.9375 3.6375 2.5125 2.0625 5.25 2.0625H10.5C10.8075 2.0625 11.0625 2.3175 11.0625 2.625C11.0625 2.9325 10.8075 3.1875 10.5 3.1875H5.25C3.105 3.1875 2.0625 4.23 2.0625 6.375V11.625C2.0625 13.77 3.105 14.8125 5.25 14.8125H12.75C14.895 14.8125 15.9375 13.77 15.9375 11.625V7.875C15.9375 7.5675 16.1925 7.3125 16.5 7.3125C16.8075 7.3125 17.0625 7.5675 17.0625 7.875V11.625C17.0625 14.3625 15.4875 15.9375 12.75 15.9375Z" fill="#08151A"/>
<path d="M8.99812 9.65257C8.36812 9.65257 7.73063 9.45758 7.24313 9.06008L4.89562 7.18508C4.65562 6.99008 4.61063 6.63758 4.80563 6.39758C5.00063 6.15758 5.35312 6.11258 5.59312 6.30758L7.94062 8.18258C8.51062 8.64008 9.47812 8.64008 10.0481 8.18258L10.9331 7.47758C11.1731 7.28258 11.5331 7.32007 11.7206 7.56757C11.9156 7.80757 11.8781 8.16758 11.6306 8.35508L10.7456 9.06008C10.2656 9.45758 9.62812 9.65257 8.99812 9.65257Z" fill="#08151A"/>
<path d="M14.625 6.5625C13.2825 6.5625 12.1875 5.4675 12.1875 4.125C12.1875 2.7825 13.2825 1.6875 14.625 1.6875C15.9675 1.6875 17.0625 2.7825 17.0625 4.125C17.0625 5.4675 15.9675 6.5625 14.625 6.5625ZM14.625 2.8125C13.905 2.8125 13.3125 3.405 13.3125 4.125C13.3125 4.845 13.905 5.4375 14.625 5.4375C15.345 5.4375 15.9375 4.845 15.9375 4.125C15.9375 3.405 15.345 2.8125 14.625 2.8125Z" fill="#08151A"/>
</svg>
