<svg width="271" height="150" viewBox="0 0 271 150" fill="none" xmlns="http://www.w3.org/2000/svg">
<g clip-path="url(#clip0_76_1872)">
<path d="M295 -2H-25V151.796H295V-2Z" fill="#E1E3EB"/>
<path d="M114.318 51.958L114.253 51.9845L114.226 51.9952C109.608 53.8938 105.769 55.686 103.043 57.1629C102.78 57.3024 102.538 57.441 102.296 57.5697L102.291 57.5747C100.92 58.3453 99.8879 59.0079 99.2427 59.5376C97.366 61.0839 94.6301 64.721 91.764 68.9894L91.7591 68.9844C90.9256 68.6693 90.1834 68.3425 89.5175 68.0059C84.6519 65.5453 83.9097 62.5336 82.2221 58.9279C80.2973 54.8303 74.1256 47.1806 68.4963 44.2869C62.867 41.3981 48.4529 30.1063 35.4155 19.4557C26.683 12.32 21.2096 3.22632 18.5483 -2H62.6556L76.7305 19.5893L102.547 20.3913L103.219 20.4128L103.483 21.167L113.515 49.6782L114.316 51.9572L114.318 51.958Z" fill="#E1E3EB"/>
<path d="M117.543 151.796H114.386C114.381 151.865 114.381 151.93 114.376 151.999C114.311 151.935 114.246 151.865 114.182 151.796H-24.9842V137.829L-24.9892 104.214V101.931L-25 49.9033V48.154L-10.9193 35.4439L-9.72593 34.3629L13.1885 13.673L14.9732 12.0632L15.3065 11.7637L31.57 29.4427C30.9413 30.2291 30.3658 31.0204 29.8492 31.8067C21.4085 44.6019 27.0859 57.1619 29.7148 61.6984C30.3758 62.8429 30.8435 63.4741 30.8435 63.4741L29.048 68.2293L23.0049 84.2234V84.2284L15.387 104.4L15.6125 104.224C16.2735 104.796 16.9403 105.352 17.602 105.887C37.4033 121.87 56.6024 120.448 66.7257 117.966C68.1239 117.624 69.3496 117.26 70.3813 116.923C75.5213 119.186 80.4838 121.593 84.4139 123.936C95.2362 130.376 106.398 140.615 113.634 147.82C113.866 148.05 114.097 148.28 114.323 148.505C114.398 148.585 114.479 148.66 114.554 148.735C115.661 149.853 116.667 150.88 117.543 151.794V151.796Z" fill="#89DEBF"/>
<path d="M190.403 151.796H114.387C114.42 150.866 114.473 149.833 114.554 148.737C114.554 148.678 114.559 148.614 114.565 148.555C114.634 147.609 114.721 146.619 114.833 145.608C115.366 140.735 116.441 135.455 118.597 132.813C120.333 130.684 123.097 127.694 125.871 124.784C126.059 124.586 126.252 124.387 126.44 124.189L126.462 124.2L143.989 135.134L155.892 131.989L157.231 131.635L170.467 128.143H170.472C170.509 128.164 170.849 128.362 171.413 128.726C174.913 130.973 187.118 139.537 190.403 151.797L190.403 151.796Z" fill="#E1E3EB"/>
<path d="M82.7528 78.6936C81.9948 67.5882 75.1025 58.1307 65.4303 53.6536C61.8229 51.9794 57.8232 51.0008 53.6078 50.8935C53.3441 50.8886 53.0754 50.8828 52.8125 50.8828C43.5326 50.8828 35.2264 55.0926 29.7156 61.6993C28.3125 63.3842 27.1025 65.2243 26.0924 67.1872C26.0924 67.1922 26.0866 67.2087 26.0758 67.2301C24.8717 69.5735 23.9578 72.0876 23.4146 74.7297V74.7404C23.0116 76.6819 22.8018 78.6878 22.8018 80.7423C22.8018 81.919 22.8714 83.0799 23.0058 84.2244V84.2293C23.1667 85.604 23.4196 86.9522 23.7696 88.2575V88.2625C26.1082 97.2011 32.517 104.524 40.8988 108.141C40.9037 108.141 40.9203 108.151 40.9577 108.162C40.9792 108.167 41.0008 108.178 41.0273 108.188C42.35 108.766 43.7151 109.231 45.1191 109.606C47.5763 110.253 50.1571 110.601 52.8125 110.601C55.1296 110.601 57.3878 110.339 59.5547 109.841C69.2211 107.626 77.1135 100.752 80.716 91.7338C80.716 91.7288 80.721 91.7288 80.721 91.7231C82.0761 88.3211 82.8233 84.6138 82.8233 80.7407C82.8233 80.0509 82.8017 79.371 82.7536 78.6919L82.7528 78.6936ZM52.8117 105.787C50.6447 105.787 48.5433 105.514 46.5322 104.996H46.5272C45.1672 104.649 43.8552 104.188 42.5914 103.632C42.5806 103.627 42.5698 103.627 42.5648 103.621C33.7742 99.7053 27.6399 90.9276 27.6399 80.7423C27.6399 79.1325 27.7958 77.5648 28.0861 76.04V76.035C28.5646 73.5423 29.4196 71.1775 30.5864 69.0008C34.8175 61.0945 43.1943 55.6974 52.8125 55.6974C66.6892 55.6974 77.9843 66.9364 77.9843 80.7423C77.9843 94.5483 66.6884 105.787 52.8125 105.787H52.8117Z" fill="white"/>
<path d="M295 138.428V140.05L288.904 139.108L287.313 138.857H287.307L265.565 135.481L263.974 135.235L242.463 131.897L241.801 131.795L240.989 131.137L207.291 103.867L206.033 102.851L191.108 90.7725L189.856 89.7609L174.28 77.158L150.312 84.1336L148.764 84.5833L125.866 91.2478L119.511 118.92L144.124 134.267L155.436 131.282H155.441L158.113 130.576L192.645 121.46H192.651L193.237 121.305L194.323 121.889L231.656 142.045L232.452 142.473L232.807 143.174L237.194 151.796H235.383L231.237 143.639L193.033 123.017L171.414 128.725L143.855 136L126.533 125.194L125.872 124.782L125.103 124.301L117.683 119.674L124.318 90.7725L124.501 89.9754L125.517 89.6809H125.522L139.446 85.6262L140.995 85.1716L156.237 80.7365L157.786 80.2877L173.522 75.7082L174.64 75.3823L175.194 75.8312L184.167 83.0906L185.42 84.1072L198.893 95.0087L200.145 96.0195L213.49 106.819L214.742 107.831L229.183 119.519L230.442 120.535L242.479 130.276L253.183 131.94L254.775 132.186L274.178 135.198L275.774 135.444L295 138.428Z" fill="white"/>
<path d="M295 66.4488V68.0595L290.296 68.5034L289.468 68.5834L288.715 68.1874L275.785 61.4049L271.506 59.1581L260.457 53.3649L259.753 52.9961L259.097 52.4713L245.484 41.6283L244.226 40.6225L227.887 27.6079L226.629 26.6078L212.753 15.5512L211.489 14.5454L190.726 -2H193.307L260.699 51.6957L272.226 57.7356L276.506 59.9766H276.511L289.796 66.9414L295 66.4488Z" fill="white"/>
<path d="M185.521 -1.22439L168.667 3.37567L167.097 3.80391L147.951 9.03023L146.392 9.45847L127.634 14.5775L126.075 15.0049L104.43 20.9112L103.484 21.1678L103.317 21.2156L102.828 21.2L76.2849 20.3814L61.6934 -2H63.6182L77.1772 18.803L102.264 19.5786L103.124 19.6058L103.903 19.3913L125.629 13.4595L127.188 13.037L146.037 7.89074L147.597 7.4625L182.258 -2H185.312L185.521 -1.22439Z" fill="white"/>
<path d="M15.8497 13.0204L14.0319 14.6632L-25 49.9033V47.7374L-11.1291 35.2145L-9.93574 34.1344L12.9895 13.4379L14.7633 11.833L14.9732 12.0632L15.8497 13.0204Z" fill="white"/>
<path d="M6.59141 -1.83415L3.01628 1.39703L-20.4836 22.6117L-21.6778 23.6927L-25 26.6879V24.5219L-22.7634 22.5053L-21.57 21.4244L2.00537 0.139542L4.37634 -2H6.4413L6.59141 -1.83415Z" fill="white"/>
<path d="M115.081 51.7014L114.318 51.958L114.253 51.9845L113.554 52.2204L112.78 49.9844L102.828 21.2L102.548 20.3922L102.264 19.5786L94.8008 -2H96.5058L103.903 19.3913L104.43 20.9112L114.274 49.3746L115.081 51.7014Z" fill="white"/>
<path d="M136.209 44.0624L134.656 44.5121L134.065 42.4741L126.075 15.0049L125.629 13.4595L121.134 -2H122.817L127.188 13.037L127.634 14.5775L135.613 42.0137L136.209 44.0624Z" fill="white"/>
<path d="M154.565 40.4468L154.043 40.7941L153.887 40.0078L153.086 40.04C153.064 39.8527 152.908 39.0614 152.645 37.7932C151.596 32.8292 148.886 20.6273 146.392 9.45847C146.273 8.93452 146.155 8.40974 146.037 7.89074C145.251 4.36004 144.489 0.973741 143.822 -2H145.478C146.069 0.626364 146.801 3.90045 147.596 7.4625C147.715 7.97573 147.832 8.50051 147.951 9.03023C148.434 11.2077 148.94 13.4752 149.445 15.7385C152.284 28.48 153.622 34.5414 154.22 37.4829C154.757 40.1472 154.687 40.2537 154.564 40.4468H154.565Z" fill="white"/>
<path d="M168.574 2.67844L166.975 2.89014L171.606 37.5173L173.205 37.3056L168.574 2.67844Z" fill="white"/>
<path d="M227.113 26.0014L183.676 83.7725L184.967 84.7338L228.405 26.9628L227.113 26.0014Z" fill="white"/>
<path d="M199.252 97.1451L197.987 96.15L218.447 70.4128L244.77 39.9946L245.993 41.0417L219.69 71.4343L199.252 97.1451Z" fill="white"/>
<path d="M214.252 108.453L212.983 107.462L233.256 81.8003L259.651 51.8418L260.863 52.8996L234.497 82.8251L214.252 108.453Z" fill="white"/>
<path d="M248.882 92.8711L228.679 120.195L229.978 121.145L250.18 93.8217L248.882 92.8711Z" fill="white"/>
<path d="M261.119 96.8572L253.003 132.66L254.576 133.013L262.692 97.2101L261.119 96.8572Z" fill="white"/>
<path d="M211.94 13.9176L188.623 45.6738L189.925 46.6205L213.242 14.8643L211.94 13.9176Z" fill="white"/>
<path d="M295 0.208984V2.57874L272.85 26.5065L271.205 28.2821L270.017 27.1963L271.651 25.4313L295 0.208984Z" fill="white"/>
<path d="M267.839 -2L256.269 11.5708L254.721 13.3902L253.489 12.3522L255.076 10.4957L265.721 -2H267.839Z" fill="white"/>
<path d="M167.267 37.9056L165.688 38.2324L173.675 76.4388L175.254 76.112L167.267 37.9056Z" fill="white"/>
<path d="M206.465 102.222L192.471 121.677L193.782 122.611L207.776 103.156L206.465 102.222Z" fill="white"/>
<path d="M190.378 89.1545L155.282 131.5L156.526 132.521L191.622 90.1755L190.378 89.1545Z" fill="white"/>
<path d="M166.397 119.222L155.175 108.379L148.548 83.7938L150.106 83.3779L156.618 107.536L167.521 118.071L166.397 119.222Z" fill="white"/>
<path d="M102.995 57.0925L101.667 58.002L124.521 91.0633L125.85 90.1539L102.995 57.0925Z" fill="white"/>
<path d="M127.216 47.145L125.698 47.6895L139.737 86.4224L141.254 85.8779L127.216 47.145Z" fill="white"/>
<path d="M147.479 41.3452L145.92 41.7539L156.439 81.4795L157.998 81.0708L147.479 41.3452Z" fill="white"/>
<path d="M241.522 130.512L231.229 142.533L232.456 143.574L242.75 131.553L241.522 130.512Z" fill="white"/>
<path d="M265.699 134.711L265.565 135.481L262.683 151.796H261.043L263.973 135.235L264.114 134.433L265.699 134.711Z" fill="white"/>
<path d="M115.109 148.662L113.526 148.353C113.624 147.858 115.928 136.191 117.881 132.444C119.854 128.657 125.694 123.786 125.941 123.58L126.975 124.812C126.917 124.86 121.137 129.681 119.313 133.182C117.466 136.725 115.132 148.541 115.109 148.66V148.662Z" fill="white"/>
<path d="M19.8171 151.796H18.1991L17.6236 146.977L2.63978 131.94L-0.768644 128.522L-24.9892 104.215L-25 104.21V101.92L-24.9892 101.931L0.494383 127.511L3.89286 130.918L19.1562 146.239L19.8171 151.796Z" fill="white"/>
<path d="M84.005 110.347C82.8722 105.635 87.5055 108.196 89.4618 101.743C91.4182 95.2893 93.9915 85.8655 94.6093 79.3099C95.2271 72.7543 99.8596 69.3738 103.257 71.6272C106.655 73.8806 118.803 91.931 118.597 94.7876C118.391 97.645 114.17 108.195 111.596 113.112C109.022 118.029 106.243 126.018 100.168 124.687C94.0943 123.355 85.137 115.058 84.005 110.346V110.347Z" fill="#9CCDFD"/>
<path d="M295 100.738V105.627C291.549 105.023 287.259 104.264 282.715 103.445C282.188 103.349 281.661 103.253 281.128 103.156C274.645 101.974 267.79 100.69 262.188 99.5505C261.651 99.4432 261.123 99.331 260.607 99.2295C255.5 98.17 251.682 97.2715 250.569 96.7475C250.177 96.5602 249.569 96.2128 248.779 95.7202C248.376 95.4686 247.924 95.1798 247.424 94.8539C244.123 92.6929 238.891 89.007 233.031 84.6743C232.601 84.3591 232.171 84.0382 231.741 83.7172C227.343 80.4431 222.655 76.8538 218.198 73.3074C217.778 72.9708 217.359 72.6391 216.945 72.3016C211.859 68.2197 207.149 64.2295 203.611 60.8753C203.466 60.7417 203.326 60.6022 203.181 60.4743C202.788 60.0997 202.39 59.7358 201.992 59.3777C191.046 49.4177 178.079 41.5378 175.213 39.8421C172.745 39.9222 170.261 40.0988 167.777 40.3446C167.24 40.3983 166.701 40.4569 166.164 40.5212C159.997 41.211 153.874 42.3563 148.094 43.6988C147.568 43.8217 147.046 43.9446 146.53 44.0734C139.654 45.7319 133.315 47.6627 128.041 49.4334C127.519 49.6099 127.014 49.7865 126.514 49.9573C121.444 51.7008 117.509 53.2528 115.235 54.1836L114.794 54.3651C110.214 56.2588 106.789 57.8851 104.418 59.1525C103.891 59.4305 103.423 59.6929 103.004 59.9388C101.95 60.5436 101.219 61.0354 100.784 61.3935C99.7511 62.2442 97.6978 64.4803 93.7727 70.3271C87.907 79.0412 81.3804 90.5583 80.7187 91.7242C80.7187 91.7291 80.7137 91.7291 80.7137 91.7349C80.6871 91.7885 80.6706 91.8149 80.6656 91.8207L76.4395 89.4666C76.4826 89.3916 79.2027 84.5671 82.7513 78.693C84.8428 75.2432 87.2187 71.4286 89.515 68.0052C89.5905 67.8872 89.671 67.7643 89.7514 67.6471C93.2088 62.5008 95.8103 59.2383 97.6978 57.6813C99.9236 55.852 105.536 52.9896 112.779 49.9837C112.978 49.8979 113.182 49.8179 113.386 49.7321L113.516 49.6784L113.838 49.5497C113.979 49.4911 114.124 49.4317 114.274 49.3731C118.107 47.8268 125.22 45.1262 134.064 42.4726C134.575 42.3175 135.091 42.1624 135.613 42.0122C140.838 40.4824 146.612 39.0005 152.645 37.7917C153.166 37.6844 153.693 37.583 154.22 37.4815C159.796 36.4171 165.564 35.5985 171.301 35.2132L172.914 35.1167C173.871 35.0688 174.822 35.0309 175.774 35.0044L176.457 34.9888L177.043 35.3254C177.435 35.5499 182.962 38.7274 190.065 43.745C190.495 44.0445 190.93 44.3547 191.376 44.6757C195.656 47.7518 200.408 51.4368 204.909 55.503C205.307 55.8611 205.704 56.2249 206.097 56.5946C206.383 56.857 206.667 57.1185 206.947 57.3867C210.446 60.7087 215.065 64.6131 220.022 68.5935C220.436 68.9252 220.861 69.2619 221.28 69.5936C225.764 73.1672 230.468 76.7614 234.839 80.0083C235.275 80.3292 235.705 80.6502 236.13 80.9654C244.302 86.9995 251.07 91.6532 252.64 92.3917C252.936 92.5311 253.543 92.7127 254.414 92.9371C255.592 93.2366 257.253 93.6112 259.275 94.0387C264.936 95.2367 273.436 96.8523 282.151 98.4415C282.678 98.538 283.21 98.6338 283.737 98.7303C287.554 99.4201 291.382 100.1 295 100.736V100.738Z" fill="white"/>
<path d="M30.6559 68.7973C30.6509 68.813 30.6236 68.8831 30.5863 69.0003C30.3225 69.733 29.3871 72.3651 28.0859 76.0345V76.0394C26.876 79.4472 25.355 83.7477 23.7686 88.257V88.262C21.629 94.3117 19.3758 100.742 17.6019 105.888C16.3704 109.435 15.3711 112.371 14.7897 114.158C13.7199 117.448 11.4352 124.493 3.89188 130.917C3.48884 131.265 3.07502 131.602 2.63881 131.939C-0.630297 134.501 -4.7909 136.919 -10.1034 138.909C-10.5977 139.101 -11.1035 139.283 -11.6194 139.454C-15.474 140.792 -19.8991 141.91 -24.9852 142.707H-25.001V137.834C-24.996 137.834 -24.9902 137.834 -24.9852 137.829C-13.6462 135.956 -6.00666 132.527 -0.770449 128.521C-0.32926 128.19 0.0895348 127.847 0.492577 127.511C6.15919 122.723 8.69685 117.256 10.1863 112.677C12.2297 106.371 19.4388 85.9582 23.412 74.7407V74.7299C24.9014 70.5309 25.9331 67.6265 26.0732 67.2304C26.084 67.209 26.0898 67.1933 26.0898 67.1875L29.0471 68.2305L30.6543 68.7973H30.6559Z" fill="white"/>
<path d="M65.6236 53.7931L62.7683 57.6819C62.3976 57.4146 58.6392 54.681 53.607 50.8936C46.2039 45.3249 36.0532 37.4829 29.9296 31.882C29.9031 31.8556 29.8757 31.8341 29.8492 31.8069C25.6073 27.9074 19.6505 21.242 14.0319 14.6625C13.7525 14.3308 13.473 13.9991 13.1877 13.6732C13.123 13.5932 13.0583 13.5131 12.9887 13.438C9.23609 9.01456 5.7041 4.70824 3.0155 1.39703C2.66637 0.958063 2.32221 0.541377 2.00458 0.139542C1.35939 -0.657526 0.778877 -1.37456 0.278809 -2H6.48281C13.2947 6.39809 26.0527 21.7883 33.2029 28.3356C42.7838 37.1034 63.2294 52.0488 65.4287 53.6537C65.5473 53.7395 65.6112 53.7873 65.6219 53.7931H65.6236Z" fill="white"/>
<path d="M281.84 38.719L253.552 94.6309L257.874 96.7956L286.162 40.8838L281.84 38.719Z" fill="white"/>
<path d="M295 35.5035V40.3874L285.619 41.9708L283.253 42.3718L281.016 40.361L233.99 -2H241.205L255.076 10.4957L256.269 11.5708L271.651 25.4312L272.85 26.5063L284.758 37.237L295 35.5035Z" fill="white"/>
<path d="M120.871 151.796H114.386C114.381 151.865 114.381 151.93 114.376 151.999C114.311 151.935 114.246 151.865 114.182 151.796C107.118 144.58 94.9351 133.004 83.1714 126.002C79.6983 123.932 75.0642 121.621 69.4025 119.128C68.5152 118.738 67.6229 118.352 66.7247 117.967C58.4292 114.431 49.9936 111.339 45.1173 109.606C42.7836 108.777 41.2627 108.263 40.9559 108.162C40.9185 108.151 40.9019 108.14 40.897 108.14L42.4453 103.583C42.4503 103.583 42.4934 103.599 42.5639 103.62C42.5688 103.625 42.5796 103.625 42.5904 103.63C43.0258 103.775 44.4348 104.257 46.5263 104.994H46.5312C49.676 106.112 54.354 107.808 59.5529 109.841C63.3437 111.328 67.413 112.986 71.3597 114.725C77.2038 117.293 82.0154 119.7 85.6552 121.871C96.1226 128.104 106.827 137.727 114.23 145.012C114.434 145.21 114.639 145.413 114.833 145.606C115.09 145.863 115.343 146.108 115.586 146.355C117.709 148.473 119.505 150.341 120.871 151.795V151.796Z" fill="white"/>
</g>
<defs>
<clipPath id="clip0_76_1872">
<rect width="320" height="154" fill="white" transform="translate(-25 -2)"/>
</clipPath>
</defs>
</svg>
