<svg width="40" height="40" viewBox="0 0 40 40" fill="none" xmlns="http://www.w3.org/2000/svg">
<path fill-rule="evenodd" clip-rule="evenodd" d="M23.3333 30L30 35V30H31.6667C33.5083 30 35 28.5083 35 26.6666V16.6666C35 14.825 33.5083 13.3333 31.6667 13.3333H18.3333C16.4917 13.3333 15 14.825 15 16.6666V26.6666C15 28.5083 16.4917 30 18.3333 30H23.3333Z" stroke="#1C8CF3" stroke-width="1.5" stroke-linecap="round" stroke-linejoin="round"/>
<path d="M15 25L10 28.3334V23.3334H8.33333C6.49167 23.3334 5 21.8417 5 20V10C5 8.15835 6.49167 6.66669 8.33333 6.66669H23.3333C25.175 6.66669 26.6667 8.15835 26.6667 10V13.3334" stroke="#1C8CF3" stroke-width="1.5" stroke-linecap="round" stroke-linejoin="round"/>
<path d="M20.7165 21.6077C20.749 21.6402 20.749 21.693 20.7165 21.7255C20.6839 21.7581 20.6312 21.7581 20.5986 21.7255C20.5661 21.693 20.5661 21.6402 20.5986 21.6077C20.6312 21.5751 20.6839 21.5751 20.7165 21.6077" stroke="#1C8CF3" stroke-width="1.5" stroke-linecap="round" stroke-linejoin="round"/>
<path d="M25.0602 21.6077C25.0928 21.6402 25.0928 21.693 25.0602 21.7255C25.0277 21.7581 24.9749 21.7581 24.9424 21.7255C24.9098 21.693 24.9098 21.6402 24.9424 21.6077C24.9749 21.5751 25.0277 21.5751 25.0602 21.6077" stroke="#1C8CF3" stroke-width="1.5" stroke-linecap="round" stroke-linejoin="round"/>
<path d="M29.4001 21.6077C29.4326 21.6402 29.4326 21.693 29.4001 21.7255C29.3675 21.7581 29.3148 21.7581 29.2822 21.7255C29.2497 21.693 29.2497 21.6402 29.2822 21.6077C29.3148 21.5751 29.3675 21.5751 29.4001 21.6077" stroke="#1C8CF3" stroke-width="1.5" stroke-linecap="round" stroke-linejoin="round"/>
</svg>
