<svg width="12" height="12" viewBox="0 0 12 12" fill="none" xmlns="http://www.w3.org/2000/svg">
<path d="M6.017 0C6.52881 -9.97172e-08 7.30519 2.10558 7.68454 3.2341C7.82344 3.6473 8.20404 3.93296 8.6395 3.95287C9.81596 4.00668 12 4.17997 12 4.7251C12 5.25802 10.4693 6.51561 9.59465 7.19066C9.24492 7.4606 9.09897 7.92237 9.22975 8.34436C9.57826 9.4689 10.1557 11.5756 9.71547 11.9371C9.28631 12.2894 7.60046 11.0798 6.6539 10.3445C6.27046 10.0466 5.72923 10.0462 5.34579 10.3441C4.39926 11.0794 2.71726 12.2895 2.31854 11.9371C1.90842 11.5746 2.45809 9.4566 2.78636 8.33455C2.90853 7.91699 2.76071 7.46469 2.41618 7.19902C1.54343 6.52603 0 5.26023 0 4.7251C0 4.17902 2.1916 4.00608 3.3666 3.95259C3.79915 3.93291 4.17783 3.65102 4.31888 3.24163C4.70706 2.11497 5.50406 9.99394e-08 6.017 0Z" fill="#FAD143"/>
</svg>
