<svg width="15" height="15" viewBox="0 0 15 15" fill="none" xmlns="http://www.w3.org/2000/svg">
<path d="M7.52126 0C8.18835 -1.29973e-07 9.21502 2.8617 9.66368 4.21646C9.80072 4.63028 10.1807 4.91552 10.6163 4.93319C12.0291 4.99051 15 5.19554 15 5.90637C15 6.60361 12.9039 8.29317 11.8459 9.10152C11.4949 9.36975 11.3486 9.83129 11.4816 10.2526C11.9069 11.6005 12.7188 14.4497 12.1443 14.9214C11.5819 15.3832 9.29255 13.6985 8.15208 12.8014C7.77046 12.5012 7.22922 12.5008 6.84754 12.8009C5.70669 13.698 3.42073 15.3832 2.89817 14.9214C2.36327 14.4486 3.13452 11.5868 3.53471 10.2429C3.65887 9.82588 3.5107 9.3738 3.1649 9.10978C2.11049 8.30474 0 6.60599 0 5.90637C0 5.19452 2.97944 4.98992 4.38983 4.93294C4.82248 4.91547 5.20054 4.63401 5.33978 4.224C5.79882 2.87234 6.85292 1.30214e-07 7.52126 0Z" fill="#08151A"/>
</svg>
