<svg width="20" height="20" viewBox="0 0 20 20" fill="none" xmlns="http://www.w3.org/2000/svg">
<path d="M10.0283 0C10.958 -1.81133e-07 12.4115 4.16849 12.9612 5.85414C13.0964 6.26858 13.4751 6.55291 13.9107 6.56831C15.6691 6.63047 20 6.88414 20 7.87516C20 8.85059 16.9231 11.2827 15.5967 12.2858C15.2443 12.5522 15.0981 13.0124 15.2332 13.433C15.7713 15.1074 16.994 19.237 16.1925 19.8951C15.4046 20.542 12.0756 18.0303 10.6511 16.8957C10.2713 16.5932 9.72838 16.5928 9.34846 16.8952C7.92297 18.0296 4.59619 20.5421 3.86423 19.8951C3.11825 19.2358 4.27756 15.0916 4.78315 13.4234C4.90935 13.0071 4.76205 12.5569 4.41496 12.2946C3.09506 11.297 0 8.85347 0 7.87516C0 6.88301 4.34081 6.62989 6.09532 6.5681C6.52806 6.55286 6.9049 6.27222 7.0423 5.8616C7.60472 4.18082 9.09728 1.81401e-07 10.0283 0Z" fill="#989EAA"/>
</svg>
