<svg width="15" height="16" viewBox="0 0 15 16" fill="none" xmlns="http://www.w3.org/2000/svg">
<path d="M3.40856 14.4839C3.40856 14.2617 3.39817 14.0383 3.41202 13.8161C3.42356 13.6364 3.35891 13.555 3.19613 13.4992C2.18016 13.1495 1.38817 12.4987 0.849016 11.5201C0.473801 10.8389 0.25329 10.0995 0.152848 9.32483C-0.0711259 7.58856 -0.0665078 5.85472 0.284462 4.13544C0.458793 3.28066 0.792445 2.49509 1.34545 1.82729C1.74607 1.34162 2.25751 1.0223 2.80706 0.768533C3.73297 0.341143 4.7143 0.151732 5.71641 0.0533839C6.44606 -0.0182525 7.17686 -0.00732493 7.90536 0.0254578C9.12452 0.0813099 10.3102 0.30229 11.437 0.83167C12.5315 1.34527 13.2323 2.21462 13.6213 3.3863C13.9007 4.22651 14.03 5.09586 14.0866 5.98099C14.1639 7.19881 14.0924 8.40691 13.9215 9.61016C13.7899 10.5378 13.4805 11.3974 12.9113 12.1356C12.4206 12.7719 11.7972 13.2065 11.0652 13.47C10.0019 13.8537 8.90401 14.031 7.78298 14.0917C7.19765 14.1233 6.61693 14.0953 6.03506 14.071C5.93231 14.0662 5.8665 14.1014 5.80416 14.1791C5.44626 14.6199 5.08605 15.0594 4.72354 15.4965C4.59308 15.6543 4.45685 15.8085 4.28021 15.9117C3.9454 16.1072 3.60136 15.9688 3.47667 15.5875C3.35891 15.2269 3.42241 14.8518 3.40856 14.4839ZM3.95579 15.3763C4.00082 15.3411 4.01698 15.3326 4.02968 15.318C4.63118 14.6162 5.2396 13.9217 5.82956 13.2102C6.01659 12.9856 6.20362 12.8775 6.50263 12.8909C7.81877 12.9491 9.11528 12.801 10.3841 12.4125C10.9302 12.2449 11.4197 11.9802 11.8261 11.5565C12.3999 10.9567 12.7 10.2112 12.8305 9.3904C13.006 8.28307 13.0718 7.16845 12.9944 6.04534C12.9402 5.26098 12.827 4.48998 12.5603 3.75176C12.3156 3.07304 11.9542 2.48538 11.3366 2.11505C10.8078 1.79815 10.2409 1.5881 9.64866 1.4509C8.47338 1.1765 7.28423 1.13521 6.08932 1.20199C5.265 1.24813 4.46031 1.3999 3.68102 1.69374C2.56461 2.11505 1.82688 2.91155 1.47707 4.10752C1.29465 4.73039 1.19537 5.36662 1.16766 6.0162C1.12032 7.1296 1.08223 8.24179 1.29927 9.34304C1.58559 10.7964 2.30254 11.8892 3.67987 12.3967C3.9073 12.4805 3.96387 12.5958 3.96041 12.8314C3.94771 13.6667 3.95579 14.5033 3.95579 15.3763Z" fill="#989EAA"/>
<path d="M9.18177 11.3682C9.06286 11.3718 8.95434 11.3342 8.84697 11.2881C7.64512 10.772 6.56104 10.0593 5.63744 9.09891C4.5395 7.9588 3.70941 6.63535 3.20258 5.09213C3.04211 4.60525 3.14255 4.21914 3.5143 3.90103C3.68286 3.75654 3.85604 3.61569 4.03614 3.48578C4.36633 3.24537 4.69882 3.27937 4.96782 3.59384C5.30725 3.98966 5.61781 4.41219 5.87065 4.87722C5.92491 4.97557 5.96647 5.08363 6.00111 5.19169C6.07846 5.42846 6.04729 5.64458 5.86026 5.81821C5.73557 5.93477 5.60742 6.04769 5.48158 6.16182C5.32688 6.30388 5.2807 6.47993 5.32457 6.6912C5.4735 7.40756 5.89489 7.93209 6.40634 8.39226C6.71113 8.66667 7.04594 8.88764 7.43731 9.00542C7.64051 9.06734 7.80329 9.01392 7.9326 8.84272C8.00879 8.74194 8.08268 8.63995 8.15888 8.54039C8.36323 8.27084 8.65878 8.18342 8.94972 8.33641C9.50388 8.63024 9.98531 9.03577 10.4402 9.47409C10.5868 9.61615 10.663 9.81892 10.5868 10.0302C10.3859 10.5936 10.0442 11.0343 9.52004 11.3002C9.41614 11.3536 9.29953 11.3743 9.18177 11.3682Z" fill="#989EAA"/>
<path d="M10.4286 6.99839C10.3951 7.11131 10.4864 7.29586 10.3282 7.31043C10.1527 7.32622 10.215 7.12831 10.207 7.02753C10.1689 6.50665 10.1042 5.99305 9.88947 5.5171C9.35725 4.33813 8.46482 3.69947 7.22949 3.5902C7.166 3.58413 7.10134 3.58777 7.03785 3.58049C6.96049 3.57077 6.8716 3.55742 6.87968 3.44693C6.88661 3.35222 6.96627 3.34372 7.039 3.33886C7.2191 3.32672 7.39805 3.35586 7.57469 3.38622C9.10672 3.65576 10.2381 4.9355 10.3848 6.56129C10.3986 6.70942 10.4148 6.85633 10.4286 6.99839Z" fill="#989EAA"/>
<path d="M9.53395 6.673C9.53395 6.68635 9.53511 6.69971 9.53395 6.71306C9.52587 6.80413 9.55012 6.92919 9.42658 6.93526C9.29959 6.94133 9.30767 6.81505 9.30536 6.72521C9.29959 6.49573 9.28227 6.26746 9.213 6.0477C8.94746 5.2087 8.39676 4.71939 7.57129 4.5664C7.47662 4.5494 7.3808 4.53605 7.28728 4.51905C7.21801 4.50569 7.16144 4.46805 7.17299 4.38549C7.18453 4.30171 7.25034 4.28714 7.31961 4.29321C8.32057 4.37092 9.18183 4.96951 9.45429 6.09505C9.49932 6.28325 9.51548 6.47873 9.5455 6.67178C9.54203 6.67178 9.53742 6.673 9.53395 6.673Z" fill="#989EAA"/>
<path d="M7.61867 5.28278C8.19592 5.30949 8.66003 5.83158 8.64964 6.43746C8.64849 6.51152 8.6508 6.60016 8.56075 6.61473C8.4476 6.63415 8.44876 6.52974 8.43259 6.45446C8.40489 6.3294 8.3945 6.19948 8.35409 6.08049C8.25365 5.78302 8.04122 5.61303 7.75259 5.54383C7.70295 5.53168 7.64984 5.53047 7.60135 5.51711C7.52515 5.49526 7.41432 5.49647 7.43741 5.36898C7.45357 5.26335 7.55055 5.28642 7.61867 5.28278Z" fill="#989EAA"/>
</svg>
