<svg width="190" height="33" viewBox="0 0 190 33" fill="none" xmlns="http://www.w3.org/2000/svg">
<path d="M16.6563 13.912C17.0226 13.8437 17.4746 13.867 17.9257 13.8598C18.2526 13.8541 18.2872 13.8019 18.1135 13.5345C17.6911 12.8832 17.2293 12.2583 16.7567 11.6407C16.4859 11.2865 16.42 11.2697 16.024 11.4833C15.9433 11.5267 15.8676 11.5789 15.7877 11.6246C15.5967 11.7347 15.5194 11.8816 15.586 12.1025C15.7243 12.5635 15.8478 13.0277 15.9804 13.4903C16.0841 13.8533 16.178 13.9168 16.6563 13.912ZM22.783 13.1217C23.1609 13.1217 23.4679 13.4204 23.4679 13.7899C23.4679 14.1593 23.1617 14.4581 22.783 14.4581C22.4043 14.4581 22.098 14.1593 22.098 13.7899C22.098 13.4204 22.4043 13.1217 22.783 13.1217ZM29.5576 17.0201C29.5667 17.0474 29.5757 17.0747 29.5839 17.102C29.8573 17.0747 30.1289 17.041 30.4023 17.0225C30.9349 16.9864 31.4684 16.9567 32.0019 16.9318C32.0718 16.9285 32.2126 16.8812 32.1624 17.0554C32.0784 17.351 32.1138 17.4008 32.4357 17.4056C32.886 17.412 33.3133 17.2996 33.7192 17.1205C34.3811 16.8281 35.0018 16.3174 35.7806 16.3712C37.9787 16.5222 40.6428 16.2579 42.6754 15.3343C42.78 15.311 42.9784 15.1592 42.8384 15.1295C42.5701 15.0725 42.3634 15.0709 42.0975 15.0677C41.6258 15.0613 41.154 15.0348 40.6815 15.0155C38.7954 14.9384 36.4376 15.0323 34.6141 14.8067C34.0304 14.7344 33.5356 14.8107 33.0169 15.1311C32.15 15.666 31.2206 16.1029 30.3199 16.5856C30.0623 16.7237 29.812 16.8755 29.5584 17.0217L29.5576 17.0201ZM36.4977 8.32777C36.161 8.09567 35.7847 8.09888 35.4134 8.10852C34.4618 8.13341 33.6558 8.57032 32.8548 9.00321C31.8743 9.53247 30.9069 10.085 29.9347 10.6271C28.4808 11.4375 27.0269 12.2471 25.5747 13.0598C25.4594 13.1241 25.3573 13.2116 25.2495 13.2879C25.1729 13.3417 25.0181 13.3466 25.0626 13.4815C25.0955 13.5803 25.2231 13.5554 25.3112 13.5514C26.1773 13.5176 27.0351 13.6349 27.8963 13.6807C27.9926 13.6855 28.1062 13.6638 28.1836 13.8148C27.8938 13.867 27.6196 13.9377 27.3414 13.9642C26.1946 14.0734 25.0445 14.1071 23.8919 14.1015C23.7454 14.1015 23.7248 14.0509 23.7347 13.9232C23.7693 13.4839 23.5741 13.1634 23.165 12.9827C22.7731 12.8093 22.3409 12.9105 22.0083 13.2333C21.7885 13.4478 21.5868 13.675 21.511 13.9802C21.4567 14.1995 21.3225 14.2758 21.0904 14.287C19.9699 14.3416 18.8478 14.3119 17.729 14.3513C15.1884 14.4404 12.6478 14.3834 10.1072 14.4011C9.77217 14.4035 9.48156 14.4926 9.23952 14.7247C9.16708 14.7946 9.06993 14.8428 9.00407 14.9175C8.51917 15.466 7.90502 15.5158 7.2176 15.4211C6.12019 15.2701 5.01126 15.1946 3.90809 15.0878C2.65262 14.9665 1.39632 14.7978 0.128498 14.8187C0.0889812 14.8187 0.0486414 14.8075 0.0115946 14.8018C-0.034508 14.6862 0.0683996 14.6613 0.118619 14.6075C0.720422 13.9658 1.50581 14.0694 2.27145 14.1063C2.76293 14.1304 3.2536 14.1939 3.74591 14.2067C5.35867 14.2493 6.96979 14.3537 8.58503 14.3465C8.86576 14.3457 8.98514 14.2573 9.03453 13.9883C9.33338 12.3675 9.89896 10.8287 10.6415 9.359C11.7249 7.21704 13.2513 5.41239 15.1365 3.88644C16.9189 2.4432 18.9219 1.40636 21.1299 0.756621C22.9419 0.225749 24.7983 -0.0665917 26.6984 0.0129186C28.149 0.0731537 29.5946 0.217718 30.9901 0.62571C32.6671 1.11643 34.2839 1.74367 35.7782 2.66166C37.0122 3.41982 38.145 4.29523 39.1692 5.29915C40.4098 6.5159 41.401 7.91175 42.2037 9.44333C43.1233 11.1998 43.6502 13.0614 43.9144 15.005C44.0396 15.9343 43.9885 16.8683 43.991 17.8007C43.9918 17.9919 43.8873 18.0521 43.7062 18.0778C42.4285 18.2609 41.4488 18.9163 40.7465 19.9475C40.1464 20.8278 40.0031 21.8236 40.1283 22.8621C40.1373 22.932 40.1546 23.0002 40.162 23.0701C40.1678 23.1287 40.1826 23.1978 40.12 23.234C40.0566 23.2709 40.0048 23.2211 39.9537 23.1898C38.4826 22.2742 36.8731 21.8783 35.1368 21.9955C33.669 22.0943 32.3517 22.6163 31.2033 23.4966C29.6012 24.7254 28.6166 26.322 28.3713 28.3194C28.3458 28.5282 28.3128 28.7386 28.3186 28.9475C28.326 29.2028 28.2132 29.3121 27.9621 29.3322C26.4572 29.451 25.2758 30.5979 25.0058 32.0243C24.949 32.3254 24.944 32.6362 24.9095 33.0001C24.6501 32.7888 24.4295 32.6017 24.1883 32.4403C23.1213 31.7255 21.963 31.4637 20.7018 31.7737C20.0448 31.9351 19.4669 32.2644 19.019 32.7752C18.9128 32.8957 18.8231 32.874 18.6963 32.8218C17.2416 32.2226 15.9639 31.352 14.7685 30.3642C13.304 29.1555 12.1242 27.7114 11.1297 26.1148C10.0389 24.364 9.31526 22.4782 8.89622 20.476C8.58915 19.0103 8.58339 17.5261 8.62537 16.0403C8.63031 15.8604 8.67065 15.6805 8.90281 15.6773C9.77464 15.666 11.7875 15.7728 12.4725 15.7054C12.4955 15.7054 14.6706 15.7327 14.8723 15.7921C15.1448 15.8025 15.4346 17.0675 16.1878 16.327C16.2537 16.2627 16.308 16.1134 16.4538 16.0595C16.8226 15.9238 18.1777 16.0523 18.3975 16.0852C18.6807 16.1278 18.8824 16.2025 19.0133 16.2965C18.1085 16.9285 18.1439 16.9567 16.7361 17.8297C15.47 17.8007 14.2063 17.8682 12.9426 17.9084C12.0929 17.9357 11.2351 17.9068 10.3921 18.0682C10.3419 18.0778 10.2867 18.0762 10.2406 18.0955C10.0817 18.163 9.85285 18.1597 9.87673 18.33C9.90143 18.5035 10.1311 18.4866 10.2719 18.4922C12.0789 18.5605 13.8868 18.6151 15.6931 18.689C15.9919 18.7011 16.3056 18.6818 16.5237 19.0111C16.6505 19.203 16.9617 19.207 17.212 19.2127C19.3953 19.2592 21.5769 19.2351 23.719 18.7709C24.851 18.5252 25.9517 18.1686 26.9964 17.6449C28.4248 16.9293 29.7807 16.0941 31.1802 15.3335C32.4909 14.6211 33.8089 13.9224 35.0767 13.141C36.1149 12.5017 37.0888 11.778 37.8207 10.799C38.0841 10.4472 38.336 10.0754 38.3204 9.59592C38.3015 9.03614 38.0421 8.75102 37.4765 8.6177C36.8887 8.47876 35.9082 9.00401 35.3665 9.15661C35.3369 9.16464 35.3097 9.18552 35.2801 9.18793C35.1492 9.20158 34.9533 9.26905 34.8701 9.10119C34.7894 8.93494 35.0109 8.8731 35.1393 8.79921C35.406 8.64662 36.1824 8.36311 36.496 8.32858L36.4977 8.32777Z" fill="#FF692E"/>
<path d="M126.627 9.72806C127.3 8.90666 128.074 8.27787 129.01 7.87796C131.147 6.96587 133.253 7.10407 135.248 8.24159C138.315 9.99063 139.612 12.9912 139.286 16.3554C139.018 19.1141 137.697 21.2389 135.247 22.5993C132.995 23.8499 129.575 23.8499 127.489 21.8461C127.24 21.6086 126.946 21.4203 126.692 21.1862C126.639 21.1862 126.706 21.3261 126.706 21.4376C126.699 24.2585 126.692 27.0794 126.702 29.9003C126.703 30.2078 126.612 30.3503 126.328 30.4686C125.229 30.9256 124.138 31.4006 123.056 31.8964C122.711 32.0544 122.641 32.0113 122.641 31.6252C122.649 24.0261 122.645 16.4262 122.642 8.82719C122.642 8.51021 122.651 8.19322 122.634 7.8771C122.622 7.65599 122.688 7.5722 122.92 7.5748C124.054 7.58516 125.188 7.58602 126.321 7.57739C126.56 7.57566 126.644 7.63698 126.634 7.89351C126.612 8.48084 126.627 9.06904 126.627 9.72719V9.72806ZM135.276 15.4295C135.276 15.2999 135.282 15.1704 135.275 15.0417C135.146 12.65 133.005 10.6661 130.728 10.8526C128.886 11.0038 127.531 11.9254 126.917 13.6787C126.271 15.5262 126.579 17.2796 127.983 18.7082C129.232 19.9787 131.12 20.3113 132.72 19.5814C134.481 18.779 135.199 17.2925 135.276 15.4304V15.4295Z" fill="#F3F3F5"/>
<path d="M78.017 21.0366C78.017 21.3302 78.017 21.5677 78.017 21.8053C78.0135 24.4811 78.0032 27.1569 78.0161 29.8327C78.0178 30.2205 77.9033 30.4149 77.5321 30.5617C76.4787 30.978 75.4382 31.4272 74.4089 31.8996C74.0153 32.0801 73.9766 31.9722 73.9766 31.5982C73.9835 23.9162 73.98 16.2343 73.9766 8.55144C73.9766 7.56248 73.9705 7.56161 74.9748 7.55902C75.8353 7.55729 76.6966 7.57543 77.557 7.54866C77.8981 7.53829 77.9705 7.66008 77.9584 7.96929C77.9369 8.52553 77.9524 9.08436 77.9524 9.71747C78.284 9.40393 78.5536 9.11718 78.855 8.87015C81.1513 6.98378 84.0617 6.74194 86.6809 8.26814C88.9264 9.57668 90.1632 11.5814 90.5146 14.1458C90.7308 15.7255 90.6076 17.2759 90.0108 18.7658C88.5638 22.3796 84.5914 24.2669 80.886 23.1086C79.8998 22.8003 79.1617 22.2725 78.0178 21.0366H78.017ZM77.9395 15.4457C77.9334 15.716 77.9593 16.0581 78.029 16.3984C78.7233 19.7531 82.5294 21.0867 85.0685 18.8634C86.6964 17.4383 87.0556 14.5103 85.7817 12.75C84.8429 11.4527 83.5509 10.7315 81.9411 10.8723C79.495 11.0856 77.9317 12.9003 77.9386 15.4457H77.9395Z" fill="#F3F3F5"/>
<path d="M112.044 23.4267C107.394 23.4241 103.966 20.0296 103.977 15.4381C103.987 10.7861 107.502 7.33377 112.218 7.34414C116.736 7.3545 120.247 10.9519 120.236 15.559C120.225 20.1022 116.761 23.4293 112.044 23.4267ZM108.022 16.0202C108.029 16.6568 108.387 17.8056 109.358 18.6701C110.588 19.7653 112.029 20.0478 113.567 19.4795C115.088 18.918 115.917 17.7529 116.143 16.1533C116.486 13.7366 115.158 11.6308 113.002 11.1661C110.342 10.5926 108.033 12.5481 108.023 16.0202H108.022Z" fill="#F3F3F5"/>
<path d="M142.748 15.508C142.748 13.7806 142.734 12.5567 142.758 11.3345C142.764 10.9994 142.658 10.9199 142.348 10.9286C141.761 10.9459 141.172 10.913 140.584 10.9277C140.314 10.9346 140.245 10.8422 140.25 10.5805C140.267 9.68828 140.272 8.79605 140.253 7.90383C140.248 7.64817 140.325 7.58079 140.561 7.58339C141.164 7.59116 141.767 7.57302 142.369 7.58339C142.65 7.58857 142.757 7.51602 142.751 7.19989C142.73 5.93367 142.752 4.66659 142.739 3.40037C142.735 3.11016 142.802 3.00824 143.113 3.01429C144.204 3.03675 145.295 3.03761 146.385 3.02206C146.669 3.01775 146.744 3.08857 146.739 3.37705C146.722 4.62859 146.752 5.88185 146.725 7.13339C146.716 7.53415 146.857 7.61189 147.214 7.60412C148.276 7.58252 149.338 7.60066 150.4 7.57993C150.683 7.57475 150.803 7.61534 150.794 7.9401C150.773 8.81765 150.776 9.69605 150.801 10.5736C150.81 10.8889 150.705 10.9588 150.413 10.9554C149.308 10.9407 148.203 10.9571 147.098 10.945C146.84 10.9424 146.748 11.0106 146.75 11.2818C146.763 13.5845 146.717 15.8872 146.798 18.189C146.807 18.4317 146.841 18.6788 146.904 18.912C147.083 19.5727 147.496 19.9044 148.209 19.97C149.003 20.0435 149.786 19.9675 150.552 19.7446C150.769 19.6816 150.851 19.6954 150.845 19.9631C150.826 20.8692 150.83 21.7761 150.839 22.683C150.842 22.9153 150.806 23.0354 150.536 23.0881C149.318 23.3256 148.094 23.4284 146.854 23.355C144.466 23.2142 143.039 21.8011 142.823 19.4043C142.69 17.9377 142.782 16.4702 142.748 15.5072V15.508Z" fill="#F3F3F5"/>
<path d="M97.9851 14.4957C97.9851 15.6894 97.9437 16.8848 97.9963 18.0759C98.0549 19.4112 98.5837 19.9873 99.787 20.0028C100.467 20.0115 101.135 19.9605 101.781 19.7385C102.013 19.6591 102.114 19.6962 102.111 19.9769C102.099 20.8838 102.106 21.7907 102.115 22.6968C102.117 22.8928 102.084 23.0155 101.859 23.063C100.329 23.3878 98.7852 23.5061 97.2418 23.234C95.5071 22.9274 94.5786 21.9203 94.1962 20.0451C94.0696 19.4233 94.0187 18.7927 94.0187 18.1579C94.0179 15.8984 94.0058 13.638 94.0213 11.3785C94.0239 10.9925 93.9085 10.8871 93.5347 10.9113C93.0205 10.9441 92.502 10.9087 91.9852 10.9173C91.7294 10.9216 91.6303 10.8983 91.6398 10.5658C91.6639 9.72106 91.7147 8.87116 91.6028 8.02644C91.564 7.73018 91.6424 7.57557 91.9921 7.59026C92.5364 7.61271 93.0834 7.56694 93.6277 7.58421C93.9567 7.59458 94.0704 7.50129 94.0635 7.15235C94.0394 5.91463 94.0618 4.67692 94.0394 3.4392C94.0334 3.12049 94.1057 3.01771 94.4365 3.02462C95.5269 3.04534 96.6182 3.0393 97.7086 3.02807C97.9687 3.02548 98.0454 3.09371 98.0394 3.36924C98.0126 4.60696 98.0316 5.84467 97.998 7.08239C97.9877 7.48229 98.0669 7.62481 98.5019 7.61012C99.6061 7.57212 100.712 7.59976 101.817 7.58335C102.071 7.57989 102.163 7.62394 102.155 7.90983C102.128 8.8012 102.122 9.69429 102.144 10.5865C102.151 10.8966 102.033 10.9346 101.774 10.932C100.697 10.9225 99.6199 10.9588 98.5449 10.9199C98.0867 10.9035 97.998 11.0529 98.0101 11.4727C98.0394 12.4789 98.0195 13.4878 98.0195 14.4949H97.9834L97.9851 14.4957Z" fill="#F3F3F5"/>
<path d="M59.3913 14.4957C59.3913 15.6894 59.35 16.8848 59.4025 18.0759C59.4611 19.4112 59.99 19.9873 61.1932 20.0028C61.8728 20.0115 62.5412 19.9605 63.1871 19.7385C63.4188 19.6591 63.5205 19.6962 63.517 19.9769C63.505 20.8838 63.5127 21.7907 63.5213 22.6968C63.5231 22.8928 63.4903 23.0155 63.2655 23.063C61.735 23.3878 60.1915 23.5061 58.648 23.234C56.9133 22.9274 55.9848 21.9203 55.6024 20.0451C55.4758 19.4233 55.425 18.7927 55.425 18.1579C55.4241 15.8984 55.4121 13.638 55.4276 11.3785C55.4302 10.9925 55.3147 10.8871 54.9409 10.9113C54.4267 10.9441 53.9082 10.9087 53.3914 10.9173C53.1356 10.9216 53.0366 10.8983 53.0461 10.5658C53.0702 9.72106 53.121 8.87116 53.009 8.02644C52.9703 7.73018 53.0486 7.57557 53.3983 7.59026C53.9427 7.61271 54.4896 7.56694 55.034 7.58421C55.363 7.59458 55.4767 7.50129 55.4698 7.15235C55.4457 5.91463 55.4681 4.67692 55.4457 3.4392C55.4396 3.12049 55.512 3.01771 55.8427 3.02462C56.9332 3.04534 58.0244 3.0393 59.1149 3.02807C59.375 3.02548 59.4516 3.09371 59.4456 3.36924C59.4189 4.60696 59.4378 5.84467 59.4043 7.08239C59.3939 7.48229 59.4732 7.62481 59.9081 7.61012C61.0123 7.57212 62.1183 7.59976 63.2233 7.58335C63.4774 7.57989 63.5696 7.62394 63.561 7.90983C63.5343 8.8012 63.5282 9.69429 63.5498 10.5865C63.5575 10.8966 63.4395 10.9346 63.1803 10.932C62.1036 10.9225 61.0261 10.9588 59.9512 10.9199C59.493 10.9035 59.4043 11.0529 59.4163 11.4727C59.4456 12.4789 59.4258 13.4878 59.4258 14.4949H59.3896L59.3913 14.4957Z" fill="#F3F3F5"/>
<path d="M157.376 10.3438C157.935 9.38508 158.582 8.59391 159.488 8.0515C160.607 7.38211 161.803 7.16963 163.088 7.42616C163.37 7.4823 163.438 7.59113 163.384 7.85889C163.157 8.98691 162.976 10.1236 162.869 11.2689C162.84 11.5798 162.669 11.5263 162.487 11.496C161.915 11.4019 161.341 11.3906 160.771 11.4615C158.757 11.7137 157.59 12.9661 157.447 15.0502C157.291 17.321 157.417 19.5952 157.396 21.8676C157.393 22.277 157.589 22.8238 157.316 23.057C157.08 23.2591 156.551 23.1226 156.152 23.1252C155.363 23.1295 154.573 23.1157 153.785 23.133C153.513 23.139 153.453 23.0509 153.453 22.7901C153.458 17.8124 153.455 12.8339 153.445 7.85629C153.445 7.65073 153.488 7.58249 153.702 7.58508C154.835 7.59459 155.969 7.59545 157.102 7.58422C157.343 7.58163 157.383 7.67405 157.381 7.88739C157.369 8.67856 157.376 9.46973 157.376 10.3438Z" fill="#F3F3F5"/>
<path d="M67.0441 15.344C67.0441 12.8832 67.0501 10.4225 67.0372 7.96172C67.0355 7.63955 67.1276 7.53417 67.4497 7.53935C68.5402 7.55663 69.6314 7.55836 70.7219 7.54713C71.0009 7.54454 71.0879 7.62573 71.0879 7.91335C71.0793 12.8495 71.0785 17.7857 71.0879 22.721C71.0879 23.0432 70.9949 23.1468 70.6736 23.1425C69.5979 23.1278 68.5212 23.127 67.4446 23.1477C67.1138 23.1537 67.0337 23.0406 67.0355 22.7262C67.0466 20.2655 67.0415 17.8047 67.0415 15.344H67.0441Z" fill="#F3F3F5"/>
<path d="M71.5909 3.51096C71.5952 4.94128 70.3825 6.14358 68.9458 6.13322C67.6616 6.12458 66.4644 4.86873 66.4609 3.52737C66.4566 2.12036 67.6366 0.98111 69.0793 1.00011C70.4238 1.01739 71.5866 2.17996 71.5909 3.51096Z" fill="#F3F3F5"/>
<path d="M165.515 15.351C165.515 12.8912 165.525 10.4313 165.504 7.97225C165.5 7.60862 165.608 7.54384 165.934 7.54989C166.981 7.56803 168.029 7.56544 169.075 7.54989C169.387 7.54557 169.518 7.59739 169.517 7.9662C169.5 12.5984 169.506 17.2296 169.495 21.8618C169.494 22.2695 169.701 22.7989 169.427 23.0537C169.178 23.2852 168.659 23.1159 168.259 23.1185C167.513 23.1228 166.766 23.1012 166.021 23.1271C165.676 23.1392 165.559 23.0667 165.561 22.6875C165.58 20.2423 165.571 17.7971 165.571 15.351H165.513H165.515Z" fill="#F3F3F5"/>
<path d="M167.495 1.01845C168.883 1.02276 169.987 2.12833 169.982 3.51202C169.978 4.98207 168.873 6.0885 167.422 6.07727C166.061 6.06604 164.957 4.90866 164.961 3.4956C164.965 2.07046 166.044 1.01413 167.495 1.01845Z" fill="#F3F3F5"/>
<path d="M176.46 7.59553C176.581 8.28996 176.482 8.9913 176.524 9.72633C176.861 9.3938 177.16 9.05435 177.504 8.7676C179.659 6.96933 182.804 6.78535 185.307 8.33401C187.314 9.57518 188.569 11.3579 189.003 13.7003C189.02 13.7876 188.965 13.9439 189.152 13.9249V17.0343C188.903 17.0118 189.004 17.2209 188.981 17.3219C188.383 19.9537 186.901 21.8729 184.406 22.9292C182.179 23.8715 178.776 23.704 176.842 21.2337C176.799 21.1802 176.788 21.1016 176.761 21.0351L176.65 21.1197C176.65 21.7019 176.65 22.2831 176.65 22.8653C176.652 25.225 176.648 27.5847 176.664 29.9444C176.666 30.2415 176.568 30.3788 176.308 30.4876C175.223 30.9411 174.147 31.4136 173.067 31.8782C172.614 32.0734 172.611 32.0734 172.61 31.5872C172.605 26.8384 172.6 22.0905 172.597 17.3418C172.595 14.2341 172.594 11.1256 172.6 8.01789C172.6 7.86933 172.481 7.6629 172.718 7.56789L172.743 7.58602L172.769 7.57134C173.127 7.57134 173.484 7.57307 173.841 7.57393C174.712 7.63612 175.586 7.61971 176.458 7.59725L176.46 7.59553ZM185.101 15.3898C185.101 15.2317 185.109 15.0728 185.099 14.9156C184.905 11.8787 181.637 9.9319 178.922 11.294C177.247 12.1344 176.527 13.6312 176.53 15.4718C176.533 18.1062 178.56 20.0945 181.057 19.9502C183.41 19.8146 185.126 17.8859 185.1 15.3898H185.101Z" fill="#F3F3F5"/>
<path d="M176.46 7.59553C175.587 7.61798 174.714 7.63526 173.842 7.5722C174.716 7.53506 175.588 7.52038 176.46 7.59553Z" fill="#F3F3F5"/>
<path d="M171.77 7.57019L171.743 7.58487L171.719 7.56673L171.746 7.54773L171.769 7.57019H171.77Z" fill="#F3F3F5"/>
</svg>
