<svg width="190" height="33" viewBox="0 0 190 33" fill="none" xmlns="http://www.w3.org/2000/svg">
<path d="M16.6563 13.912C17.0226 13.8437 17.4746 13.867 17.9257 13.8598C18.2526 13.8541 18.2872 13.8019 18.1135 13.5345C17.6911 12.8832 17.2293 12.2583 16.7567 11.6407C16.4859 11.2865 16.42 11.2697 16.024 11.4833C15.9433 11.5267 15.8676 11.5789 15.7877 11.6246C15.5967 11.7347 15.5194 11.8816 15.586 12.1025C15.7243 12.5635 15.8478 13.0277 15.9804 13.4903C16.0841 13.8533 16.178 13.9168 16.6563 13.912ZM22.783 13.1217C23.1609 13.1217 23.4679 13.4204 23.4679 13.7899C23.4679 14.1593 23.1617 14.4581 22.783 14.4581C22.4043 14.4581 22.098 14.1593 22.098 13.7899C22.098 13.4204 22.4043 13.1217 22.783 13.1217ZM29.5576 17.0201C29.5667 17.0474 29.5757 17.0747 29.5839 17.102C29.8573 17.0747 30.1289 17.041 30.4023 17.0225C30.9349 16.9864 31.4684 16.9567 32.0019 16.9318C32.0718 16.9285 32.2126 16.8812 32.1624 17.0554C32.0784 17.351 32.1138 17.4008 32.4357 17.4056C32.886 17.412 33.3133 17.2996 33.7192 17.1205C34.3811 16.8281 35.0018 16.3174 35.7806 16.3712C37.9787 16.5222 40.6428 16.2579 42.6754 15.3343C42.78 15.311 42.9784 15.1592 42.8384 15.1295C42.5701 15.0725 42.3634 15.0709 42.0975 15.0677C41.6258 15.0613 41.154 15.0348 40.6815 15.0155C38.7954 14.9384 36.4376 15.0323 34.6141 14.8067C34.0304 14.7344 33.5356 14.8107 33.0169 15.1311C32.15 15.666 31.2206 16.1029 30.3199 16.5856C30.0623 16.7237 29.812 16.8755 29.5584 17.0217L29.5576 17.0201ZM36.4977 8.32777C36.161 8.09567 35.7847 8.09888 35.4134 8.10852C34.4618 8.13341 33.6558 8.57032 32.8548 9.00321C31.8743 9.53247 30.9069 10.085 29.9347 10.6271C28.4808 11.4375 27.0269 12.2471 25.5747 13.0598C25.4594 13.1241 25.3573 13.2116 25.2495 13.2879C25.1729 13.3417 25.0181 13.3466 25.0626 13.4815C25.0955 13.5803 25.2231 13.5554 25.3112 13.5514C26.1773 13.5176 27.0351 13.6349 27.8963 13.6807C27.9926 13.6855 28.1062 13.6638 28.1836 13.8148C27.8938 13.867 27.6196 13.9377 27.3414 13.9642C26.1946 14.0734 25.0445 14.1071 23.8919 14.1015C23.7454 14.1015 23.7248 14.0509 23.7347 13.9232C23.7693 13.4839 23.5741 13.1634 23.165 12.9827C22.7731 12.8093 22.3409 12.9105 22.0083 13.2333C21.7885 13.4478 21.5868 13.675 21.511 13.9802C21.4567 14.1995 21.3225 14.2758 21.0904 14.287C19.9699 14.3416 18.8478 14.3119 17.729 14.3513C15.1884 14.4404 12.6478 14.3834 10.1072 14.4011C9.77217 14.4035 9.48156 14.4926 9.23952 14.7247C9.16708 14.7946 9.06993 14.8428 9.00407 14.9175C8.51917 15.466 7.90502 15.5158 7.2176 15.4211C6.12019 15.2701 5.01126 15.1946 3.90809 15.0878C2.65262 14.9665 1.39632 14.7978 0.128498 14.8187C0.0889812 14.8187 0.0486414 14.8075 0.0115946 14.8018C-0.034508 14.6862 0.0683996 14.6613 0.118619 14.6075C0.720422 13.9658 1.50581 14.0694 2.27145 14.1063C2.76293 14.1304 3.2536 14.1939 3.74591 14.2067C5.35867 14.2493 6.96979 14.3537 8.58503 14.3465C8.86576 14.3457 8.98514 14.2573 9.03453 13.9883C9.33338 12.3675 9.89896 10.8287 10.6415 9.359C11.7249 7.21704 13.2513 5.41239 15.1365 3.88644C16.9189 2.4432 18.9219 1.40636 21.1299 0.756621C22.9419 0.225749 24.7983 -0.0665917 26.6984 0.0129186C28.149 0.0731537 29.5946 0.217718 30.9901 0.62571C32.6671 1.11643 34.2839 1.74367 35.7782 2.66166C37.0122 3.41982 38.145 4.29523 39.1692 5.29915C40.4098 6.5159 41.401 7.91175 42.2037 9.44333C43.1233 11.1998 43.6502 13.0614 43.9144 15.005C44.0396 15.9343 43.9885 16.8683 43.991 17.8007C43.9918 17.9919 43.8873 18.0521 43.7062 18.0778C42.4285 18.2609 41.4488 18.9163 40.7465 19.9475C40.1464 20.8278 40.0031 21.8236 40.1283 22.8621C40.1373 22.932 40.1546 23.0002 40.162 23.0701C40.1678 23.1287 40.1826 23.1978 40.12 23.234C40.0566 23.2709 40.0048 23.2211 39.9537 23.1898C38.4826 22.2742 36.8731 21.8783 35.1368 21.9955C33.669 22.0943 32.3517 22.6163 31.2033 23.4966C29.6012 24.7254 28.6166 26.322 28.3713 28.3194C28.3458 28.5282 28.3128 28.7386 28.3186 28.9475C28.326 29.2028 28.2132 29.3121 27.9621 29.3322C26.4572 29.451 25.2758 30.5979 25.0058 32.0243C24.949 32.3254 24.944 32.6362 24.9095 33.0001C24.6501 32.7888 24.4295 32.6017 24.1883 32.4403C23.1213 31.7255 21.963 31.4637 20.7018 31.7737C20.0448 31.9351 19.4669 32.2644 19.019 32.7752C18.9128 32.8957 18.8231 32.874 18.6963 32.8218C17.2416 32.2226 15.9639 31.352 14.7685 30.3642C13.304 29.1555 12.1242 27.7114 11.1297 26.1148C10.0389 24.364 9.31526 22.4782 8.89622 20.476C8.58915 19.0103 8.58339 17.5261 8.62537 16.0403C8.63031 15.8604 8.67065 15.6805 8.90281 15.6773C9.77464 15.666 11.7875 15.7728 12.4725 15.7054C12.4955 15.7054 14.6706 15.7327 14.8723 15.7921C15.1448 15.8025 15.4346 17.0675 16.1878 16.327C16.2537 16.2627 16.308 16.1134 16.4538 16.0595C16.8226 15.9238 18.1777 16.0523 18.3975 16.0852C18.6807 16.1278 18.8824 16.2025 19.0133 16.2965C18.1085 16.9285 18.1439 16.9567 16.7361 17.8297C15.47 17.8007 14.2063 17.8682 12.9426 17.9084C12.0929 17.9357 11.2351 17.9068 10.3921 18.0682C10.3419 18.0778 10.2867 18.0762 10.2406 18.0955C10.0817 18.163 9.85285 18.1597 9.87673 18.33C9.90143 18.5035 10.1311 18.4866 10.2719 18.4922C12.0789 18.5605 13.8868 18.6151 15.6931 18.689C15.9919 18.7011 16.3056 18.6818 16.5237 19.0111C16.6505 19.203 16.9617 19.207 17.212 19.2127C19.3953 19.2592 21.5769 19.2351 23.719 18.7709C24.851 18.5252 25.9517 18.1686 26.9964 17.6449C28.4248 16.9293 29.7807 16.0941 31.1802 15.3335C32.4909 14.6211 33.8089 13.9224 35.0767 13.141C36.1149 12.5017 37.0888 11.778 37.8207 10.799C38.0841 10.4472 38.336 10.0754 38.3204 9.59592C38.3015 9.03614 38.0421 8.75102 37.4765 8.6177C36.8887 8.47876 35.9082 9.00401 35.3665 9.15661C35.3369 9.16464 35.3097 9.18552 35.2801 9.18793C35.1492 9.20158 34.9533 9.26905 34.8701 9.10119C34.7894 8.93494 35.0109 8.8731 35.1393 8.79921C35.406 8.64662 36.1824 8.36311 36.496 8.32858L36.4977 8.32777Z" fill="#FF692E"/>
<path d="M126.627 9.72818C127.3 8.90678 128.074 8.27799 129.01 7.87808C131.147 6.96599 133.253 7.10419 135.248 8.24171C138.315 9.99075 139.612 12.9913 139.286 16.3555C139.018 19.1143 137.697 21.239 135.247 22.5994C132.995 23.8501 129.575 23.8501 127.489 21.8462C127.24 21.6087 126.946 21.4204 126.692 21.1863C126.639 21.1863 126.706 21.3263 126.706 21.4377C126.699 24.2586 126.692 27.0795 126.702 29.9004C126.703 30.2079 126.612 30.3504 126.328 30.4688C125.229 30.9257 124.138 31.4007 123.056 31.8965C122.711 32.0546 122.641 32.0114 122.641 31.6253C122.649 24.0263 122.645 16.4264 122.642 8.82732C122.642 8.51033 122.651 8.19334 122.634 7.87722C122.622 7.65611 122.688 7.57233 122.92 7.57492C124.054 7.58528 125.188 7.58615 126.321 7.57751C126.56 7.57578 126.644 7.63711 126.634 7.89363C126.612 8.48096 126.627 9.06916 126.627 9.72732V9.72818ZM135.276 15.4296C135.276 15.3001 135.282 15.1705 135.275 15.0418C135.146 12.6502 133.005 10.6662 130.728 10.8527C128.886 11.0039 127.531 11.9255 126.917 13.6788C126.271 15.5264 126.579 17.2797 127.983 18.7083C129.232 19.9788 131.12 20.3114 132.72 19.5815C134.481 18.7791 135.199 17.2927 135.276 15.4305V15.4296Z" fill="#262626"/>
<path d="M78.0139 21.0367C78.0139 21.3303 78.0139 21.5679 78.0139 21.8054C78.0105 24.4812 78.0001 27.157 78.0131 29.8328C78.0148 30.2207 77.9002 30.415 77.529 30.5618C76.4756 30.9781 75.4352 31.4273 74.4059 31.8997C74.0123 32.0802 73.9735 31.9723 73.9735 31.5983C73.9804 23.9163 73.977 16.2344 73.9735 8.55156C73.9735 7.5626 73.9675 7.56173 74.9718 7.55914C75.8322 7.55742 76.6935 7.57555 77.554 7.54878C77.8951 7.53841 77.9674 7.6602 77.9554 7.96941C77.9338 8.52565 77.9493 9.08448 77.9493 9.71759C78.2809 9.40406 78.5505 9.1173 78.852 8.87027C81.1482 6.9839 84.0586 6.74206 86.6779 8.26826C88.9233 9.5768 90.1602 11.5815 90.5116 14.1459C90.7278 15.7256 90.6046 17.276 90.0077 18.766C88.5607 22.3798 84.5883 24.267 80.883 23.1088C79.8968 22.8004 79.1586 22.2727 78.0148 21.0367H78.0139ZM77.9364 15.4458C77.9304 15.7161 77.9562 16.0582 78.026 16.3985C78.7202 19.7532 82.5263 21.0868 85.0655 18.8636C86.6934 17.4384 87.0525 14.5104 85.7787 12.7501C84.8398 11.4528 83.5479 10.7316 81.9381 10.8724C79.4919 11.0857 77.9287 12.9004 77.9355 15.4458H77.9364Z" fill="#262626"/>
<path d="M112.039 23.4268C107.39 23.4242 103.962 20.0298 103.972 15.4382C103.983 10.7862 107.498 7.3339 112.214 7.34426C116.732 7.35463 120.242 10.952 120.231 15.5591C120.221 20.1023 116.757 23.4294 112.039 23.4268ZM108.018 16.0204C108.025 16.6569 108.382 17.8057 109.354 18.6703C110.584 19.7655 112.025 20.0479 113.563 19.4796C115.083 18.9182 115.913 17.753 116.139 16.1534C116.482 13.7367 115.154 11.6309 112.998 11.1662C110.337 10.5927 108.028 12.5482 108.019 16.0204H108.018Z" fill="#262626"/>
<path d="M142.746 15.5082C142.746 13.7807 142.732 12.5568 142.755 11.3347C142.761 10.9995 142.656 10.9201 142.346 10.9287C141.759 10.946 141.17 10.9132 140.581 10.9278C140.312 10.9348 140.243 10.8423 140.248 10.5806C140.265 9.6884 140.27 8.79618 140.251 7.90395C140.245 7.64829 140.323 7.58092 140.559 7.58351C141.162 7.59128 141.765 7.57314 142.367 7.58351C142.648 7.58869 142.754 7.51614 142.748 7.20002C142.728 5.9338 142.75 4.66672 142.736 3.4005C142.733 3.11029 142.8 3.00837 143.111 3.01441C144.201 3.03687 145.293 3.03773 146.383 3.02219C146.667 3.01787 146.742 3.08869 146.737 3.37718C146.72 4.62871 146.75 5.88197 146.723 7.13351C146.714 7.53428 146.855 7.61201 147.212 7.60424C148.274 7.58264 149.336 7.60078 150.398 7.58005C150.681 7.57487 150.801 7.61547 150.792 7.94023C150.771 8.81777 150.774 9.69618 150.799 10.5737C150.808 10.889 150.703 10.9589 150.411 10.9555C149.306 10.9408 148.201 10.9572 147.096 10.9451C146.838 10.9425 146.746 11.0108 146.748 11.282C146.76 13.5847 146.715 15.8873 146.796 18.1892C146.804 18.4319 146.839 18.6789 146.902 18.9121C147.081 19.5729 147.493 19.9045 148.207 19.9702C149.001 20.0436 149.784 19.9676 150.549 19.7447C150.767 19.6817 150.849 19.6955 150.843 19.9633C150.824 20.8693 150.828 21.7762 150.837 22.6831C150.84 22.9155 150.803 23.0355 150.534 23.0882C149.316 23.3257 148.092 23.4285 146.852 23.3551C144.463 23.2143 143.037 21.8013 142.821 19.4044C142.688 17.9378 142.779 16.4704 142.746 15.5073V15.5082Z" fill="#262626"/>
<path d="M97.9818 14.4958C97.9818 15.6895 97.9404 16.8849 97.993 18.076C98.0516 19.4113 98.5804 19.9874 99.7837 20.0029C100.463 20.0116 101.132 19.9606 101.778 19.7386C102.009 19.6592 102.111 19.6963 102.107 19.977C102.095 20.8839 102.103 21.7909 102.112 22.6969C102.114 22.893 102.081 23.0156 101.856 23.0631C100.325 23.3879 98.782 23.5062 97.2385 23.2341C95.5038 22.9275 94.5753 21.9204 94.1929 20.0453C94.0663 19.4234 94.0154 18.7929 94.0154 18.158C94.0146 15.8985 94.0025 13.6382 94.018 11.3787C94.0206 10.9926 93.9052 10.8872 93.5314 10.9114C93.0172 10.9442 92.4987 10.9088 91.9819 10.9174C91.7261 10.9218 91.627 10.8984 91.6365 10.5659C91.6606 9.72118 91.7114 8.87128 91.5995 8.02656C91.5607 7.7303 91.6391 7.5757 91.9888 7.59038C92.5331 7.61284 93.0801 7.56706 93.6244 7.58433C93.9534 7.5947 94.0671 7.50142 94.0602 7.15247C94.0361 5.91476 94.0585 4.67704 94.0361 3.43932C94.0301 3.12061 94.1024 3.01783 94.4332 3.02474C95.5236 3.04547 96.6149 3.03942 97.7053 3.02819C97.9654 3.0256 98.0421 3.09384 98.0361 3.36936C98.0094 4.60708 98.0283 5.84479 97.9947 7.08251C97.9844 7.48241 98.0636 7.62493 98.4986 7.61024C99.6028 7.57224 100.709 7.59988 101.814 7.58347C102.068 7.58001 102.16 7.62406 102.151 7.90996C102.125 8.80132 102.119 9.69441 102.14 10.5866C102.148 10.8967 102.03 10.9347 101.771 10.9321C100.694 10.9226 99.6166 10.9589 98.5416 10.92C98.0834 10.9036 97.9947 11.053 98.0068 11.4728C98.0361 12.4791 98.0162 13.4879 98.0162 14.495H97.9801L97.9818 14.4958Z" fill="#262626"/>
<path d="M59.3906 14.4958C59.3906 15.6895 59.3493 16.8849 59.4018 18.076C59.4604 19.4113 59.9892 19.9874 61.1925 20.0029C61.872 20.0116 62.5404 19.9606 63.1864 19.7386C63.4181 19.6592 63.5197 19.6963 63.5163 19.977C63.5042 20.8839 63.512 21.7909 63.5206 22.6969C63.5223 22.893 63.4896 23.0156 63.2648 23.0631C61.7342 23.3879 60.1908 23.5062 58.6473 23.2341C56.9126 22.9275 55.9841 21.9204 55.6017 20.0453C55.4751 19.4234 55.4243 18.7929 55.4243 18.158C55.4234 15.8985 55.4113 13.6382 55.4268 11.3787C55.4294 10.9926 55.314 10.8872 54.9402 10.9114C54.426 10.9442 53.9075 10.9088 53.3907 10.9174C53.1349 10.9218 53.0358 10.8984 53.0453 10.5659C53.0694 9.72118 53.1203 8.87128 53.0083 8.02656C52.9695 7.7303 53.0479 7.5757 53.3976 7.59038C53.9419 7.61284 54.4889 7.56706 55.0332 7.58433C55.3622 7.5947 55.4759 7.50142 55.4691 7.15247C55.4449 5.91476 55.4673 4.67704 55.4449 3.43932C55.4389 3.12061 55.5113 3.01783 55.842 3.02474C56.9324 3.04547 58.0237 3.03942 59.1141 3.02819C59.3742 3.0256 59.4509 3.09384 59.4449 3.36936C59.4182 4.60708 59.4371 5.84479 59.4035 7.08251C59.3932 7.48241 59.4724 7.62493 59.9074 7.61024C61.0116 7.57224 62.1175 7.59988 63.2226 7.58347C63.4767 7.58001 63.5688 7.62406 63.5602 7.90996C63.5335 8.80132 63.5275 9.69441 63.549 10.5866C63.5568 10.8967 63.4388 10.9347 63.1795 10.9321C62.1029 10.9226 61.0254 10.9589 59.9505 10.92C59.4922 10.9036 59.4035 11.053 59.4156 11.4728C59.4449 12.4791 59.4251 13.4879 59.4251 14.495H59.3889L59.3906 14.4958Z" fill="#262626"/>
<path d="M157.378 10.3439C157.937 9.38521 158.584 8.59404 159.49 8.05162C160.609 7.38223 161.804 7.16976 163.089 7.42628C163.372 7.48242 163.44 7.59125 163.386 7.85901C163.158 8.98703 162.977 10.1237 162.871 11.269C162.841 11.5799 162.671 11.5264 162.488 11.4961C161.917 11.402 161.343 11.3908 160.772 11.4616C158.759 11.7138 157.592 12.9662 157.449 15.0504C157.293 17.3211 157.418 19.5953 157.398 21.8677C157.394 22.2771 157.591 22.8239 157.318 23.0571C157.082 23.2592 156.553 23.1227 156.153 23.1253C155.364 23.1296 154.574 23.1158 153.786 23.1331C153.515 23.1391 153.455 23.051 153.455 22.7902C153.46 17.8126 153.456 12.8341 153.447 7.85642C153.447 7.65085 153.49 7.58262 153.704 7.58521C154.837 7.59471 155.971 7.59557 157.104 7.58434C157.344 7.58175 157.385 7.67417 157.382 7.88751C157.371 8.67868 157.378 9.46985 157.378 10.3439Z" fill="#262626"/>
<path d="M67.0409 15.3441C67.0409 12.8833 67.0469 10.4226 67.034 7.96184C67.0323 7.63967 67.1244 7.53429 67.4466 7.53948C68.537 7.55675 69.6283 7.55848 70.7187 7.54725C70.9978 7.54466 71.0848 7.62585 71.0848 7.91347C71.0761 12.8496 71.0753 17.7858 71.0848 22.7211C71.0848 23.0433 70.9917 23.147 70.6705 23.1426C69.5947 23.128 68.518 23.1271 67.4414 23.1478C67.1107 23.1539 67.0306 23.0407 67.0323 22.7263C67.0435 20.2656 67.0383 17.8048 67.0383 15.3441H67.0409Z" fill="#262626"/>
<path d="M71.5878 3.51108C71.5921 4.9414 70.3793 6.14371 68.9427 6.13334C67.6584 6.1247 66.4612 4.86885 66.4578 3.52749C66.4535 2.12048 67.6335 0.981232 69.0762 1.00023C70.4207 1.01751 71.5834 2.18008 71.5878 3.51108Z" fill="#262626"/>
<path d="M165.511 15.3512C165.511 12.8913 165.522 10.4314 165.5 7.97237C165.497 7.60875 165.604 7.54397 165.931 7.55001C166.977 7.56815 168.026 7.56556 169.072 7.55001C169.384 7.54569 169.515 7.59752 169.514 7.96633C169.497 12.5985 169.503 17.2298 169.491 21.8619C169.491 22.2696 169.697 22.799 169.423 23.0538C169.175 23.2853 168.656 23.116 168.255 23.1186C167.51 23.1229 166.763 23.1013 166.018 23.1273C165.672 23.1394 165.555 23.0668 165.558 22.6876C165.577 20.2424 165.567 17.7972 165.567 15.3512H165.51H165.511Z" fill="#262626"/>
<path d="M167.492 1.01857C168.88 1.02289 169.983 2.12845 169.979 3.51214C169.975 4.98219 168.87 6.08862 167.418 6.0774C166.057 6.06617 164.953 4.90878 164.958 3.49573C164.962 2.07058 166.041 1.01425 167.492 1.01857Z" fill="#262626"/>
<path d="M176.46 7.59565C176.582 8.29008 176.483 8.99142 176.524 9.72645C176.862 9.39392 177.16 9.05448 177.504 8.76772C179.659 6.96945 182.805 6.78548 185.308 8.33413C187.315 9.5753 188.569 11.358 189.004 13.7004C189.02 13.7877 188.965 13.944 189.153 13.925V17.0344C188.903 17.012 189.004 17.221 188.981 17.322C188.383 19.9538 186.901 21.873 184.406 22.9293C182.179 23.8716 178.776 23.7041 176.842 21.2338C176.8 21.1803 176.788 21.1017 176.762 21.0352L176.651 21.1198C176.651 21.702 176.651 22.2833 176.651 22.8654C176.652 25.2251 176.648 27.5848 176.664 29.9445C176.666 30.2416 176.568 30.3789 176.308 30.4878C175.223 30.9412 174.147 31.4137 173.068 31.8784C172.614 32.0736 172.611 32.0736 172.61 31.5873C172.605 26.8385 172.601 22.0907 172.597 17.3419C172.596 14.2342 172.594 11.1257 172.601 8.01801C172.601 7.86945 172.481 7.66302 172.719 7.56801L172.743 7.58615L172.77 7.57146C173.127 7.57146 173.484 7.57319 173.841 7.57405C174.713 7.63624 175.586 7.61983 176.459 7.59737L176.46 7.59565ZM185.101 15.3899C185.101 15.2318 185.11 15.0729 185.099 14.9157C184.905 11.8789 181.638 9.93202 178.923 11.2941C177.247 12.1345 176.527 13.6313 176.53 15.4719C176.533 18.1063 178.56 20.0946 181.057 19.9503C183.41 19.8147 185.126 17.886 185.1 15.3899H185.101Z" fill="#262626"/>
<path d="M176.46 7.59565C175.587 7.6181 174.714 7.63538 173.843 7.57233C174.716 7.53519 175.589 7.5205 176.46 7.59565Z" fill="#262626"/>
<path d="M171.771 7.57031L171.744 7.58499L171.72 7.56685L171.747 7.54785L171.77 7.57031H171.771Z" fill="#262626"/>
</svg>
