<svg width="20" height="20" viewBox="0 0 20 20" fill="none" xmlns="http://www.w3.org/2000/svg">
<path fill-rule="evenodd" clip-rule="evenodd" d="M16.6595 10H3.34043C3.09863 9.99979 2.86851 10.1039 2.70909 10.2857C2.54968 10.4675 2.47647 10.7093 2.50826 10.949C2.80428 12.9945 4.03241 14.787 5.83305 15.8017V16.6667C5.83305 17.1269 6.20615 17.5 6.66639 17.5H13.3336C13.7938 17.5 14.1669 17.1269 14.1669 16.6667V15.8017C15.9676 14.787 17.1957 12.9945 17.4917 10.949C17.5235 10.7093 17.4503 10.4675 17.2909 10.2857C17.1314 10.1039 16.9013 9.99979 16.6595 10Z" stroke="#08151A" stroke-linecap="round" stroke-linejoin="round"/>
<path d="M4.3835 10.0002C3.69921 9.02339 3.33257 7.85945 3.3335 6.66683C3.3335 6.20659 3.70659 5.8335 4.16683 5.8335C6.74595 5.83427 9.01845 7.52858 9.75541 10.0002" stroke="#08151A" stroke-linecap="round" stroke-linejoin="round"/>
<path d="M10.2326 9.99984C11.6738 8.73795 12.5002 6.91542 12.4998 4.99984C12.4998 4.5396 12.1267 4.1665 11.6665 4.1665C9.7583 4.16619 7.94211 4.9864 6.68066 6.41817" stroke="#08151A" stroke-linecap="round" stroke-linejoin="round"/>
<path d="M15.7138 9.99988C15.9812 8.99399 15.7601 7.92092 15.1168 7.10268C14.4735 6.28445 13.483 5.81627 12.4424 5.83866" stroke="#08151A" stroke-linecap="round" stroke-linejoin="round"/>
</svg>
