<svg width="20" height="20" viewBox="0 0 20 20" fill="none" xmlns="http://www.w3.org/2000/svg">
<path d="M2.5 5.42299C2.5 4.94951 2.57544 4.60766 2.70396 4.27831C2.88711 3.80795 3.25809 3.6966 3.66549 3.99214C3.9886 4.22628 4.24564 4.5317 4.52296 4.81527C5.36378 5.67534 6.19887 6.54061 7.03657 7.4038C8.76139 9.18118 10.4873 10.9586 12.2121 12.7364C12.8999 13.4456 13.5873 14.1558 14.273 14.8676C14.5665 15.172 14.6877 15.5305 14.5451 15.94C14.4021 16.351 14.1081 16.6143 13.6757 16.6934C13.3167 16.759 13.0113 16.6336 12.7574 16.375C11.8505 15.4519 10.9436 14.5294 10.0362 13.6069C9.83531 13.403 9.62667 13.2063 9.43624 12.9935C9.31188 12.8546 9.23019 12.853 9.09543 12.9893C7.98301 14.1116 6.86383 15.2266 5.74569 16.3432C5.47304 16.6159 5.15461 16.772 4.76022 16.6778C4.33357 16.5763 4.04792 16.3078 3.91732 15.8921C3.79245 15.493 3.91472 15.1512 4.20505 14.8609C5.34089 13.7256 6.47464 12.5876 7.61515 11.457C7.74315 11.3301 7.73431 11.2661 7.6188 11.1334C7.45074 10.9409 7.28476 10.8691 7.04646 10.9814C6.65206 11.1677 6.39347 11.034 6.12863 10.6901C5.07241 9.32062 3.9834 7.97666 2.91 6.62074C2.60562 6.23675 2.51041 5.78304 2.5 5.42299ZM3.13634 5.32361C3.12073 5.70395 3.23884 6.04111 3.48234 6.34497C4.45324 7.55781 5.43142 8.76493 6.37474 9.99858C6.63021 10.3331 6.86175 10.4741 7.25406 10.2822C7.4627 10.1802 7.63597 10.2567 7.79362 10.4206C8.27491 10.9227 8.76452 11.4164 9.25153 11.9133C10.544 13.2313 11.8364 14.5492 13.1294 15.8671C13.2204 15.9598 13.3058 16.0581 13.4489 16.0737C13.6455 16.095 13.838 15.9931 13.9275 15.8068C14.0176 15.6195 13.9738 15.4514 13.8344 15.3063C13.4785 14.9363 13.1211 14.5674 12.7636 14.1985C11.0435 12.4258 9.32333 10.6537 7.60319 8.88096C6.34508 7.58435 5.08697 6.2867 3.82835 4.99061C3.69723 4.85533 3.56091 4.72525 3.42563 4.59361C3.3351 4.50516 3.27474 4.51713 3.23572 4.64513C3.16808 4.8647 3.12749 5.08635 3.13686 5.32257L3.13634 5.32361ZM4.50475 15.581C4.49903 15.811 4.61974 15.9441 4.78832 16.0316C4.96522 16.1237 5.13224 16.0742 5.27012 15.9389C5.63122 15.5825 5.98867 15.223 6.34716 14.8645C7.12867 14.083 7.90809 13.2989 8.69428 12.5226C8.81187 12.4066 8.81239 12.3332 8.69219 12.2276C8.56524 12.1162 8.44765 11.9934 8.33526 11.8681C8.24785 11.7708 8.18333 11.7577 8.08239 11.8587C6.93563 13.0106 5.78523 14.159 4.63587 15.3083C4.55418 15.39 4.49955 15.4821 4.50475 15.581Z" fill="#08151A"/>
<path d="M13.2725 10.5418C12.8937 10.5272 12.5638 10.3909 12.3094 10.1037C12.1923 9.97101 12.1065 9.95956 11.9852 10.0995C11.8453 10.2613 11.6871 10.4081 11.531 10.5548C11.3728 10.7036 11.1912 10.7109 11.0622 10.5829C10.9295 10.4513 10.9373 10.279 11.0934 10.1198C11.3572 9.85081 11.6236 9.5839 11.8931 9.3201C12.0643 9.15308 12.2267 9.15724 12.4046 9.32686C12.5222 9.43873 12.6341 9.55684 12.7501 9.67079C13.0826 9.9965 13.4447 9.99702 13.7772 9.66558C14.8126 8.63277 15.8454 7.59788 16.8798 6.56402C16.9485 6.49534 17.0119 6.41782 17.1155 6.40013C17.2481 6.37723 17.3616 6.41053 17.4422 6.52396C17.5239 6.63843 17.5156 6.75654 17.4386 6.86892C17.4058 6.91679 17.3631 6.95842 17.322 6.99952C16.2793 8.04326 15.2346 9.0844 14.1939 10.1302C13.9379 10.3878 13.6356 10.5251 13.2725 10.5407V10.5418Z" fill="#08151A"/>
<path d="M14.4015 3.59462C14.3979 3.73198 14.3042 3.81575 14.2168 3.90369C13.2142 4.9058 12.2121 5.90844 11.21 6.91107C11.1548 6.96622 11.0976 7.01981 11.0471 7.07913C10.8015 7.36842 10.8125 7.71495 11.0731 7.99435C11.4889 8.4387 11.4883 8.45587 11.0617 8.88252C10.8686 9.07555 10.6772 9.27015 10.4815 9.4611C10.3083 9.6302 10.1381 9.64581 10.0008 9.51261C9.86601 9.38202 9.88474 9.18638 10.0518 9.01572C10.211 8.85338 10.3712 8.69157 10.5346 8.53339C10.6038 8.46627 10.6033 8.41632 10.5466 8.33463C10.0965 7.68633 10.1527 7.0911 10.7115 6.53176C11.7272 5.51508 12.7433 4.49892 13.7605 3.48328C13.8157 3.42864 13.8708 3.36933 13.9364 3.3303C14.1351 3.21219 14.4005 3.36621 14.4015 3.59462Z" fill="#08151A"/>
<path d="M15.3922 4.63212C15.3938 4.75023 15.3454 4.83244 15.2741 4.90372C14.502 5.67638 13.7309 6.45008 12.9561 7.22013C12.7901 7.38507 12.6096 7.38767 12.4764 7.24459C12.3468 7.10463 12.3578 6.94593 12.5217 6.78099C13.2881 6.01146 14.0566 5.24452 14.824 4.47655C14.9312 4.36936 15.0509 4.29704 15.2075 4.36832C15.3246 4.42139 15.3834 4.51765 15.3922 4.63212Z" fill="#08151A"/>
<path d="M13.7439 8.38146C13.5201 8.38823 13.363 8.1468 13.465 7.9444C13.4962 7.88249 13.5472 7.82785 13.5966 7.7779C14.3401 7.0323 15.0847 6.28826 15.8293 5.54474C15.8657 5.50832 15.9026 5.46981 15.9463 5.44224C16.0915 5.34962 16.2362 5.35899 16.3517 5.48646C16.4604 5.60614 16.464 5.74506 16.3647 5.87826C16.334 5.91936 16.2955 5.95578 16.259 5.99272C15.5197 6.7326 14.7793 7.47196 14.0399 8.21236C13.9562 8.29613 13.8734 8.37886 13.7439 8.3825V8.38146Z" fill="#08151A"/>
</svg>
