<svg width="20" height="18" viewBox="0 0 20 18" fill="none" xmlns="http://www.w3.org/2000/svg">
<path d="M10.3661 0.366116C10.8543 -0.122039 11.6457 -0.122039 12.1339 0.366117L19.6339 7.86612C19.8683 8.10054 20 8.41848 20 8.75C20 9.08152 19.8683 9.39946 19.6339 9.63389L12.1339 17.1339C11.6457 17.622 10.8543 17.622 10.3661 17.1339C9.87796 16.6457 9.87796 15.8543 10.3661 15.3661L15.7322 10L1.25 10C0.559644 10 0 9.44036 0 8.75C0 8.05965 0.559644 7.5 1.25 7.5L15.7322 7.5L10.3661 2.13388C9.87796 1.64573 9.87796 0.854272 10.3661 0.366116Z" fill="#F3F3F5"/>
</svg>
