<svg width="20" height="20" viewBox="0 0 20 20" fill="none" xmlns="http://www.w3.org/2000/svg">
<path d="M15 4.16667H17.5" stroke="#08151A" stroke-width="1.2" stroke-linecap="round" stroke-linejoin="round"/>
<path d="M2.5 4.16667H9.16667" stroke="#08151A" stroke-width="1.2" stroke-linecap="round" stroke-linejoin="round"/>
<path d="M10.833 9.99967H17.4997" stroke="#08151A" stroke-width="1.2" stroke-linecap="round" stroke-linejoin="round"/>
<path d="M2.5 9.99967H5" stroke="#08151A" stroke-width="1.2" stroke-linecap="round" stroke-linejoin="round"/>
<path d="M15 15.8332H17.5" stroke="#08151A" stroke-width="1.2" stroke-linecap="round" stroke-linejoin="round"/>
<path d="M2.5 15.8332H9.16667" stroke="#08151A" stroke-width="1.2" stroke-linecap="round" stroke-linejoin="round"/>
<path d="M14.5118 2.98813C15.1626 3.63896 15.1626 4.69396 14.5118 5.34479C13.861 5.99563 12.806 5.99563 12.1551 5.34479C11.5043 4.69396 11.5043 3.63896 12.1551 2.98813C12.806 2.33729 13.861 2.33729 14.5118 2.98813" stroke="#08151A" stroke-width="1.2" stroke-linecap="round" stroke-linejoin="round"/>
<path d="M7.84479 8.82162C8.49563 9.47245 8.49563 10.5275 7.84479 11.1783C7.19396 11.8291 6.13896 11.8291 5.48813 11.1783C4.83729 10.5275 4.83729 9.47245 5.48813 8.82162C6.13896 8.17079 7.19396 8.17079 7.84479 8.82162" stroke="#08151A" stroke-width="1.2" stroke-linecap="round" stroke-linejoin="round"/>
<path d="M14.5118 14.6546C15.1626 15.3055 15.1626 16.3605 14.5118 17.0113C13.861 17.6621 12.806 17.6621 12.1551 17.0113C11.5043 16.3605 11.5043 15.3055 12.1551 14.6546C12.806 14.0038 13.861 14.0038 14.5118 14.6546" stroke="#08151A" stroke-width="1.2" stroke-linecap="round" stroke-linejoin="round"/>
</svg>
