<svg width="26" height="26" viewBox="0 0 26 26" fill="none" xmlns="http://www.w3.org/2000/svg">
<path fill-rule="evenodd" clip-rule="evenodd" d="M13.6856 3.82707C15.0104 2.49746 16.808 1.75 18.6831 1.75C20.5581 1.75 22.3559 2.4975 23.6807 3.8272C25.0059 5.15616 25.75 6.95841 25.75 8.83718C25.75 10.7161 25.0058 12.5184 23.6804 13.8474L13.5309 24.0295C13.3902 24.1707 13.199 24.25 12.9997 24.25C12.8004 24.25 12.6092 24.1707 12.4685 24.0295L2.31883 13.8473C-0.439611 11.08 -0.439611 6.59435 2.31883 3.82707C5.0786 1.05846 9.55406 1.05846 12.3138 3.82707L12.9997 4.51513L13.6856 3.82707C13.6856 3.82703 13.6855 3.82711 13.6856 3.82707ZM18.6831 3.25C17.2075 3.25 15.7919 3.8382 14.748 4.88591L13.5309 6.10698C13.3902 6.24815 13.199 6.32749 12.9997 6.32749C12.8004 6.32749 12.6092 6.24815 12.4685 6.10698L11.2515 4.88603C9.07788 2.70548 5.55478 2.70548 3.38119 4.88603C1.20627 7.06792 1.20627 10.6064 3.38119 12.7883L12.9997 22.4376L22.6182 12.7883C23.6626 11.741 24.25 10.3197 24.25 8.83718C24.25 7.3547 23.6628 5.93345 22.6183 4.88616C21.5744 3.83845 20.1586 3.25 18.6831 3.25Z" fill="#08151A"/>
</svg>
