<svg width="55" height="55" viewBox="0 0 55 55" fill="none" xmlns="http://www.w3.org/2000/svg">
<path d="M44.0531 2.96661C44.0615 2.81211 44.0658 2.65653 44.0658 2.5C44.0658 7.16167 47.8449 10.9407 52.5065 10.9407C47.8449 10.9407 44.0658 14.7198 44.0658 19.3815C44.0658 14.7198 40.2867 10.9408 35.625 10.9408C39.81 10.9408 43.2837 7.89503 43.9503 3.89928" stroke="#FF692E" stroke-width="5" stroke-linecap="round" stroke-linejoin="round"/>
<path d="M22.9685 11.6909C22.9688 11.648 22.9689 11.6051 22.9689 11.5621C22.9689 22.8668 32.1332 32.031 43.4378 32.031C32.1332 32.031 22.9689 41.1953 22.9689 52.4999C22.9689 41.1953 13.8047 32.0311 2.5 32.0311C13.6758 32.0311 22.7596 23.0747 22.9653 11.9481" stroke="#FF692E" stroke-width="5" stroke-linecap="round" stroke-linejoin="round"/>
<path d="M25.7803 32.0309C25.7803 33.584 24.5214 34.843 22.9683 34.843C21.4152 34.843 20.1562 33.584 20.1562 32.0309C20.1562 30.4779 21.4152 29.2189 22.9683 29.2189C24.5214 29.2189 25.7803 30.4779 25.7803 32.0309Z" fill="#FF692E"/>
</svg>
