<svg width="27" height="27" viewBox="0 0 27 27" fill="none" xmlns="http://www.w3.org/2000/svg">
<path d="M21.1893 1.72112C21.1933 1.6479 21.1953 1.57418 21.1953 1.5C21.1953 3.70911 22.9862 5.49997 25.1953 5.49997C22.9862 5.49997 21.1953 7.29083 21.1953 9.49994C21.1953 7.29083 19.4044 5.49998 17.1953 5.49998C19.1785 5.49998 20.8247 4.05664 21.1406 2.1631" stroke="#1C8CF3" stroke-width="3" stroke-linecap="round" stroke-linejoin="round"/>
<path d="M11.1998 5.85546C11.1999 5.83514 11.2 5.81479 11.2 5.79443C11.2 11.1516 15.5428 15.4944 20.8999 15.4944C15.5428 15.4944 11.2 19.8372 11.2 25.1944C11.2 19.8372 6.85716 15.4944 1.5 15.4944C6.79607 15.4944 11.1008 11.2501 11.1983 5.97735" stroke="#1C8CF3" stroke-width="3" stroke-linecap="round" stroke-linejoin="round"/>
<path d="M12.5324 15.4945C12.5324 16.2304 11.9358 16.8271 11.1998 16.8271C10.4638 16.8271 9.86719 16.2304 9.86719 15.4945C9.86719 14.7585 10.4638 14.1619 11.1998 14.1619C11.9358 14.1619 12.5324 14.7585 12.5324 15.4945Z" fill="#1C8CF3"/>
</svg>
