<svg width="16" height="16" viewBox="0 0 16 16" fill="none" xmlns="http://www.w3.org/2000/svg">
<path d="M8.00638 16C6.6059 16 5.231 15.6291 4.01598 14.9257L0.895282 16L1.53477 12.7002C0.530774 11.3253 0 9.70743 0 8C0 3.58753 3.58752 0 7.99998 0C12.4124 0 16 3.58753 16 8C16.0128 12.4061 12.4252 16 8.00638 16ZM4.16306 13.6147L4.40607 13.7682C5.49319 14.4524 6.74019 14.8106 8.01277 14.8106C11.7666 14.8106 14.8233 11.7538 14.8233 8C14.8233 4.2462 11.7666 1.18945 8.01277 1.18945C4.25259 1.18305 1.19584 4.23981 1.19584 7.9936C1.19584 9.52198 1.69464 10.9672 2.64108 12.1823L2.80735 12.3933L2.45563 14.1966L4.16306 13.6147Z" fill="#989EAA"/>
<path d="M3.97116 4.92404C3.97116 4.92404 4.43799 4.10549 4.82168 4.05433C5.20537 4.00957 5.69778 4.00957 5.83207 4.25897C5.96636 4.50837 6.56108 5.9664 6.56108 5.9664C6.56108 5.9664 6.6634 6.21581 6.50353 6.45881C6.34366 6.69542 5.99194 7.04714 5.99194 7.04714C5.99194 7.04714 5.7937 7.29654 5.99194 7.56513C6.19018 7.83371 6.49074 8.31972 7.11744 8.94642C7.74414 9.57312 8.94637 10.0208 8.94637 10.0208C8.94637 10.0208 9.11903 10.0463 9.22775 9.93763C9.33646 9.82891 9.93118 9.08711 9.93118 9.08711C9.93118 9.08711 10.123 8.8441 10.4364 8.98479C10.7497 9.13187 12.1246 9.81612 12.1246 9.81612C12.1246 9.81612 12.2845 9.87368 12.2845 10.1167C12.2845 10.3597 12.1886 10.9544 11.9839 11.1527C11.7857 11.3509 11.1974 11.9712 10.3149 11.9712C9.43238 11.9712 7.33486 11.255 6.21576 10.1359C5.09666 9.01676 4.10545 7.88487 3.86884 6.85529C3.65142 5.81293 3.68339 5.3461 3.97116 4.92404Z" fill="#989EAA"/>
</svg>
