<svg width="670" height="445" viewBox="0 0 670 445" fill="none" xmlns="http://www.w3.org/2000/svg">
<g clip-path="url(#clip0_172_5326)">
<path d="M336.114 255.243C322.893 220.061 309.806 184.83 296.853 149.547C294.816 144 292.144 140.819 285.912 140.844C264.959 140.938 244.003 141.167 223.044 141.531C210.01 141.718 196.97 141.894 183.919 142.057C177.693 142.136 172.312 142.703 173.641 150.525L176.021 157.233L182.128 172.66L185.264 180.446L202.61 224.806L219.172 256.807L219.968 258.586C220.366 259.714 220.952 260.767 221.704 261.697C225.501 266.313 232.357 264.999 238.056 264.98C242.177 265.105 247.096 264.892 250.342 264.892C276.656 264.885 302.972 264.873 329.288 264.861C334.613 264.855 338.025 260.325 336.114 255.243Z" fill="#1C8CF3"/>
<path d="M503.905 185.664C501.548 199.844 493.729 210.814 481.099 218.036C480.106 208.71 478.704 199.466 476.891 190.305C475.402 181.869 473.265 174.534 470.483 168.3C463.482 152.613 446.492 148.277 431.447 143.646C430.016 143.203 428.758 142.359 427.608 141.51C425.113 138.648 423.345 135.287 422.306 131.429C418.339 116.72 416.365 102.57 414.953 87.7317L415.188 86.995C415.235 86.8417 415.397 86.7545 415.552 86.8009C422.981 88.9985 429.476 83.8104 430.062 76.3433C430.304 73.3219 429.577 70.867 427.879 68.9802C424.434 65.1475 418.777 65.6059 415.629 69.8913C415.539 70.0122 415.477 69.9995 415.438 69.8547L415.307 69.3542C415.29 69.1728 415.13 69.0379 414.948 69.0547C414.92 69.0575 414.892 69.0632 414.865 69.073C409.493 70.2751 404.559 68.2196 400.151 65.3429C397.479 63.5939 387.827 64.1507 384.472 64.2983C384.313 64.3053 384.157 64.2688 384.018 64.1915C383.711 64.0227 383.469 63.7584 383.326 63.4393C383.279 63.3422 383.246 63.2382 383.227 63.1314C383.227 63.1032 383.218 63.0751 383.215 63.047V63.0343C383.213 62.9936 383.213 62.9528 383.215 62.912C383.213 62.8783 383.213 62.8459 383.215 62.8122C383.215 62.7883 383.218 62.7644 383.223 62.7405C383.226 62.711 383.23 62.6828 383.239 62.6547C383.251 62.5929 383.27 62.531 383.292 62.472C383.299 62.4509 383.309 62.4298 383.319 62.4101C383.36 62.3131 383.415 62.2217 383.483 62.1415C383.507 62.1106 383.534 62.0811 383.561 62.053C383.665 61.9447 383.789 61.8575 383.925 61.7957C383.955 61.7802 383.986 61.7676 384.018 61.7563C384.146 61.7071 384.281 61.6804 384.417 61.6776C387.199 61.6087 389.981 61.7872 392.732 62.209V62.1261C392.732 62.0909 392.735 62.0558 392.741 62.022C392.776 61.7901 392.929 61.6607 393.202 61.6382C393.305 61.6298 393.402 61.5904 393.483 61.5271C393.7 61.35 393.732 61.0308 393.555 60.8143C389.322 55.7233 386.465 49.6326 385.257 43.1229C385.249 43.0864 385.234 43.0498 385.216 43.0175C385.123 42.8769 384.936 42.8361 384.794 42.9247C384.513 43.0976 384.241 43.2677 383.966 43.4322L383.888 43.4786C383.728 43.5742 383.569 43.667 383.409 43.7598C383.174 43.9004 382.939 44.0284 382.706 44.1605C382.565 44.2407 382.424 44.318 382.284 44.3953C382.143 44.4727 382.002 44.5472 381.862 44.6245L381.44 44.8523C381.008 45.0842 380.575 45.3106 380.145 45.5398C379.714 45.769 379.326 45.9616 378.921 46.1809C378.82 46.2315 378.72 46.2864 378.619 46.3398C378.243 46.5394 377.865 46.7419 377.481 46.9486C375.943 47.7626 374.461 48.6751 373.042 49.6804C372.924 49.7633 372.803 49.8505 372.683 49.9433C372.446 50.1162 372.209 50.3004 371.98 50.4902L363.682 59.989C363.563 60.2477 363.45 60.5106 363.339 60.7735C363.281 60.9043 363.228 61.0393 363.176 61.1728C362.907 61.8393 362.665 62.5197 362.443 63.2157C361.821 63.6839 361.724 64.4291 362.152 65.4498C362.793 66.9809 361.184 76.3335 361.698 81.3289V81.3359C361.698 81.4962 361.716 81.6551 361.726 81.8154C361.736 81.9756 361.744 82.1092 361.754 82.2568C361.764 82.4045 361.772 82.531 361.785 82.6674C361.793 82.7785 361.8 82.8867 361.81 82.995C361.824 83.1651 361.84 83.3352 361.856 83.5053C361.88 83.7486 361.906 83.9932 361.932 84.235C361.963 84.5162 361.997 84.7974 362.032 85.0786C362.067 85.3598 362.103 85.6045 362.143 85.866C362.172 86.0712 362.202 86.2779 362.236 86.4846C362.236 86.5226 362.247 86.5647 362.255 86.6027C362.288 86.822 362.326 87.0386 362.366 87.2565C362.405 87.4744 362.443 87.6937 362.484 87.9117C362.525 88.1296 362.572 88.3658 362.624 88.5893C362.686 88.8959 362.751 89.2009 362.82 89.5046C362.847 89.627 362.875 89.7507 362.906 89.8716C362.941 90.0445 362.983 90.2147 363.027 90.3848C363.058 90.5141 363.089 90.6449 363.125 90.777C363.181 91.0034 363.24 91.2312 363.3 91.4561C363.367 91.7106 363.44 91.9665 363.515 92.2224C363.515 92.2364 363.515 92.2519 363.525 92.2688C363.61 92.557 363.695 92.8438 363.783 93.1292L364.616 95.3591C369.336 106.404 378.244 112.804 390.916 109.742C392.163 117.956 393.323 126.009 394.397 133.904C395.053 138.74 391.812 141.126 387.675 142.788L368.688 149.855L363.096 153.001L360.705 154.812C358.267 156.755 356.104 159.245 354.218 162.281L353.746 161.297C348.388 151.64 343.459 141.894 340.642 131.168C338.314 119.413 339.808 107.93 344.082 96.7988L348.796 85.0252C350.627 80.8944 352.241 76.6709 353.629 72.3714C355.613 66.2161 356.453 58.1908 357.622 52.9254C359.564 44.1549 362.648 35.2916 368.918 28.5669L371.004 26.583C376.302 21.6762 382.701 18.1809 390.201 16.0987C398.417 14.0656 407.043 13.9714 416.079 15.8175C434.63 19.6136 449.437 31.6024 454.647 50.1711C456.652 57.2923 457.221 65.6944 458.534 73.3584C461.32 92.0466 466.471 108.868 477.562 124.269C482.112 130.582 486.563 136.961 491.04 143.32C500.013 156.082 506.549 169.727 503.905 185.664Z" fill="#0E193D"/>
<path d="M361.946 74.2047L362.291 74.4859C361.964 74.5478 361.82 74.7348 361.858 75.0483C361.584 75.6697 361.511 76.4037 361.639 77.2515C361.6 78.6195 361.615 79.9777 361.685 81.3288C361.172 76.3334 362.14 65.4497 362.14 65.4497L361.765 73.7871C361.754 73.9474 361.822 74.1035 361.946 74.2047Z" fill="#0E193D"/>
<path d="M371.965 50.4932C372.2 50.3034 372.436 50.1192 372.668 49.9463C372.433 50.1206 372.197 50.3006 371.965 50.4932Z" fill="#0E193D"/>
<path d="M373.031 49.6791C374.45 48.6738 375.933 47.7613 377.47 46.9473C375.936 47.7655 374.453 48.678 373.031 49.6791Z" fill="#0E193D"/>
<path d="M393.472 61.5257C393.39 61.5889 393.293 61.6283 393.191 61.6367C392.918 61.6592 392.769 61.7886 392.729 62.0206V61.9812C385.295 57.9208 384.042 48.519 383.938 43.4308C384.219 43.2663 384.49 43.0962 384.766 42.9232C384.908 42.8346 385.095 42.8754 385.188 43.016C385.206 43.0483 385.22 43.0849 385.229 43.1215C386.437 49.6311 389.293 55.7218 393.527 60.8128C393.707 61.0251 393.683 61.3429 393.472 61.5257Z" fill="#0E193D"/>
<path d="M362.14 65.4483C361.713 64.4247 361.81 63.6796 362.431 63.2142C364.204 62.6771 368.62 61.1418 368.98 63.8131C369.06 64.4008 368.649 64.9421 368.061 65.0237H368.06C368.036 65.0279 368.014 65.0307 367.99 65.0321L362.14 65.4483Z" fill="#0E193D"/>
<path d="M415.554 86.801C422.983 88.9985 429.478 83.8104 430.065 76.3433C430.307 73.3219 429.579 70.867 427.882 68.9802C424.436 65.1475 418.779 65.6059 415.632 69.8913C415.542 70.0122 415.48 69.9995 415.44 69.8547L415.31 69.3542C415.293 69.1728 415.132 69.0379 414.951 69.0547C414.923 69.0575 414.895 69.0632 414.868 69.073C409.495 70.2751 404.562 68.2196 400.154 65.343C397.482 63.5939 387.829 64.1507 384.475 64.2983C384.316 64.3053 384.16 64.2688 384.02 64.1915C383.714 64.0227 383.472 63.7584 383.328 63.4393C383.282 63.3423 383.248 63.2382 383.23 63.1314C383.23 63.1032 383.22 63.0751 383.217 63.047V63.0343C383.216 63.0048 383.216 62.9753 383.217 62.9458V62.912C383.216 62.8783 383.216 62.8459 383.217 62.8122C383.217 62.7883 383.22 62.7644 383.226 62.7405C383.229 62.711 383.233 62.6829 383.241 62.6547C383.254 62.5929 383.272 62.531 383.295 62.472C383.302 62.4509 383.312 62.4298 383.321 62.4101C383.362 62.3131 383.417 62.2217 383.486 62.1416C383.51 62.1106 383.537 62.0811 383.563 62.053C383.667 61.9447 383.791 61.8575 383.928 61.7957C383.957 61.7802 383.988 61.7676 384.02 61.7563C384.148 61.7071 384.283 61.6804 384.42 61.6776C387.202 61.6087 389.984 61.7872 392.735 62.209V62.1261C392.735 62.0909 392.738 62.0558 392.743 62.022C392.778 61.7901 392.932 61.6607 393.205 61.6382C393.307 61.6298 393.404 61.5904 393.486 61.5271C393.702 61.35 393.735 61.0308 393.558 60.8143C389.324 55.7233 386.468 49.6326 385.26 43.1229C385.251 43.0864 385.237 43.0498 385.219 43.0175C385.126 42.8769 384.939 42.8361 384.797 42.9247C384.516 43.0976 384.244 43.2677 383.968 43.4322L383.891 43.4786C383.731 43.5742 383.572 43.667 383.411 43.7598C383.177 43.8976 382.942 44.0312 382.708 44.1605C382.568 44.2407 382.427 44.318 382.286 44.3953C382.146 44.4727 382.005 44.5472 381.864 44.6245L381.442 44.8523C381.011 45.0843 380.577 45.3106 380.147 45.5398C379.739 45.7549 379.331 45.9616 378.923 46.1809C378.822 46.2315 378.722 46.2864 378.621 46.3398L377.483 46.9486C375.946 47.7626 374.464 48.6751 373.045 49.6804C372.926 49.769 372.808 49.8561 372.686 49.9433C372.448 50.1162 372.212 50.3004 371.983 50.4902L363.685 59.989C363.565 60.2477 363.453 60.5106 363.341 60.7735L363.178 61.1728C362.91 61.8393 362.668 62.5198 362.446 63.2157C364.216 62.68 368.634 61.1419 368.995 63.8147V63.885C369.036 64.4769 368.589 64.9901 367.997 65.0322L362.147 65.454C362.147 65.454 361.18 76.3377 361.693 81.3331V81.3401C361.693 81.5004 361.711 81.6593 361.721 81.8196C361.731 81.9799 361.74 82.1134 361.749 82.2611C361.759 82.4087 361.768 82.5352 361.78 82.6716C361.789 82.7827 361.796 82.8909 361.806 82.9992C361.821 83.1693 361.835 83.3394 361.852 83.5096C361.876 83.7528 361.901 83.9974 361.928 84.2393C361.959 84.5205 361.993 84.8017 362.028 85.0829C362.063 85.364 362.098 85.6087 362.139 85.8702C362.167 86.0755 362.198 86.2822 362.232 86.4888C362.232 86.5268 362.243 86.569 362.25 86.6069C362.287 86.8235 362.322 87.0428 362.361 87.2607C362.401 87.4786 362.439 87.698 362.479 87.9159C362.52 88.1338 362.565 88.37 362.62 88.5936C362.682 88.9001 362.747 89.2052 362.815 89.5089C362.842 89.634 362.87 89.7549 362.901 89.8758C362.936 90.0459 362.979 90.2161 363.022 90.389C363.053 90.5212 363.084 90.6491 363.121 90.7813C363.177 91.0076 363.236 91.2354 363.295 91.4604C363.365 91.7148 363.436 91.9707 363.51 92.2266C363.51 92.2407 363.51 92.2561 363.52 92.273C363.606 92.5612 363.69 92.8481 363.779 93.1335L364.611 95.3633C369.332 106.409 378.24 112.809 390.912 109.746C392.158 117.96 393.318 126.014 394.393 133.908C395.048 138.745 391.808 141.131 387.67 142.793C395.968 153.527 413.995 150.441 423.94 144.255C425.145 143.504 426.144 142.267 427.63 141.51C425.135 138.648 423.367 135.287 422.328 131.429C418.362 116.72 416.387 102.57 414.975 87.7317L415.21 86.995C415.256 86.8502 415.407 86.7658 415.554 86.801ZM385.06 77.156V77.1419L385.068 77.0983C385.065 77.1166 385.063 77.1349 385.06 77.156Z" fill="#FFBFA7"/>
<path d="M267.144 122.809L269.635 122.757C263.467 123.039 262.962 130.309 267.364 133.387C267.444 133.446 267.465 133.557 267.41 133.64C267.378 133.686 267.326 133.714 267.27 133.714C241.447 134.014 215.618 134.316 189.781 134.621C186.655 134.662 184.738 133.824 183.78 130.85C183.734 130.71 183.53 130.503 183.164 130.224C183.391 130.364 183.503 130.303 183.503 130.043C183.538 125.935 185.615 123.851 189.734 123.794C215.577 123.415 241.381 123.088 267.144 122.809Z" fill="#3D9CF3"/>
<path d="M351.11 270.59C346.877 259.264 342.594 247.955 338.264 236.665C338.248 236.625 338.231 236.591 338.216 236.552L335.544 229.276L335.634 229.15L334.472 225.562C334.459 225.524 334.442 225.488 334.42 225.454C334.341 225.339 334.209 225.271 334.07 225.277L331.434 218.118L330.607 215.692L318.697 184.199C313.005 169.051 307.373 153.879 301.802 138.682C299.713 132.983 295.305 128.927 288.945 128.911C284.093 128.897 279.213 128.937 274.306 129.031C274.131 129.031 274.05 128.949 274.061 128.775C274.22 125.339 272.747 123.331 269.643 122.75C263.475 123.032 262.97 130.302 267.372 133.38C267.42 133.415 267.448 133.47 267.449 133.529C267.452 133.624 267.376 133.704 267.279 133.707C267.276 133.707 267.275 133.707 267.272 133.707C241.45 134.007 215.62 134.309 189.784 134.614C186.657 134.655 184.74 133.817 183.783 130.843C183.736 130.703 183.532 130.496 183.166 130.218L166.073 130.554C166.004 130.554 165.935 130.568 165.87 130.593C165.569 130.714 165.423 131.054 165.541 131.355L173.351 150.843C173.673 150.649 173.773 150.542 173.632 150.526C172.303 142.703 177.684 142.136 183.911 142.057C196.955 141.894 209.996 141.719 223.035 141.532C244 141.167 264.958 140.938 285.91 140.844C292.142 140.819 294.814 144 296.851 149.547C309.803 184.829 322.89 220.061 336.112 255.243C338.023 260.325 334.611 264.855 329.286 264.861C302.97 264.875 276.656 264.885 250.34 264.892C247.094 264.892 242.175 265.105 238.054 264.98C239.867 268.83 241.393 273.709 243.426 276.611C246.239 280.642 250.313 282.637 255.648 282.599C285.37 282.582 314.92 282.563 344.296 282.542C345.712 282.542 347.313 282.625 348.61 282.121C354.226 279.912 352.892 275.349 351.11 270.59Z" fill="#0E193D"/>
<path d="M427.608 141.51C428.759 142.354 430.015 143.197 431.448 143.646C446.497 148.276 463.482 152.613 470.484 168.3C473.266 174.532 475.402 181.866 476.892 190.303C478.704 199.466 480.108 208.71 481.101 218.036L482.32 228.556C484.109 246.101 485.837 263.645 487.503 281.188C489.526 302.419 491.609 324.502 470.609 337.287C468.183 338.739 465.48 339.67 462.674 340.021C462.235 340.01 461.8 340.107 461.408 340.303C451.947 341.807 443.085 338.24 435.598 332.589C429.01 327.622 422.778 322.201 416.949 316.363L408.15 307.671C408.028 307.543 407.853 307.476 407.676 307.488C401.052 307.798 396.727 307.82 394.703 307.556C391.328 307.119 387.54 307.103 384.608 306.583C381.34 306.009 378.141 305.103 375.058 303.879C374.37 302.508 373.806 301.08 373.37 299.609C371.12 292.065 368.732 284.602 366.206 277.221C366.173 277.122 366.068 277.069 365.969 277.101C365.914 277.119 365.871 277.162 365.851 277.215C356.954 300.438 341.033 330.705 310.041 323.275C296.1 319.931 285.3 310.868 274.833 301.302C268.307 295.33 261.909 289.094 255.641 282.594C285.363 282.577 314.912 282.559 344.289 282.538C345.705 282.538 347.306 282.621 348.603 282.116C354.218 279.907 352.885 275.345 351.103 270.587C346.87 259.261 342.587 247.952 338.257 236.662C338.079 236.145 337.804 235.667 337.444 235.256C337.306 235.107 337.088 235.068 336.907 235.158C335.704 235.765 334.338 235.971 333.009 235.746C332.473 235.66 332.109 235.157 332.194 234.621C332.212 234.499 332.254 234.381 332.317 234.274L334.005 231.389C334.424 231.614 334.929 231.609 335.344 231.377C335.483 231.29 335.667 231.324 335.766 231.456C336.39 232.159 337.234 232.123 338.016 231.607C341.438 229.357 344.882 226.232 349.092 225.821C351.304 225.606 353.525 225.388 355.754 225.164C356.043 225.136 356.079 225.221 355.864 225.415C355.704 225.543 355.514 225.627 355.311 225.659C353.23 226.091 351.123 226.389 349.003 226.555C344.981 226.836 340.939 230.763 337.843 233.534C337.679 233.661 337.634 233.891 337.739 234.07L338.209 235.054C338.272 235.204 338.42 235.303 338.583 235.303C339.542 235.355 340.172 235.314 340.475 235.183C345.397 233.095 347.451 232.215 352.233 232.793C352.352 232.793 352.449 232.89 352.449 233.01C352.449 233.022 352.449 233.035 352.446 233.048C352.098 237.641 351.801 244.073 356.041 247.13C359.667 249.745 363.777 251.827 367.227 254.312C368.591 255.299 369.983 256.353 371.404 257.474C378.212 266.185 385.291 274.849 392.64 283.463C392.848 283.706 393.191 283.784 393.484 283.652C400.001 280.755 405.737 271.491 405.237 264.381C405.213 264.016 405.04 263.677 404.758 263.445C397.024 257.042 389.463 250.358 382.075 243.394C376.553 238.181 371.447 229.484 368.134 223.785C364.726 217.918 361.282 212.075 357.802 206.255C356.396 203.902 354.929 202.312 353.4 201.485C349.386 199.316 345.463 197.046 341.632 194.679C341.451 194.74 341.335 194.618 341.283 194.309C341.487 194.243 341.552 194.077 341.48 193.814C341.432 193.648 341.437 193.471 341.496 193.309C344.788 183.619 348.527 174.109 352.708 164.779C353.072 163.957 353.891 163.269 354.213 162.285C356.103 159.247 358.265 156.758 360.699 154.816L363.09 153.004L368.681 149.859L387.668 142.791C395.966 153.526 413.992 150.442 423.937 144.255C425.129 143.505 426.123 142.265 427.608 141.51Z" fill="#FF692E"/>
<path d="M173.633 150.525L176.013 157.233L173.352 150.843C173.674 150.649 173.768 150.542 173.633 150.525Z" fill="#3447C1"/>
<path d="M277.471 164.843L202.467 165.967C200.938 165.499 199.672 164.799 198.669 163.868C195.013 160.457 197.143 154.932 202.067 154.87C210.704 154.755 219.345 154.642 227.99 154.531C244.961 154.292 261.934 154.057 278.91 153.828C283.869 153.761 288.506 159.843 283.499 163.4C282.088 164.396 280.08 164.876 277.471 164.843Z" fill="#FEFEFF"/>
<path d="M238.647 185.945L211.76 186.351C208.777 185.976 206.76 184.643 205.712 182.351C204.577 179.888 205.608 177.321 207.993 176.175C209.118 175.633 210.349 175.701 211.615 175.68C235.742 175.311 259.87 174.932 283.997 174.54C291.452 174.42 293.131 185.028 283.346 185.174C269.193 185.387 255.04 185.581 240.887 185.758C240.137 185.768 239.388 185.831 238.647 185.945Z" fill="#FEFEFF"/>
<path d="M339.445 199.21C339.473 199.144 339.569 199.112 339.726 199.116C343.092 201.141 346.467 203.155 349.853 205.162C352.061 206.469 353.958 212.062 354.739 214.412C351.027 213.749 347.283 213.291 343.522 213.037C341.397 212.896 340.804 212.615 339.423 214.057C337.617 215.932 335.825 217.821 334.046 219.723C332.655 221.218 332.572 222.516 333.483 224.234C333.705 224.654 334.227 224.816 334.649 224.595C334.69 224.573 334.728 224.549 334.764 224.521L342.162 218.98C342.552 218.69 343.032 218.547 343.517 218.573L355.349 219.224C355.529 219.219 355.683 219.352 355.702 219.531L355.75 219.766C355.802 220.026 355.695 220.142 355.432 220.114C353.082 219.864 347.503 218.968 345.512 220.083C341.596 222.284 338.296 225.305 335.614 229.151L334.452 225.562C334.383 225.346 334.151 225.226 333.935 225.295C333.897 225.308 333.86 225.326 333.828 225.349C332.452 226.281 330.655 227.14 328.961 226.406C328.417 226.168 328.17 225.536 328.406 224.992C328.458 224.872 328.531 224.764 328.622 224.671L331.988 221.245C332.115 221.12 332.172 220.941 332.144 220.765L332.03 219.922L337.6 204.064L339.445 199.21Z" fill="#FF692E"/>
<path d="M249.995 217.886L223.68 218.495C221.212 218.182 218.944 217.51 217.522 215.359C215.089 211.704 217.679 207.74 221.842 207.626C232.764 207.326 243.691 207.096 254.62 206.94C256.385 206.915 257.706 207.096 258.579 207.486C262.518 209.236 263.837 214.423 259.743 216.746C257.429 218.052 252.807 217.719 249.995 217.886Z" fill="#FEFEFF"/>
<path d="M405.227 264.381C405.203 264.016 405.03 263.677 404.747 263.445C397.013 257.042 389.452 250.358 382.064 243.394C376.543 238.181 371.437 229.484 368.124 223.785C364.716 217.918 361.271 212.075 357.792 206.255C356.385 203.902 354.918 202.312 353.39 201.485C349.376 199.316 345.453 197.046 341.622 194.679L339.054 193.125C335.628 192 335.232 194.672 335.232 194.672C334.107 196.218 342.049 200.501 342.049 200.501C344.647 202.057 347.251 203.608 349.862 205.156C351.468 206.108 352.91 209.326 353.876 211.913C350.951 211.251 346.499 210.479 342.981 210.901C341.201 211.129 339.543 211.926 338.253 213.173L331.037 220.054C328.684 222.295 327.368 225.443 327.548 228.688C327.73 231.972 329.095 235.659 333.877 237.148C335.702 237.707 337.661 237.654 339.455 236.997C342.31 235.968 347.741 234.376 352.329 235.145C352.124 239.436 352.43 244.518 356.058 247.131C359.685 249.745 363.793 251.829 367.243 254.313C368.607 255.3 370 256.355 371.42 257.475C378.218 266.185 385.291 274.849 392.639 283.463C392.848 283.706 393.191 283.784 393.483 283.652C399.991 280.755 405.726 271.491 405.227 264.381Z" fill="#FFBFA7"/>
<path d="M206.699 214.234C208.236 214.978 209.642 215.971 210.857 217.171L208.007 215.735L206.699 214.234Z" fill="#3447C1"/>
<path d="M294.962 243.722C297.88 243.722 300.245 241.358 300.245 238.441C300.245 235.524 297.88 233.16 294.962 233.16C292.045 233.16 289.68 235.524 289.68 238.441C289.68 241.358 292.045 243.722 294.962 243.722Z" fill="#FEDBAD"/>
<path d="M276.927 244.077C279.353 242.488 279.998 239.181 278.366 236.691C276.734 234.2 273.445 233.469 271.018 235.057C268.592 236.646 267.948 239.953 269.579 242.443C271.211 244.934 274.5 245.665 276.927 244.077Z" fill="#FEDBAD"/>
<path d="M253.06 244.296C255.785 243.168 257.079 240.045 255.95 237.321C254.822 234.597 251.698 233.303 248.973 234.432C246.248 235.56 244.954 238.683 246.083 241.407C247.211 244.131 250.335 245.424 253.06 244.296Z" fill="#FEECEB"/>
<path d="M375.153 310.691L375.575 311.676C375.117 313.61 374.723 315.116 374.392 316.192C362.843 353.657 354.843 391.711 349.217 430.497L345.295 430.478C345.1 430.478 345.013 430.375 345.034 430.18C347.785 406.278 351.171 382.507 356.427 359.013C357.192 355.576 358.328 351.853 359.255 348.213C363.779 334.523 369.485 323.179 375.153 310.691Z" fill="#3D9CF3"/>
<path d="M408.151 307.676C408.029 307.548 407.854 307.48 407.677 307.493C401.053 307.802 396.728 307.825 394.704 307.56C391.328 307.123 387.541 307.108 384.608 306.587C381.341 306.014 378.142 305.107 375.059 303.884L375.153 310.692L375.575 311.676C381.977 314.509 390.515 315.67 397.435 316.358C397.563 316.452 397.86 316.488 398.325 316.467L404.249 316.727C404.556 316.667 404.872 316.701 405.161 316.822L416.955 316.373L408.151 307.676ZM396.856 314.181C397.013 314.296 397.19 314.385 397.378 314.44C397.192 314.384 397.016 314.296 396.86 314.181H396.856Z" fill="#0E193D"/>
<path d="M375.57 311.67C381.972 314.503 390.511 315.664 397.43 316.352C397.287 317.838 397.28 319.787 397.409 322.201C397.736 328.339 398.224 333.581 398.873 337.924C399.156 339.886 399.845 341.769 400.9 343.449C400.921 343.507 400.983 343.536 401.041 343.515C401.098 343.494 401.128 343.432 401.107 343.375C401.104 343.368 401.101 343.361 401.097 343.355C400.307 341.048 399.796 338.653 399.577 336.225C398.989 329.65 398.57 323.061 398.321 316.461L404.245 316.722C404.245 317.91 403.885 319.013 403.869 320.128C403.637 334.68 404.65 349.225 406.896 363.604C408.136 371.621 410.607 379.399 414.22 386.662C414.664 387.557 414.783 388.272 414.585 389.193C413.116 396.082 411.454 402.916 411.24 409.994C411.167 412.376 411.354 415.687 411.803 419.926C412.178 423.435 412.567 426.957 412.97 430.492H349.219C354.845 391.708 362.837 353.654 374.394 316.186C374.72 315.109 375.113 313.603 375.57 311.67Z" fill="#328EE2"/>
<path d="M416.951 316.363C422.779 322.198 429.01 327.616 435.596 332.581C443.083 338.231 451.945 341.798 461.406 340.294C471.345 359.045 476.801 379.086 477.774 400.415C478.224 410.434 478.134 420.471 477.503 430.48L422.582 430.496C422.419 427.134 422.08 421.914 421.567 414.834C420.928 406.061 419.18 397.805 416.321 390.065C413.585 382.65 410.414 375.036 408.867 367.478C405.516 351.064 404.798 333.69 405.152 316.811L416.951 316.363Z" fill="#3D9CF3"/>
<path d="M397.43 316.352C397.558 316.446 397.854 316.482 398.32 316.461C398.57 323.061 398.989 329.649 399.576 336.225C399.795 338.653 400.306 341.048 401.096 343.355C401.127 343.407 401.112 343.474 401.06 343.505C401.008 343.536 400.94 343.521 400.909 343.469C400.905 343.463 400.902 343.456 400.899 343.449C399.844 341.769 399.155 339.886 398.873 337.923C398.223 333.579 397.735 328.338 397.408 322.2C397.279 319.788 397.286 317.838 397.43 316.352Z" fill="#1C8CF3"/>
<path d="M404.246 316.722C404.552 316.661 404.869 316.695 405.157 316.816C404.803 333.695 405.521 351.068 408.872 367.483C410.419 375.04 413.586 382.655 416.326 390.07C419.184 397.81 420.932 406.067 421.572 414.839C422.085 421.92 422.423 427.14 422.587 430.5L412.981 430.489C412.578 426.954 412.189 423.432 411.814 419.923C411.362 415.683 411.174 412.372 411.251 409.991C411.465 402.914 413.127 396.081 414.596 389.19C414.794 388.269 414.675 387.555 414.232 386.659C410.618 379.396 408.147 371.618 406.907 363.601C404.661 349.222 403.648 334.677 403.88 320.126C403.886 319.013 404.246 317.91 404.246 316.722Z" fill="#1C8CF3"/>
<path d="M470.612 337.282C485.87 366.874 489.284 397.278 486.97 430.192C486.977 430.33 486.87 430.448 486.732 430.453C486.718 430.453 486.704 430.453 486.689 430.452L479.025 430.421C479.886 417.329 480.104 403.892 478.671 391.075C476.666 373.125 471.337 356.105 462.684 340.017C465.487 339.664 468.187 338.733 470.612 337.282Z" fill="#3D9CF3"/>
<path d="M462.68 340.017C471.34 356.106 476.67 373.125 478.669 391.075C480.102 403.892 479.884 417.329 479.023 430.421C478.522 430.289 477.995 430.312 477.507 430.484C478.138 420.475 478.228 410.438 477.778 400.419C476.807 379.09 471.35 359.05 461.41 340.298C461.804 340.101 462.24 340.006 462.68 340.017Z" fill="#3447C1"/>
<path d="M414.409 36.8792L390.409 36.3027L384.253 41.831C384.09 40.2718 383.831 38.5425 383.465 38.5425C382.807 38.5425 368.509 42.2964 368.509 42.2964L361.536 48.8834L357.77 59.3509L361.131 64.7526C361.131 64.7526 369.911 52.8623 383.297 44.9382C382.99 52.4968 384.659 74.7182 415.816 68.799L414.409 36.8792Z" fill="#0E193D"/>
<path d="M207.813 203.005C201.399 206.123 198.968 223.251 198.968 223.251C198.546 225.8 198.573 228.471 198.716 230.722C198.699 234.424 199.796 238.019 202.008 241.509C205.976 247.756 211.096 253.193 217.094 257.529L221.993 262.028L216.25 249.077L223.652 222.977C223.948 198.402 207.813 203.005 207.813 203.005Z" fill="#FFBFA7"/>
<path d="M366.191 80.1675C367.737 80.1675 368.991 78.0663 368.991 75.4744C368.991 72.8824 367.737 70.7812 366.191 70.7812C364.644 70.7812 363.391 72.8824 363.391 75.4744C363.391 78.0663 364.644 80.1675 366.191 80.1675Z" fill="#0E193D"/>
<path d="M387.859 80.1675C389.405 80.1675 390.659 78.0663 390.659 75.4744C390.659 72.8824 389.405 70.7812 387.859 70.7812C386.312 70.7812 385.059 72.8824 385.059 75.4744C385.059 78.0663 386.312 80.1675 387.859 80.1675Z" fill="#0E193D"/>
<path d="M370.156 88.2041H387.09C387.09 88.2041 375.362 105.987 370.156 88.2041Z" fill="white"/>
</g>
<defs>
<clipPath id="clip0_172_5326">
<rect width="339" height="416" fill="white" transform="translate(165.5 14.5)"/>
</clipPath>
</defs>
</svg>
