<svg width="517" height="385" viewBox="0 0 517 385" fill="none" xmlns="http://www.w3.org/2000/svg">
<g clip-path="url(#clip0_172_5244)">
<path d="M492.321 205.106C466.528 155.817 425.989 189.586 393.953 157.313C381.017 143.309 372.533 125.168 353.933 118.304C210.863 46.4092 94.9631 140.739 35.658 196.439C35.6402 196.562 35.6251 196.685 35.6073 196.808C26.9411 205.53 22.2484 211.096 22.2484 211.096C20.3453 240.892 24.5119 270.591 35.7566 298.311C65.7448 264.632 101.105 253.592 143.57 261.828L143.628 262.185C156.5 264.681 169.34 270.505 181.545 272.982L370.288 267.401C402.81 286.786 420.153 246.213 420.153 246.213C444.917 241.322 469.286 247.604 488.914 262.98C493.483 243.901 494.62 224.609 492.323 205.103V205.106H492.321Z" fill="#A9C3FF"/>
<path d="M481.956 158.505C464.199 103.191 442.22 42.1871 381.576 22.6639C379.843 22.0521 378.693 22.5913 378.561 24.4923C378.372 26.1552 383.994 27.2063 385.378 28.0877C429.702 45.9754 450.872 96.4058 450.682 141.221C450.835 143.212 448.988 144.442 447.36 143.515C407.587 64.8074 313.258 29.3386 228.411 42.146H228.409C228.409 42.146 98.7654 44.2249 60.5426 108.226C37.5202 138.289 23.9901 174.767 22.25 213.706L23.3338 209.932C38.6423 193.451 58.2216 173.309 82.5361 164.387C94.7002 163.465 197.677 175.025 212.26 143.268C214.813 143.762 321.466 105.01 354.743 118.646C360.45 121.124 365.653 124.52 370.35 128.839C379.386 137.152 385.046 148.231 393.958 157.312C415.855 182.878 453.659 165.315 477.84 186.589C483.178 191.143 489.766 198.736 491.931 205.496C491.999 191.59 486.449 173.235 481.956 158.504V158.505Z" fill="#6BA0FF"/>
<path d="M484.06 259.561C465.322 246.309 442.871 241.913 420.153 246.216C420.028 246.239 419.923 246.219 419.832 246.16C419.75 246.083 419.705 246.041 419.705 246.041C419.578 245.87 419.425 245.752 419.247 245.686C419.124 245.952 418.997 246.219 418.866 246.486C352.004 281.95 231.752 281.174 231.752 281.174C215.874 274.392 201.257 269.013 187.802 264.835C188.469 263.867 189.13 262.894 189.781 261.914L187.645 264.785C55.9153 223.941 35.7578 298.312 35.7578 298.312C39.1311 306.272 43.0182 313.977 47.4163 321.425C47.5424 321.636 47.6123 321.63 47.626 321.414C58.2158 320.889 473.434 300.302 475.564 300.306C475.742 300.306 475.871 300.224 475.952 300.061C481.783 288.24 486.105 275.881 488.915 262.981C487.294 261.841 485.676 260.701 484.062 259.56H484.06V259.561Z" fill="#85B5FF"/>
<path d="M502.92 309.866C502.916 304.426 500.813 300.819 496.611 299.047C495.454 298.557 493.906 298.313 491.965 298.313C465.073 298.345 438.187 298.35 411.305 298.331C411.094 298.331 410.983 298.444 410.972 298.667C410.954 298.987 411.078 299.325 411.348 299.683L415.662 309.231C415.679 309.268 415.688 309.309 415.688 309.35C415.685 309.494 415.574 309.609 415.438 309.606H357.339C358.168 333.244 354.568 357.963 349.798 381.295C349.75 381.514 349.666 381.782 349.547 382.098C396.776 382.149 444.007 382.161 491.24 382.139C496.241 382.134 500.227 380.509 502.086 375.458C502.627 373.978 502.902 371.534 502.909 368.123C502.938 348.7 502.942 329.281 502.92 309.866Z" fill="#FFA677"/>
<path d="M317.232 121.1C314.68 117.336 309.592 116.198 305.698 118.545C303.14 120.086 302.317 122.276 300.741 124.291C298.8 126.769 296.361 128.711 293.423 130.12C293.327 130.172 293.208 130.148 293.142 130.06C293.067 129.96 293.086 129.817 293.183 129.74C295.828 127.545 298.741 123.388 297.982 119.707C297.945 119.522 297.85 119.374 297.698 119.266C289.392 113.421 281.54 106.383 277.461 96.9809C275.273 92.303 274.545 87.4007 275.28 82.2739L274.85 81.7073L273.971 81.7018C274.088 82.7296 274.162 83.752 274.196 84.7675C274.163 83.7506 274.089 82.7296 273.971 81.7018C270.594 81.5198 267.296 81.7032 264.079 82.252C240.647 86.8163 227.221 108.409 236.447 131.178C236.638 132.339 236.938 133.439 236.982 134.62C237.271 142.48 237.968 149.949 240.909 157.324C245.893 169.82 257.623 174.727 270.619 172.386C284.171 168.289 297.738 157.765 301.277 143.418L301.321 142.736L302.624 142.698C313.999 144.517 323.836 130.828 317.233 121.1H317.232Z" fill="#FFBFA7"/>
<path d="M148.604 0.133891C141.405 2.86152 135.534 5.21963 130.989 7.20959C114.913 14.2511 100.397 23.9517 87.4392 36.3144C87.3159 36.4348 87.1734 36.5238 87.0145 36.5813L86.054 36.9248C86.039 28.3108 86.0266 19.6968 86.0157 11.0827C86.0116 8.54808 86.2623 6.65804 86.7679 5.41261C88.1969 1.87886 91.1496 0.084621 95.6245 0.0298768C104.737 -0.0850862 113.936 0.170843 122.978 0.0681978C131.521 -0.0330791 140.064 -0.0111814 148.602 0.133891H148.604Z" fill="#598EFF"/>
<path d="M192.443 50.3727C192.367 36.7948 192.339 23.1908 192.361 9.56224C192.366 5.65624 190.905 2.61656 187.387 1.00434C186.239 0.474694 184.499 0.194129 182.169 0.165389C170.981 0.0230535 159.794 0.0134732 148.603 0.132542C141.404 2.86017 135.533 5.21828 130.988 7.20824C114.913 14.2497 100.396 23.9518 87.4385 36.313C87.3152 36.4321 87.1727 36.5224 87.0138 36.5799L86.0547 36.9234C86.0588 80.7626 86.0615 124.602 86.0657 168.44C86.0657 169.155 86.2986 170.42 86.763 172.236C88.4209 174.27 90.3556 175.342 92.5656 175.45C94.1029 175.522 97.7721 175.483 103.571 175.329C103.116 171.832 103.297 168.425 104.11 165.104C104.83 162.169 106.374 162.114 108.817 161.286C108.999 161.224 109.085 161.098 109.078 160.91C108.933 156.589 110.84 153.846 114.799 152.684C117.438 151.911 120.051 151.017 122.706 150.244C116.129 149.954 109.543 149.859 102.948 149.961C98.586 150.032 95.8978 146.916 95.7005 142.743C95.3894 136.069 95.7279 127.937 95.7005 122.751C95.5799 101.812 95.5278 80.8735 95.5429 59.9338C95.5484 54.2691 99.0326 50.9297 104.573 50.9845C133.885 51.2733 163.196 50.8271 192.508 51.0885C192.547 50.7395 192.525 50.5 192.442 50.37V50.3727H192.443Z" fill="#4176F8"/>
<path d="M367.757 23.3496C369.155 23.3496 370.288 22.2178 370.288 20.8218C370.288 19.4257 369.155 18.2939 367.757 18.2939C366.36 18.2939 365.227 19.4257 365.227 20.8218C365.227 22.2178 366.36 23.3496 367.757 23.3496Z" fill="#85B5FF"/>
<path d="M202.344 60.4829C202.197 58.7666 202.311 57.0025 201.526 55.5094C199.716 52.0618 196.274 50.8246 192.506 51.0915C163.195 50.8301 133.884 51.2763 104.572 50.9875C99.0313 50.9327 95.547 54.2721 95.5416 59.9368C95.5265 80.8765 95.5799 101.815 95.6991 122.754C95.7265 127.94 95.3881 136.072 95.6991 142.746C95.895 146.919 98.5833 150.034 102.947 149.964C109.542 149.862 116.128 149.957 122.705 150.247C123.262 150.165 123.813 150.062 124.357 149.94L143.435 149.972C143.455 150.02 143.479 150.066 143.498 150.116C159.996 149.883 176.414 149.867 192.752 150.066C197.877 150.328 202.17 148.193 202.17 142.468C202.163 132.793 202.175 123.123 202.208 113.456C201.663 95.7957 201.708 78.1379 202.345 60.4815H202.344V60.4829Z" fill="#FEFFFE"/>
<path d="M304.823 184.406L303.651 175.129L302.097 153.493L301.279 143.416L301.323 142.735L302.626 142.696C314.001 144.515 323.84 130.826 317.235 121.098C314.683 117.335 309.596 116.196 305.702 118.543C303.144 120.084 302.32 122.274 300.744 124.29C298.803 126.767 296.364 128.709 293.427 130.119C293.317 130.179 293.181 130.137 293.125 130.026C293.074 129.928 293.1 129.807 293.187 129.738C295.831 127.543 298.744 123.387 297.985 119.705C297.948 119.52 297.854 119.372 297.701 119.264C289.396 113.419 281.543 106.382 277.464 96.9793C277.955 96.8 278.178 96.8643 278.403 97.3337C282.383 105.706 289.026 111.955 296.53 117.363C298.896 119.069 299.939 120.686 298.373 123.377C297.94 124.128 297.864 124.717 298.144 125.142C298.329 125.424 298.707 125.502 298.989 125.318C299.07 125.264 299.137 125.193 299.185 125.11C300.803 122.274 302.694 120.039 304.856 118.403C310.522 114.128 317.377 117.592 319.411 123.812C321.342 129.705 318.997 135.735 314.602 139.843C314.166 140.249 314.135 140.929 314.531 141.378C315.043 141.961 315.208 143.067 315.376 143.573C321.708 162.437 328.066 183.806 345.216 195.982C365.088 210.084 391.09 206.919 412.635 198.628C413.112 198.446 413.575 198.388 414.026 198.449C414.262 198.481 414.478 198.316 414.511 198.081C414.524 197.991 414.507 197.898 414.463 197.818C407.548 184.996 397.378 175.749 383.952 170.081C380.102 168.457 374.528 166.725 370.635 164.672C345.103 151.179 340.332 122.205 332.413 97.4802C319.598 57.4375 271.92 52.453 241.419 73.3872C227.998 82.5979 217.74 97.2297 213.782 113.196C212.073 120.092 211.962 127.119 213.449 134.277C215.2 142.67 218.662 148.477 220.26 156.098C220.38 156.675 220.119 157.149 219.66 157.443C218.525 151.457 215.832 145.834 214.261 140.987C204.522 110.864 224.661 78.9971 251.573 66.6605C263.279 61.2929 275.804 59.4562 289.146 61.1478C307.59 63.4867 321.11 72.6933 329.708 88.7704C334.522 97.7744 336.639 108.239 339.371 118.245C344.263 136.156 353.731 154.637 370.498 163.843C374.032 165.782 378.64 167.166 382.687 168.745C423.521 184.634 436.14 237.249 400.067 265.53C399.96 265.614 399.807 265.596 399.722 265.489C399.71 265.473 399.699 265.455 399.69 265.437C389.165 243.223 370.461 228.604 345.643 226.021C343.2 225.765 340.92 225.661 338.619 224.763C325.978 219.85 312.902 211.14 308.016 197.996C306.547 194.052 305.484 189.522 304.826 184.406H304.823Z" fill="#0E193D"/>
<path d="M277.463 96.9794C275.275 92.3015 274.548 87.3992 275.282 82.2724C276.533 82.0835 277.606 81.6647 278.499 81.0146C279.645 80.1811 293.142 70.4147 292.688 68.8504C292.609 68.5726 292.318 68.4125 292.04 68.4932C292.036 68.4932 292.032 68.496 292.028 68.4973C285.762 70.4695 279.83 75.3828 275.286 79.9799C274.941 80.3289 274.796 80.9037 274.85 81.7071L273.972 81.7016C270.595 81.5196 267.297 81.703 264.08 82.2518C263.996 81.7222 263.722 81.5059 263.256 81.6031C253.601 83.6259 245.572 88.4448 239.169 96.0597C239.042 96.2116 238.813 96.3102 238.483 96.354C238.301 96.3827 238.147 96.4648 238.02 96.5989C229.911 105.238 226.965 115.894 226.056 127.349C225.706 131.756 223.918 158.741 221.066 160.294C220.855 160.41 220.738 160.349 220.716 160.109C220.666 159.586 220.404 159.333 219.931 159.352L219.658 157.446C220.116 157.152 220.378 156.678 220.259 156.1C218.661 148.48 215.197 142.673 213.448 134.279C211.961 127.122 212.072 120.095 213.781 113.199C217.74 97.2326 227.997 82.6022 241.418 73.3901C271.918 52.4559 319.596 57.4404 332.411 97.4831C340.329 122.208 345.102 151.182 370.634 164.675C374.528 166.729 380.1 168.46 383.95 170.084C397.376 175.752 407.547 184.999 414.462 197.821C414.576 198.03 414.498 198.291 414.289 198.404C414.209 198.448 414.117 198.464 414.026 198.452C413.576 198.39 413.112 198.451 412.636 198.631C391.09 206.922 365.089 210.087 345.217 195.984C328.067 183.809 321.708 162.441 315.376 143.576C315.208 143.07 315.043 141.964 314.531 141.381C314.135 140.932 314.167 140.252 314.602 139.846C318.998 135.738 321.342 129.708 319.411 123.815C317.377 117.595 310.522 114.129 304.856 118.406C302.693 120.04 300.802 122.275 299.185 125.112C299.018 125.405 298.646 125.508 298.352 125.341C298.269 125.293 298.196 125.226 298.144 125.145C297.865 124.721 297.94 124.133 298.373 123.38C299.938 120.689 298.896 119.071 296.53 117.366C289.026 111.957 282.385 105.71 278.403 97.3366C278.18 96.8685 277.957 96.8028 277.465 96.9821V96.9794H277.463Z" fill="#162452"/>
<path d="M275.281 82.2721L274.851 81.7055C274.796 80.9035 274.942 80.3273 275.287 79.9783C279.829 75.3812 285.763 70.4679 292.029 68.4957C292.304 68.4095 292.599 68.5628 292.685 68.8378C292.685 68.842 292.688 68.8461 292.689 68.8502C293.141 70.4131 279.645 80.1809 278.5 81.0143C277.605 81.6644 276.534 82.0832 275.283 82.2721H275.281Z" fill="#293C71"/>
<path d="M132.126 69.231H113.421C111.286 69.231 109.555 70.9601 109.555 73.0932V73.3436C109.555 75.4767 111.286 77.2058 113.421 77.2058H132.126C134.262 77.2058 135.993 75.4767 135.993 73.3436V73.0932C135.993 70.9601 134.262 69.231 132.126 69.231Z" fill="#4176F8"/>
<path d="M264.08 82.2502C240.648 86.8145 227.222 108.407 236.448 131.176C236.638 132.337 236.939 133.437 236.982 134.619C237.271 142.478 237.969 149.947 240.909 157.322C245.894 169.818 257.624 174.726 270.619 172.384L271.715 181.432L271.873 183.044C272.484 191.236 272.953 197.751 269.397 205.355C264.762 213.831 255.257 220.323 246.798 224.425C243.914 225.825 240.695 226.109 237.517 226.609C216.718 229.889 203.483 241.099 192.642 258.535C192.541 258.698 192.436 258.702 192.331 258.546C178.48 238.01 184.276 214.902 200.097 197.739C210.436 186.517 221.414 176.576 219.931 159.347C220.404 159.329 220.665 159.581 220.716 160.103C220.738 160.343 220.854 160.404 221.065 160.288C223.918 158.736 225.706 131.75 226.056 127.343C226.967 115.888 229.911 105.233 238.02 96.5932C238.147 96.4591 238.302 96.3769 238.483 96.3482C238.813 96.3044 239.043 96.2072 239.169 96.0539C245.572 88.439 253.601 83.6202 263.256 81.5974C263.722 81.4988 263.996 81.7151 264.08 82.2461V82.2502Z" fill="#0E193D"/>
<path d="M182.677 101.179C182.799 100.191 182.096 99.2919 181.107 99.1702C180.118 99.0486 179.217 99.7509 179.096 100.739C178.974 101.727 179.677 102.626 180.666 102.748C181.655 102.87 182.556 102.167 182.677 101.179Z" fill="#4176F8"/>
<path d="M182.651 109.753C182.808 108.791 182.153 107.884 181.19 107.728C180.226 107.571 179.319 108.225 179.162 109.187C179.006 110.15 179.66 111.057 180.624 111.213C181.587 111.369 182.495 110.716 182.651 109.753Z" fill="#4176F8"/>
<path d="M281.03 114.884C277.715 113.5 275.12 112.814 271.411 112.476C271.027 112.443 270.742 112.105 270.776 111.721C270.787 111.596 270.831 111.477 270.904 111.376C272.393 109.29 282.192 111.359 282.339 113.958C282.37 114.478 281.976 114.925 281.455 114.957C281.31 114.967 281.165 114.941 281.03 114.885V114.884Z" fill="#3B4573"/>
<path d="M246.243 117.804C243.304 119.58 241.531 121.802 239.132 123.474C238.96 123.595 238.782 123.603 238.597 123.501C235.697 121.845 243.331 115.984 245.741 116.066C246.75 116.099 247.198 117.221 246.243 117.804Z" fill="#3B4573"/>
<path d="M274.951 125.5C276.166 124.997 276.744 123.604 276.24 122.39C275.737 121.176 274.343 120.599 273.127 121.102C271.911 121.605 271.334 122.997 271.838 124.212C272.341 125.426 273.735 126.003 274.951 125.5Z" fill="#293C71"/>
<path d="M169.961 102.154C170.362 102.154 170.686 101.83 170.686 101.43V99.5892C170.686 99.1896 170.362 98.8652 169.961 98.8652H110.052C108.459 98.8652 107.168 99.4948 107.168 100.271V100.75C107.168 101.526 108.46 102.155 110.052 102.155H169.961V102.154Z" fill="#4176F8"/>
<path d="M164.162 110.588C164.541 110.399 164.696 109.936 164.506 109.557C164.081 108.691 163.071 108.892 162.231 108.881C146.191 108.703 130.151 108.647 114.112 108.713C113.267 108.674 107.012 108.032 108.064 110.2C108.148 110.374 108.286 110.477 108.478 110.505C110.263 110.763 112.05 110.833 113.838 110.712L163.818 110.668C163.937 110.668 164.054 110.641 164.16 110.588H164.162Z" fill="#4176F8"/>
<path d="M187.897 123.12C172.614 123.13 157.346 123.136 142.095 123.136C141.673 123.136 140.754 123.23 139.336 123.419C139.063 123.768 139.025 124.169 139.221 124.624C155.422 124.929 171.63 124.247 187.843 124.792H187.865C188.244 124.792 188.551 124.484 188.551 124.105V123.772C188.551 123.411 188.258 123.118 187.896 123.118H187.897V123.12Z" fill="#4176F8"/>
<path d="M247.543 131.434C248.734 130.942 249.299 129.578 248.806 128.389C248.313 127.2 246.948 126.635 245.757 127.128C244.567 127.62 244.001 128.984 244.494 130.173C244.988 131.362 246.353 131.927 247.543 131.434Z" fill="#293C71"/>
<path d="M55.7499 136.624C51.497 144.462 49.261 148.858 46.0644 156.299C45.4369 157.77 44.3463 158.461 42.9131 157.46C42.6117 157.246 42.4952 156.853 42.6295 156.506C45.5013 149.156 48.9225 142.072 52.8932 135.257C53.5207 134.184 55.2978 135.257 55.7458 136.063C55.8513 136.247 55.8527 136.435 55.7513 136.624H55.7499Z" fill="#FEFFFE"/>
<path d="M272.774 150.329C266.268 157.16 258.361 159.083 251.62 150.972C249.64 148.592 251.783 147.225 253.736 146.353C259.611 143.713 265.726 141.919 272.08 140.972C280.163 139.762 275.124 147.858 272.772 150.331H272.774V150.329ZM273.172 142.696C266.868 143.601 258.312 145.453 252.826 148.754C252.553 148.92 252.466 149.274 252.631 149.548C252.678 149.623 252.74 149.687 252.815 149.735C254.855 151.037 256.403 150.678 258.972 150.112C259.905 149.905 277.851 145.16 273.811 142.824C273.616 142.712 273.392 142.666 273.172 142.698V142.696Z" fill="#FF8C5E"/>
<path d="M252.825 148.755C258.311 145.454 266.868 143.602 273.172 142.697C273.391 142.666 273.615 142.71 273.81 142.823C277.851 145.16 259.904 149.904 258.971 150.111C256.402 150.678 254.854 151.038 252.814 149.735C252.545 149.564 252.466 149.207 252.637 148.937C252.685 148.862 252.75 148.8 252.825 148.754V148.755Z" fill="#FEFFFE"/>
<path d="M301.278 143.416L302.096 153.493L301.605 155.595C301.566 155.769 301.556 155.946 301.578 156.124C301.829 158.118 299.38 160.781 298.149 162.203C291.099 170.36 282.699 176.743 272.949 181.355C272.797 181.428 272.634 181.462 272.464 181.459L271.717 181.432L270.621 172.384C284.173 168.288 297.74 157.763 301.279 143.416H301.278Z" fill="#FF8C5E"/>
<path d="M192.751 150.068C192.316 152.976 192.206 155.866 192.424 158.739C192.287 166.01 194.556 175.396 183.567 175.424C171.832 175.453 160.061 175.424 148.257 175.342C148.715 170.527 148.993 165.994 147.685 161.342C146.594 157.485 145.198 153.744 143.496 150.115C159.994 149.883 176.412 149.866 192.75 150.066H192.751V150.068Z" fill="#4176F8"/>
<path d="M26.3843 114.497C21.4272 124.722 17.2551 135.213 12.9035 145.699C12.3431 147.039 11.7814 147.957 11.2183 148.455C8.21902 151.091 3.57288 147.96 4.94165 144.13C9.56176 131.196 14.2887 119.985 19.1198 110.5C21.4326 105.963 29.1917 108.697 26.383 114.497H26.3843Z" fill="#85B5FF"/>
<path d="M4.54749 167.105C7.059 167.105 9.09498 165.072 9.09498 162.563C9.09498 160.054 7.059 158.021 4.54749 158.021C2.03598 158.021 0 160.054 0 162.563C0 165.072 2.03598 167.105 4.54749 167.105Z" fill="#85B5FF"/>
<path d="M35.6597 196.439C34.8966 201.751 34.4403 207.084 34.291 212.438C34.2745 213.047 33.8265 213.558 33.2222 213.658C31.4397 213.953 30.9807 212.885 31.0739 211.317C31.278 207.834 31.5027 204.357 31.7507 200.885C33.0852 188.985 35.5528 177.33 39.1563 165.92C39.6139 164.468 40.136 163.113 40.721 161.857C40.9498 161.367 41.3321 161.163 41.8664 161.246C43.2791 161.469 43.9175 162.221 43.4037 163.675C39.6523 174.284 37.071 185.205 35.6597 196.44V196.439Z" fill="#FEFFFE"/>
<path d="M147.686 161.344C146.595 157.487 145.199 153.745 143.497 150.117C142.806 148.36 141.62 146.947 139.936 145.878C140.028 148.837 140.088 151.8 140.124 154.765C140.088 151.8 140.028 148.839 139.936 145.88L139.221 124.623C139.025 124.171 139.063 123.769 139.336 123.421C138.863 121.497 139.087 119.215 138.315 117.656C136.697 114.373 131.87 114.498 130.578 118.152C130.525 118.302 130.418 118.375 130.263 118.375L129.815 120.337C129.949 120.337 130.019 120.403 130.02 120.539C130.172 129.726 130.046 138.896 129.634 148.048C127.449 149.159 125.139 149.893 122.704 150.248C120.048 151.022 117.436 151.915 114.797 152.689C110.837 153.851 108.931 156.592 109.076 160.914C109.083 161.103 108.997 161.229 108.815 161.29C106.372 162.118 104.829 162.173 104.108 165.109C103.294 168.428 103.114 171.835 103.568 175.334C104.971 187.209 107.192 198.98 110.233 210.648C110.501 211.682 110.589 212.721 110.495 213.764C109.644 222.952 108.785 232.142 107.915 241.332C109.155 243.732 110.669 245.911 112.457 247.868C116.608 253.352 122.054 256.673 128.794 257.832C131.589 258.043 134.243 257.681 136.756 256.748C136.971 256.669 137.071 256.514 137.056 256.285L136.222 242.695C135.527 232.287 135.131 221.866 135.032 211.433C135.027 210.85 135.415 209.995 135.763 209.527C139.868 204.011 142.902 198.121 144.87 191.857C146.491 186.704 147.62 181.201 148.257 175.346C148.715 170.531 148.993 165.998 147.684 161.346V161.344H147.686Z" fill="#FFBFA7"/>
<path d="M167.58 235.103L167.503 239.172C167.499 239.354 167.425 239.499 167.28 239.607C165.66 240.795 166.048 235.86 166.032 235.277C166.027 235.009 165.892 234.871 165.622 234.864L161.647 234.754C161.363 234.747 161.122 234.545 161.069 234.27C160.824 233.028 165.04 233.279 165.748 233.257C165.937 233.25 166.036 233.15 166.042 232.957C166.07 232.102 165.486 227.935 167.144 228.415C167.311 228.461 167.396 228.575 167.4 228.753L167.466 232.844C167.47 233.054 167.577 233.16 167.788 233.16H172.129C172.362 233.16 172.475 233.276 172.473 233.509L172.456 234.32C172.449 234.56 172.327 234.686 172.09 234.697L167.799 234.882C167.658 234.886 167.584 234.96 167.581 235.105H167.58V235.103Z" fill="#FF8C5E"/>
<path d="M461.346 266.959V268.158C461.346 268.346 461.193 268.501 461.003 268.501H460.997L455.407 268.397C455.218 268.394 455.062 268.545 455.058 268.735V268.746L455.123 274.705C455.126 274.892 454.978 275.047 454.79 275.054L453.798 275.087C453.609 275.092 453.45 274.945 453.443 274.754V268.834C453.443 268.65 453.3 268.5 453.116 268.49L447.019 268.234C446.834 268.226 446.689 268.071 446.691 267.885L446.697 267.024C446.697 266.836 446.85 266.681 447.041 266.681L452.963 266.615C453.146 266.612 453.296 266.466 453.301 266.283L453.486 260.051C453.491 259.867 453.644 259.719 453.83 259.719H454.736C454.925 259.719 455.079 259.872 455.079 260.062V266.447C455.079 266.636 455.233 266.79 455.423 266.79H455.434L460.992 266.617C461.181 266.611 461.34 266.759 461.346 266.949V266.96V266.959Z" fill="#FEFFFE"/>
<path d="M178.518 277.237C172.741 285.14 166.427 292.584 159.578 299.57L178.518 277.237Z" fill="#4176F8"/>
<path d="M98.5495 331.073L81.9393 330.958L50.2617 330.832C50.3193 325.341 50.3302 319.887 50.2946 314.469C50.2549 308.923 52.4635 305.353 56.9206 303.754C58.3387 303.246 60.5076 302.994 63.426 303.003C72.7114 303.025 81.9969 303.03 91.2809 303.019C93.2005 303.014 96.5327 303.308 99.1825 303.041C99.362 303.019 99.5251 303.149 99.5456 303.332C99.5484 303.352 99.5484 303.371 99.547 303.39C98.9619 312.665 98.629 321.892 98.5495 331.073Z" fill="#598EFF"/>
<path d="M149.973 303.176L155.96 303.138C156.505 303.134 156.579 303.321 156.184 303.699L151.314 308.329C151.267 308.311 151.221 308.295 151.177 308.28C151.082 308.247 151.026 308.181 151.008 308.084L149.973 303.176Z" fill="#4176F8"/>
<path d="M362.261 313.233L362.534 313.777C363.362 336.057 359.763 359.353 354.992 381.344C354.946 381.551 354.861 381.804 354.742 382.101C309.98 382.158 265.218 382.158 220.454 382.101C219.718 382.101 217.177 381.633 216.637 382.117L216.207 380.368C214.293 369.714 212.117 359.021 210.819 348.273C210.237 343.487 209.625 338.707 208.982 333.93C208.619 329.608 208.492 325.227 208.6 320.786C211.272 327.12 214.279 332.356 217.619 336.496C226.088 346.994 238.446 351.662 252.188 351.143C267.049 350.587 281.695 343.599 294.86 337.264C312.899 328.576 332.259 319.163 351.323 314.712C354.192 314.044 357.65 313.753 361.7 313.84C362.094 313.851 362.284 313.595 362.262 313.23V313.233H362.261Z" fill="#D8E5FF"/>
<path d="M50.2624 330.832L81.94 330.957C81.7222 331.342 81.4057 331.52 80.9905 331.491C80.87 331.484 80.8439 331.534 80.9083 331.638C81.2605 332.204 81.4276 332.837 81.4098 333.533C81.3591 335.505 81.5879 337.445 82.0962 339.351C82.821 342.086 82.2428 345.931 82.3689 349.172C82.5429 353.579 82.2867 357.898 82.4292 364.397C82.5224 368.776 82.9526 375.814 82.8923 381.549C82.8923 381.727 82.98 381.829 83.154 381.855L83.9829 381.98C76.9706 382.002 69.9568 382.012 62.9444 382.008C59.5301 382.004 57.1433 381.72 55.7841 381.158C51.8737 379.529 50.1679 376.146 50.1624 371.914C50.1336 358.194 50.1665 344.5 50.2611 330.832H50.2624Z" fill="#FFA677"/>
<path d="M81.9402 330.958L98.5504 331.072C99.3354 348.678 100.737 371.344 118.068 381.302L118.771 381.868C118.742 381.905 118.713 381.941 118.683 381.978C118.637 382.035 118.574 382.065 118.498 382.065L83.9844 381.983L83.1555 381.857C82.9815 381.831 82.8938 381.73 82.8938 381.552C82.9541 375.816 82.5225 368.779 82.4307 364.399C82.2895 357.901 82.5458 353.582 82.3704 349.175C82.2443 345.934 82.8225 342.088 82.0977 339.354C81.5894 337.447 81.3592 335.508 81.4113 333.536C81.4291 332.839 81.2619 332.207 80.9098 331.64C80.8441 331.535 80.8715 331.486 80.992 331.494C81.4058 331.523 81.7223 331.345 81.9415 330.96V330.958H81.9402Z" fill="#FF8C5E"/>
<path d="M208.979 333.932C209.623 338.707 210.235 343.487 210.816 348.275C212.114 359.022 214.289 369.715 216.203 380.37C216.135 380.359 216.076 380.363 216.029 380.381C215.964 380.41 215.924 380.39 215.909 380.321C213.945 371.373 212.352 362.359 211.126 353.281C210.935 351.87 210.384 349.691 210.373 347.796C210.371 347.6 210.21 347.444 210.014 347.447C209.927 347.447 209.843 347.481 209.779 347.54C197.934 358.265 184.83 366.604 170.209 372.548C168.133 373.394 166.074 374.277 164.031 375.195L164.146 374.128L164.441 373.833C180.91 363.473 196.294 348.161 208.977 333.933H208.979V333.932Z" fill="#4176F8"/>
<path d="M216.207 380.369L216.638 382.118C201.525 382.144 186.41 382.151 171.293 382.14C169.373 382.14 165.933 382.368 163.195 382.118C163.901 379.862 164.18 377.555 164.035 375.194C166.078 374.276 168.137 373.393 170.213 372.547C184.834 366.605 197.938 358.264 209.783 347.539C209.927 347.406 210.151 347.415 210.284 347.559C210.343 347.623 210.376 347.707 210.377 347.794C210.388 349.69 210.939 351.869 211.13 353.28C212.355 362.359 213.949 371.371 215.913 380.319C215.928 380.388 215.968 380.408 216.033 380.38C216.08 380.362 216.139 380.358 216.207 380.369Z" fill="#598EFF"/>
<path d="M164.151 374.126L164.036 375.194C164.181 377.555 163.902 379.862 163.196 382.118C158.66 382.292 154.109 382.259 149.547 382.019C154.608 379.786 159.475 377.155 164.151 374.126Z" fill="#FF8C5E"/>
<path d="M303.452 172.358L302.097 153.493C294.228 170.317 271.717 181.432 271.717 181.432L271.874 183.044C271.922 183.681 271.967 184.306 272.011 184.925C272.263 192.296 270.844 209.677 253.594 220.694C253.594 220.694 263.912 258.95 306.981 233.917C310.087 232.322 312.981 230.477 315.527 228.464C315.751 228.286 315.978 228.104 316.204 227.918C319.7 225.416 323.379 222.538 327.254 219.238C327.254 219.238 306.007 201.641 303.452 172.359V172.358Z" fill="#FFBFA7"/>
<path d="M418.593 308.695L397.914 261.914C376.553 220.076 335.776 217.844 327.314 217.844C326.303 217.844 325.752 217.875 325.752 217.875C306.318 233.917 291.677 239.15 280.846 239.15C260.505 239.15 253.596 220.693 253.596 220.693C250.986 220.288 248.458 220.099 246.013 220.099C212.822 220.099 195 254.908 195 254.908L149.973 311.716C154.127 329.547 161.034 335.595 168.494 335.595C184.229 335.595 202.422 308.696 202.422 308.696C208.298 335.501 226.166 350.412 226.166 350.412C232.614 355.431 240.722 357.399 249.489 357.399C273.388 357.399 302.146 342.75 315.213 335.307C318.733 333.302 321.98 330.871 325.015 328.189C335.987 318.49 357.256 317.959 361.78 317.959C362.336 317.959 362.639 317.967 362.639 317.967L357.806 275.844L377.005 308.331L418.591 308.696L418.593 308.695Z" fill="#E8F0FE"/>
<path d="M448.981 382.151L420.689 313.765C420.708 313.761 420.728 313.761 420.748 313.752C420.869 313.691 420.919 313.545 420.859 313.423L418.592 308.695L416.545 304.425C415.905 304.225 415.281 304.014 414.67 303.792C414.026 303.557 413.384 303.438 412.745 303.438C400.893 303.42 389.038 303.42 377.184 303.438C376.432 303.443 375.733 303.95 375.107 302.975C369.385 294.023 363.618 284.979 357.809 275.843C357.34 275.105 357.174 275.169 357.313 276.033L358.469 288.541C358.779 294.921 358.876 301.405 359.683 307.973C359.901 309.735 359.939 311.455 360.03 313.232L360.767 313.392L367.133 382.234H380.645L380.656 382.12L448.985 382.149H448.981V382.151Z" fill="#D8E5FF"/>
<path d="M140.424 45.2855C149.079 45.2855 156.094 38.2775 156.094 29.6327C156.094 20.988 149.079 13.98 140.424 13.98C131.77 13.98 124.754 20.988 124.754 29.6327C124.754 38.2775 131.77 45.2855 140.424 45.2855Z" fill="#FF8C5E"/>
<path d="M149.45 27.4937H142.568V20.6191H138.285V27.4937H131.402V31.7733H138.285V38.6478H142.568V31.7733H149.45V27.4937Z" fill="#FEFFFE"/>
<path d="M136.224 242.691C139.044 243.459 141.743 245.186 141.967 248.28C142.312 253.033 142.867 257.669 143.63 262.187C145.033 275.079 146.95 287.799 149.378 300.35C149.243 301.334 149.441 302.277 149.972 303.178L151.008 308.086C151.026 308.184 151.082 308.248 151.177 308.281C151.221 308.296 151.266 308.313 151.314 308.331L151.193 308.543C151.127 308.666 151.11 308.797 151.138 308.935C152.545 315.091 154.187 322.145 157.704 327.009C164.085 335.829 175.379 330.512 181.884 325.37C197.524 313.021 207.161 293.166 215.084 275.255C215.15 275.127 215.309 275.076 215.436 275.143C215.538 275.195 215.594 275.307 215.575 275.42C214.088 281.774 212.658 288.228 211.283 294.779C209.173 304.817 207.805 311.725 208.601 320.789C208.491 325.23 208.618 329.611 208.983 333.933C196.298 348.161 180.914 363.473 164.447 373.833C164.486 373.66 164.437 373.501 164.3 373.36C164.14 373.204 163.972 373.193 163.798 373.327L162.097 374.618C161.956 374.727 161.812 374.727 161.667 374.618C161.528 374.516 161.372 374.473 161.198 374.486C160.936 374.512 160.898 374.43 161.083 374.241L161.198 374.132C161.343 373.987 161.325 373.865 161.143 373.766L160.766 373.565C160.595 373.475 160.417 373.46 160.232 373.521C159.326 373.821 158.47 371.659 158.127 371.037C158.037 370.87 157.899 370.76 157.714 370.705C157.092 370.523 156.6 370.159 156.235 369.61C156.13 369.45 156.089 369.275 156.109 369.082C156.241 367.924 155.741 367.181 154.609 366.854C154.405 366.796 154.242 366.68 154.118 366.505L153.284 365.339C153.157 365.161 152.989 365.032 152.783 364.951C152.288 364.758 151.985 364.407 151.871 363.895C151.832 363.71 151.733 363.565 151.577 363.459C150.437 362.686 148.889 362.714 149.341 360.752C149.398 360.498 149.32 360.297 149.106 360.147L147.928 359.33C147.787 359.232 147.716 359.1 147.716 358.932C147.72 357.052 146.803 355.966 144.967 355.68C144.734 355.643 144.556 355.526 144.433 355.326L143.059 353.087C142.957 352.924 142.824 352.788 142.66 352.683L140.157 351.098C139.961 350.975 139.842 350.798 139.802 350.57C139.42 348.464 138.232 347.092 136.235 346.457C136.057 346.4 135.928 346.285 135.848 346.114C135.263 344.814 134.391 343.753 133.236 342.933C133.076 342.817 132.898 342.766 132.702 342.781L132.352 342.809C132.106 342.826 132 342.714 132.036 342.47L132.091 342.1C135.919 333.824 137.96 325.242 138.215 316.356C138.744 297.781 135.979 278.476 129.664 260.778C129.319 259.816 129.03 258.832 128.797 257.826C131.592 258.037 134.246 257.676 136.759 256.742C136.974 256.663 137.074 256.508 137.059 256.28L136.224 242.689V242.691Z" fill="#D8E5FF"/>
<path d="M136.757 256.745C136.757 256.745 112.458 257.888 107.462 238.432C107.462 238.432 80.5142 337.613 108.113 372.986C108.113 372.986 119.31 392.215 149.547 382.019C152.06 380.91 154.526 379.702 156.945 378.396C163.519 375.521 170.425 371.176 177.221 364.707C177.221 364.707 134.269 346.452 136.76 256.744H136.758L136.757 256.745Z" fill="#E8F0FE"/>
<path d="M504.098 176.133C506.17 187.303 507.413 198.523 508.832 209.786C509.017 211.225 509.316 212.26 509.727 212.89C511.92 216.225 517.231 214.432 516.926 210.378C515.897 196.683 514.309 184.622 512.163 174.198C511.135 169.211 502.928 169.796 504.098 176.133Z" fill="#85B5FF"/>
<path d="M514.701 232.231C516.884 230.99 517.646 228.217 516.404 226.036C515.161 223.856 512.385 223.095 510.202 224.336C508.019 225.577 507.257 228.35 508.5 230.531C509.742 232.711 512.519 233.472 514.701 232.231Z" fill="#85B5FF"/>
</g>
<defs>
<clipPath id="clip0_172_5244">
<rect width="517" height="385" fill="white"/>
</clipPath>
</defs>
</svg>
