<svg width="40" height="40" viewBox="0 0 40 40" fill="none" xmlns="http://www.w3.org/2000/svg">
<path fill-rule="evenodd" clip-rule="evenodd" d="M28.3368 4.57642C24.4229 4.57642 21.25 7.74929 21.25 11.6632C21.25 15.5772 24.4229 18.75 28.3368 18.75C32.2507 18.75 35.4236 15.5772 35.4236 11.6632C35.4236 7.74929 32.2507 4.57642 28.3368 4.57642ZM28.3368 2.07642C23.0422 2.07642 18.75 6.36857 18.75 11.6632C18.75 16.9579 23.0422 21.25 28.3368 21.25C33.6315 21.25 37.9236 16.9579 37.9236 11.6632C37.9236 6.36857 33.6315 2.07642 28.3368 2.07642Z" fill="#FF692E"/>
<path fill-rule="evenodd" clip-rule="evenodd" d="M9.71582 7.88782C7.79739 7.88782 6.24219 9.44302 6.24219 11.3615V23.96C6.24219 25.8785 7.79739 27.4337 9.71582 27.4337H12.8671C13.5575 27.4337 14.1171 27.9933 14.1171 28.6837V32.382L19.9595 27.7076C20.1811 27.5303 20.4566 27.4337 20.7404 27.4337H28.6137C30.5321 27.4337 32.0873 25.8785 32.0873 23.96V23.3348C32.0873 22.6444 32.647 22.0848 33.3373 22.0848C34.0277 22.0848 34.5873 22.6444 34.5873 23.3348V23.96C34.5873 27.2592 31.9128 29.9337 28.6137 29.9337H21.1789L13.6481 35.959C13.2728 36.2592 12.7588 36.3177 12.3257 36.1096C11.8926 35.9015 11.6171 35.4635 11.6171 34.983V29.9337H9.71582C6.41667 29.9337 3.74219 27.2592 3.74219 23.96V11.3615C3.74219 8.0623 6.41667 5.38782 9.71582 5.38782H16.6637C17.3541 5.38782 17.9137 5.94746 17.9137 6.63782C17.9137 7.32817 17.3541 7.88782 16.6637 7.88782H9.71582Z" fill="#FF692E"/>
<path fill-rule="evenodd" clip-rule="evenodd" d="M30.6749 10.3223C30.2992 10.2984 29.9304 10.4338 29.6593 10.6956L29.6593 10.6956C29.3904 10.9551 29.2425 11.3148 29.2503 11.6876C29.26 12.2234 29.5876 12.7033 30.0851 12.9067C30.59 13.1131 31.1696 12.9937 31.5519 12.6045C31.9341 12.2153 32.043 11.6336 31.8275 11.1325C31.626 10.6638 31.1782 10.3527 30.6749 10.3223ZM30.5934 11.6632L30.5896 11.6648L30.5934 11.6632Z" fill="#FF692E"/>
<path fill-rule="evenodd" clip-rule="evenodd" d="M26.0298 10.3206C26.0469 10.32 26.0639 10.3198 26.0809 10.3198C26.0878 10.3198 26.0948 10.3199 26.1017 10.32C26.8343 10.3331 27.4212 10.9308 27.4211 11.6634L27.4211 11.664C27.4207 12.3996 26.8287 12.998 26.0932 13.0064C25.3577 13.0149 24.7521 12.4302 24.7348 11.6949L24.7348 11.6949C24.7174 10.9595 25.2947 10.3469 26.0298 10.3206Z" fill="#FF692E"/>
</svg>
