<svg width="40" height="40" viewBox="0 0 40 40" fill="none" xmlns="http://www.w3.org/2000/svg">
<path fill-rule="evenodd" clip-rule="evenodd" d="M5.42967 17.4911C6.32615 9.44272 13.2794 3.44873 21.372 3.7481C29.4645 4.04748 35.9559 10.5388 36.2553 18.6314C36.5547 26.724 30.5607 33.6772 22.5123 34.5737C21.8262 34.6501 21.208 34.1559 21.1316 33.4698C21.0552 32.7837 21.5494 32.1655 22.2356 32.0891C28.9829 31.3375 34.008 25.5083 33.757 18.7238C33.506 11.9394 28.064 6.49738 21.2795 6.2464C14.4951 5.99541 8.66587 11.0205 7.9143 17.7678C7.83788 18.4539 7.21972 18.9482 6.53361 18.8718C5.84749 18.7953 5.35324 18.1772 5.42967 17.4911Z" fill="#FF692E"/>
<path fill-rule="evenodd" clip-rule="evenodd" d="M18.52 21.6548L14.8914 32.2486L13.216 30.227C12.992 29.9566 12.6645 29.7929 12.3137 29.776C11.963 29.7591 11.6213 29.8905 11.3723 30.1381L7.89167 33.5986L6.40134 32.0997L9.87747 28.6391C10.1262 28.3914 10.2594 28.0506 10.2444 27.6999C10.2294 27.3492 10.0677 27.021 9.79874 26.7954L7.81025 25.1279L18.52 21.6548ZM5.24578 31.4866L4.36375 30.6006L7.14444 27.8323L4.47416 25.5931C4.12584 25.301 3.96355 24.8428 4.05034 24.3966C4.13714 23.9504 4.45933 23.5864 4.89175 23.4462L18.4807 19.0394C19.243 18.7923 20.0796 18.9971 20.6415 19.5684C21.2033 20.1397 21.3941 20.9795 21.1342 21.7375L16.5341 35.1678C16.3876 35.5957 16.0214 35.911 15.5766 35.9924C15.1317 36.0738 14.6776 35.9086 14.3891 35.5604L12.1644 32.8759L9.38593 35.6383C9.38547 35.6388 9.385 35.6393 9.38453 35.6397C8.98795 36.0356 8.45049 36.2579 7.8901 36.2579C7.32905 36.2579 6.79098 36.0351 6.39427 35.6383L7.27816 34.7545L6.39177 35.6358L4.36181 33.5942C4.36132 33.5937 4.36083 33.5932 4.36034 33.5927C3.96452 33.1961 3.74219 32.6587 3.74219 32.0984C3.74219 31.5373 3.96507 30.9992 4.36181 30.6025L5.24578 31.4866Z" fill="#FF692E"/>
<path fill-rule="evenodd" clip-rule="evenodd" d="M12.1808 15.8862C13.7936 12.1507 17.6972 9.9468 21.7288 10.4956C25.7604 11.0444 28.9329 14.2115 29.4885 18.2422C30.0441 22.2729 27.8468 26.1801 24.114 27.7992C23.4807 28.074 22.7446 27.7832 22.4699 27.1499C22.1951 26.5165 22.4859 25.7804 23.1192 25.5057C25.8228 24.333 27.4143 21.503 27.0119 18.5836C26.6095 15.6642 24.3117 13.3703 21.3916 12.9728C18.4715 12.5753 15.6442 14.1715 14.4761 16.8771C14.2024 17.5109 13.4668 17.8029 12.833 17.5293C12.1992 17.2556 11.9072 16.52 12.1808 15.8862Z" fill="#FF692E"/>
</svg>
