<svg width="40" height="40" viewBox="0 0 40 40" fill="none" xmlns="http://www.w3.org/2000/svg">
<path fill-rule="evenodd" clip-rule="evenodd" d="M19.9984 6.24377C12.4011 6.24377 6.24219 12.4027 6.24219 20C6.24219 27.5974 12.4011 33.7563 19.9984 33.7563C20.6888 33.7563 21.2484 34.3159 21.2484 35.0063C21.2484 35.6966 20.6888 36.2563 19.9984 36.2563C11.0204 36.2563 3.74219 28.9781 3.74219 20C3.74219 11.0219 11.0204 3.74377 19.9984 3.74377C28.9765 3.74377 36.2547 11.0219 36.2547 20C36.2547 20.6904 35.695 21.25 35.0047 21.25C34.3143 21.25 33.7547 20.6904 33.7547 20C33.7547 12.4027 27.5958 6.24377 19.9984 6.24377Z" fill="#FF692E"/>
<path fill-rule="evenodd" clip-rule="evenodd" d="M4.59375 14.9979C4.59375 14.3076 5.15339 13.7479 5.84375 13.7479H33.9688C34.6592 13.7479 35.2188 14.3076 35.2188 14.9979C35.2188 15.6883 34.6592 16.2479 33.9688 16.2479H5.84375C5.15339 16.2479 4.59375 15.6883 4.59375 14.9979Z" fill="#FF692E"/>
<path fill-rule="evenodd" clip-rule="evenodd" d="M4.60156 25.0021C4.60156 24.3118 5.16121 23.7521 5.85156 23.7521H20.0008C20.6911 23.7521 21.2508 24.3118 21.2508 25.0021C21.2508 25.6925 20.6911 26.2521 20.0008 26.2521H5.85156C5.16121 26.2521 4.60156 25.6925 4.60156 25.0021Z" fill="#FF692E"/>
<path fill-rule="evenodd" clip-rule="evenodd" d="M15.8623 6.13152C16.7152 4.65439 18.2915 3.7442 19.9976 3.7442C21.703 3.7442 23.2788 4.65375 24.132 6.12998C26.6218 10.3284 27.9294 15.1222 27.9163 20.0034C27.9144 20.6937 27.3533 21.2519 26.6629 21.25C25.9726 21.2482 25.4144 20.687 25.4163 19.9967C25.4282 15.5641 24.2401 11.211 21.978 7.3991L21.9696 7.38463C21.5636 6.67909 20.8116 6.2442 19.9976 6.2442C19.1836 6.2442 18.4316 6.67909 18.0256 7.38463L18.0188 7.39632L18.0188 7.39628C13.4312 15.1732 13.4312 24.8285 18.0188 32.6054L18.0238 32.6141L18.0238 32.6141C18.4327 33.3201 19.186 33.7557 20.0019 33.758C20.6922 33.7599 21.2503 34.321 21.2484 35.0114C21.2465 35.7018 20.6853 36.2598 19.995 36.2579C18.2913 36.2532 16.7184 35.3446 15.8631 33.8716C10.8167 25.3134 10.8165 14.6899 15.8623 6.13152Z" fill="#FF692E"/>
<path fill-rule="evenodd" clip-rule="evenodd" d="M30.0054 24.5847C27.0123 24.5847 24.5859 27.0111 24.5859 30.0042C24.5859 32.9972 27.0123 35.4236 30.0054 35.4236C32.9985 35.4236 35.4248 32.9972 35.4248 30.0042C35.4248 27.0111 32.9985 24.5847 30.0054 24.5847ZM22.0859 30.0042C22.0859 25.6304 25.6316 22.0847 30.0054 22.0847C34.3792 22.0847 37.9248 25.6304 37.9248 30.0042C37.9248 34.3779 34.3792 37.9236 30.0054 37.9236C25.6316 37.9236 22.0859 34.3779 22.0859 30.0042Z" fill="#FF692E"/>
<path fill-rule="evenodd" clip-rule="evenodd" d="M32.9636 28.0849C33.4518 28.573 33.4518 29.3645 32.9636 29.8526L30.3692 32.447C30.1347 32.6816 29.8166 32.8133 29.485 32.8132C29.1534 32.8131 28.8354 32.6812 28.601 32.4466L27.0453 30.8893C26.5574 30.4008 26.5579 29.6094 27.0463 29.1215C27.5347 28.6336 28.3262 28.634 28.814 29.1224L29.4858 29.7949L31.1959 28.0849C31.684 27.5967 32.4755 27.5967 32.9636 28.0849Z" fill="#FF692E"/>
</svg>
