<svg width="34" height="34" viewBox="0 0 34 34" fill="none" xmlns="http://www.w3.org/2000/svg">
<rect width="34" height="34" rx="17" fill="#358794"/>
<path fill-rule="evenodd" clip-rule="evenodd" d="M12.417 10.3333C12.417 9.64313 12.9769 9.08325 13.667 9.08325H20.3337C21.0238 9.08325 21.5837 9.64313 21.5837 10.3333V24.4999C21.5837 24.73 21.3971 24.9166 21.167 24.9166C20.9369 24.9166 20.7503 24.73 20.7503 24.4999V10.3333C20.7503 10.1034 20.5635 9.91659 20.3337 9.91659H13.667C13.4371 9.91659 13.2503 10.1034 13.2503 10.3333V24.4999C13.2503 24.73 13.0638 24.9166 12.8337 24.9166C12.6035 24.9166 12.417 24.73 12.417 24.4999V10.3333Z" fill="white"/>
<path fill-rule="evenodd" clip-rule="evenodd" d="M8.25 15.3333C8.25 14.6431 8.80988 14.0833 9.5 14.0833H12.8333C13.0635 14.0833 13.25 14.2698 13.25 14.4999C13.25 14.73 13.0635 14.9166 12.8333 14.9166H9.5C9.27012 14.9166 9.08333 15.1034 9.08333 15.3333V24.4999C9.08333 24.73 8.89679 24.9166 8.66667 24.9166C8.43655 24.9166 8.25 24.73 8.25 24.4999V15.3333Z" fill="white"/>
<path fill-rule="evenodd" clip-rule="evenodd" d="M20.75 14.4999C20.75 14.2698 20.9365 14.0833 21.1667 14.0833H24.5C25.1901 14.0833 25.75 14.6431 25.75 15.3333V24.4999C25.75 24.73 25.5635 24.9166 25.3333 24.9166C25.1032 24.9166 24.9167 24.73 24.9167 24.4999V15.3333C24.9167 15.1034 24.7299 14.9166 24.5 14.9166H21.1667C20.9365 14.9166 20.75 14.73 20.75 14.4999Z" fill="white"/>
<path fill-rule="evenodd" clip-rule="evenodd" d="M14.5 21.1667C14.5 20.9365 14.6865 20.75 14.9167 20.75H19.0833C19.3135 20.75 19.5 20.9365 19.5 21.1667C19.5 21.3968 19.3135 21.5833 19.0833 21.5833H14.9167C14.6865 21.5833 14.5 21.3968 14.5 21.1667Z" fill="white"/>
<path fill-rule="evenodd" clip-rule="evenodd" d="M18.2507 20.75C18.4808 20.75 18.6673 20.9365 18.6673 21.1667V24.5C18.6673 24.7301 18.4808 24.9167 18.2507 24.9167C18.0205 24.9167 17.834 24.7301 17.834 24.5V21.1667C17.834 20.9365 18.0205 20.75 18.2507 20.75Z" fill="white"/>
<path fill-rule="evenodd" clip-rule="evenodd" d="M15.7507 20.75C15.9808 20.75 16.1673 20.9365 16.1673 21.1667V24.5C16.1673 24.7301 15.9808 24.9167 15.7507 24.9167C15.5205 24.9167 15.334 24.7301 15.334 24.5V21.1667C15.334 20.9365 15.5205 20.75 15.7507 20.75Z" fill="white"/>
<path fill-rule="evenodd" clip-rule="evenodd" d="M14.917 15.7499C14.917 15.5198 15.1035 15.3333 15.3337 15.3333H18.667C18.8971 15.3333 19.0837 15.5198 19.0837 15.7499C19.0837 15.98 18.8971 16.1666 18.667 16.1666H15.3337C15.1035 16.1666 14.917 15.98 14.917 15.7499Z" fill="white"/>
<path fill-rule="evenodd" clip-rule="evenodd" d="M14.917 18.2499C14.917 18.0198 15.1035 17.8333 15.3337 17.8333H18.667C18.8971 17.8333 19.0837 18.0198 19.0837 18.2499C19.0837 18.48 18.8971 18.6666 18.667 18.6666H15.3337C15.1035 18.6666 14.917 18.48 14.917 18.2499Z" fill="white"/>
<path fill-rule="evenodd" clip-rule="evenodd" d="M14.917 13.2499C14.917 13.0198 15.1035 12.8333 15.3337 12.8333H18.667C18.8971 12.8333 19.0837 13.0198 19.0837 13.2499C19.0837 13.48 18.8971 13.6666 18.667 13.6666H15.3337C15.1035 13.6666 14.917 13.48 14.917 13.2499Z" fill="white"/>
<path fill-rule="evenodd" clip-rule="evenodd" d="M10.75 18.2499C10.75 18.0198 10.9365 17.8333 11.1667 17.8333H12.8333C13.0635 17.8333 13.25 18.0198 13.25 18.2499C13.25 18.48 13.0635 18.6666 12.8333 18.6666H11.1667C10.9365 18.6666 10.75 18.48 10.75 18.2499Z" fill="white"/>
<path fill-rule="evenodd" clip-rule="evenodd" d="M10.75 21.1667C10.75 20.9365 10.9365 20.75 11.1667 20.75H12.8333C13.0635 20.75 13.25 20.9365 13.25 21.1667C13.25 21.3968 13.0635 21.5833 12.8333 21.5833H11.1667C10.9365 21.5833 10.75 21.3968 10.75 21.1667Z" fill="white"/>
<path fill-rule="evenodd" clip-rule="evenodd" d="M20.75 18.2499C20.75 18.0198 20.9365 17.8333 21.1667 17.8333H22.8333C23.0635 17.8333 23.25 18.0198 23.25 18.2499C23.25 18.48 23.0635 18.6666 22.8333 18.6666H21.1667C20.9365 18.6666 20.75 18.48 20.75 18.2499Z" fill="white"/>
<path fill-rule="evenodd" clip-rule="evenodd" d="M20.75 21.1667C20.75 20.9365 20.9365 20.75 21.1667 20.75H22.8333C23.0635 20.75 23.25 20.9365 23.25 21.1667C23.25 21.3968 23.0635 21.5833 22.8333 21.5833H21.1667C20.9365 21.5833 20.75 21.3968 20.75 21.1667Z" fill="white"/>
<path fill-rule="evenodd" clip-rule="evenodd" d="M7.41699 24.4999C7.41699 24.2698 7.60354 24.0833 7.83366 24.0833H26.167C26.3971 24.0833 26.5837 24.2698 26.5837 24.4999C26.5837 24.73 26.3971 24.9166 26.167 24.9166H7.83366C7.60354 24.9166 7.41699 24.73 7.41699 24.4999Z" fill="white"/>
</svg>
