<svg width="34" height="34" viewBox="0 0 34 34" fill="none" xmlns="http://www.w3.org/2000/svg">
<rect width="34" height="34" rx="17" fill="#FF692E"/>
<path fill-rule="evenodd" clip-rule="evenodd" d="M17 15.5414C20.6704 15.4305 23.7436 18.3054 23.8746 21.9778C23.8749 21.9852 23.875 21.9927 23.875 22.0001V22.0527C23.875 22.3978 23.5952 22.6777 23.25 22.6777C22.9048 22.6777 22.625 22.3978 22.625 22.0527V22.0115C22.5126 19.0262 20.008 16.692 17.0208 16.7914C17.0069 16.7919 16.9931 16.7919 16.9792 16.7914C13.992 16.692 11.4874 19.0262 11.375 22.0115V22.0527C11.375 22.3978 11.0952 22.6777 10.75 22.6777C10.4048 22.6777 10.125 22.3978 10.125 22.0527V22.0001C10.125 21.9927 10.1251 21.9852 10.1254 21.9778C10.2564 18.3054 13.3296 15.4305 17 15.5414Z" fill="white"/>
<path fill-rule="evenodd" clip-rule="evenodd" d="M17 13.0417C17.3452 13.0417 17.625 13.3216 17.625 13.6667V16.1667C17.625 16.5119 17.3452 16.7917 17 16.7917C16.6548 16.7917 16.375 16.5119 16.375 16.1667V13.6667C16.375 13.3216 16.6548 13.0417 17 13.0417Z" fill="white"/>
<path fill-rule="evenodd" clip-rule="evenodd" d="M14.708 13.6667C14.708 13.3216 14.9878 13.0417 15.333 13.0417H18.6663C19.0115 13.0417 19.2913 13.3216 19.2913 13.6667C19.2913 14.0119 19.0115 14.2917 18.6663 14.2917H15.333C14.9878 14.2917 14.708 14.0119 14.708 13.6667Z" fill="white"/>
<path fill-rule="evenodd" clip-rule="evenodd" d="M11.1667 22.625C10.5914 22.625 10.125 23.0914 10.125 23.6667C10.125 23.7817 10.2183 23.875 10.3333 23.875H23.6667C23.7817 23.875 23.875 23.7817 23.875 23.6667C23.875 23.0914 23.4086 22.625 22.8333 22.625H11.1667ZM8.875 23.6667C8.875 22.401 9.90101 21.375 11.1667 21.375H22.8333C24.099 21.375 25.125 22.401 25.125 23.6667C25.125 24.4721 24.4721 25.125 23.6667 25.125H10.3333C9.52792 25.125 8.875 24.4721 8.875 23.6667Z" fill="white"/>
<path fill-rule="evenodd" clip-rule="evenodd" d="M23.875 15.3333C23.875 14.9881 24.1548 14.7083 24.5 14.7083H25.3333C25.6785 14.7083 25.9583 14.9881 25.9583 15.3333C25.9583 15.6784 25.6785 15.9583 25.3333 15.9583H24.5C24.1548 15.9583 23.875 15.6784 23.875 15.3333Z" fill="white"/>
<path fill-rule="evenodd" clip-rule="evenodd" d="M8.04199 15.3333C8.04199 14.9881 8.32181 14.7083 8.66699 14.7083H9.50033C9.8455 14.7083 10.1253 14.9881 10.1253 15.3333C10.1253 15.6784 9.8455 15.9583 9.50033 15.9583H8.66699C8.32181 15.9583 8.04199 15.6784 8.04199 15.3333Z" fill="white"/>
<path fill-rule="evenodd" clip-rule="evenodd" d="M17 8.04175C17.3452 8.04175 17.625 8.32157 17.625 8.66675V9.50008C17.625 9.84526 17.3452 10.1251 17 10.1251C16.6548 10.1251 16.375 9.84526 16.375 9.50008V8.66675C16.375 8.32157 16.6548 8.04175 17 8.04175Z" fill="white"/>
<path fill-rule="evenodd" clip-rule="evenodd" d="M10.9692 10.1355C11.2133 9.89137 11.609 9.89137 11.8531 10.1355L12.4423 10.7247C12.6864 10.9688 12.6864 11.3645 12.4423 11.6086C12.1983 11.8527 11.8025 11.8527 11.5584 11.6086L10.9692 11.0193C10.7251 10.7753 10.7251 10.3795 10.9692 10.1355Z" fill="white"/>
<path fill-rule="evenodd" clip-rule="evenodd" d="M23.0312 10.1355C23.2753 10.3795 23.2753 10.7753 23.0312 11.0193L22.4419 11.6086C22.1979 11.8527 21.8021 11.8527 21.5581 11.6086C21.314 11.3645 21.314 10.9688 21.5581 10.7247L22.1473 10.1355C22.3914 9.89137 22.7871 9.89137 23.0312 10.1355Z" fill="white"/>
</svg>
