<svg width="34" height="34" viewBox="0 0 34 34" fill="none" xmlns="http://www.w3.org/2000/svg">
<rect width="34" height="34" rx="17" fill="#F39D1C"/>
<path fill-rule="evenodd" clip-rule="evenodd" d="M19.5049 22.1779C19.6676 22.0152 19.9314 22.0152 20.0941 22.1779L22.0019 24.0857L22.0021 24.0857L22.0022 24.0856V22.4726C22.0022 22.2425 22.1887 22.0559 22.4188 22.0559C22.6489 22.0559 22.8355 22.2425 22.8355 22.4726V24.0856C22.8355 24.4227 22.6324 24.7266 22.321 24.8556C22.0095 24.9846 21.651 24.9133 21.4126 24.675L21.4126 24.675L19.5049 22.7672C19.3421 22.6045 19.3421 22.3407 19.5049 22.1779Z" fill="white"/>
<path fill-rule="evenodd" clip-rule="evenodd" d="M21.585 14.9159C21.585 14.6858 21.7715 14.4993 22.0016 14.4993H22.4214C23.801 14.4993 24.9193 15.6176 24.9193 16.9972V20.3913C24.9193 21.7709 23.801 22.8893 22.4214 22.8893C22.1913 22.8893 22.0048 22.7027 22.0048 22.4726C22.0048 22.2425 22.1913 22.0559 22.4214 22.0559C23.3407 22.0559 24.086 21.3107 24.086 20.3913V16.9972C24.086 16.0779 23.3407 15.3326 22.4214 15.3326H22.0016C21.7715 15.3326 21.585 15.1461 21.585 14.9159Z" fill="white"/>
<path fill-rule="evenodd" clip-rule="evenodd" d="M15.3327 19.0845C15.5628 19.0845 15.7493 19.271 15.7493 19.5011V20.3913C15.7493 21.3106 16.4946 22.0559 17.4139 22.0559H19.8026C20.0327 22.0559 20.2192 22.2424 20.2192 22.4726C20.2192 22.7027 20.0327 22.8892 19.8026 22.8892H17.4139C16.0344 22.8892 14.916 21.7709 14.916 20.3913V19.5011C14.916 19.271 15.1026 19.0845 15.3327 19.0845Z" fill="white"/>
<path fill-rule="evenodd" clip-rule="evenodd" d="M11.578 9.91366C10.6587 9.91366 9.91341 10.6589 9.91341 11.5782V14.9188C9.91341 15.3603 10.0888 15.7837 10.401 16.0959C10.7131 16.4081 11.1365 16.5834 11.578 16.5834H11.5809C11.8111 16.5834 11.9976 16.77 11.9976 17.0001V18.6666L13.9591 16.7055C14.0373 16.6273 14.1433 16.5834 14.2538 16.5834H17.4197C17.8611 16.5834 18.2845 16.4081 18.5967 16.0959C18.9089 15.7837 19.0842 15.3603 19.0842 14.9188V11.5782C19.0842 10.6589 18.339 9.91366 17.4197 9.91366H11.578ZM9.08008 11.5782C9.08008 10.1987 10.1984 9.08032 11.578 9.08032H17.4197C18.7992 9.08032 19.9176 10.1987 19.9176 11.5782V14.9188C19.9176 15.5813 19.6544 16.2167 19.186 16.6852C18.7175 17.1536 18.0822 17.4168 17.4197 17.4168H14.4264L12.5872 19.256C12.3488 19.4944 11.9903 19.5657 11.6788 19.4367C11.3673 19.3077 11.1643 19.0037 11.1643 18.6666V17.3823C10.6552 17.2968 10.1815 17.0549 9.81169 16.6852C9.34324 16.2167 9.08008 15.5813 9.08008 14.9188V11.5782Z" fill="white"/>
<path fill-rule="evenodd" clip-rule="evenodd" d="M12.415 11.998C12.415 11.7678 12.6016 11.5813 12.8317 11.5813H15.3327C15.5629 11.5813 15.7494 11.7678 15.7494 11.998C15.7494 12.2281 15.5629 12.4146 15.3327 12.4146H12.8317C12.6016 12.4146 12.415 12.2281 12.415 11.998Z" fill="white"/>
<path fill-rule="evenodd" clip-rule="evenodd" d="M12.415 14.4992C12.415 14.2691 12.6016 14.0825 12.8317 14.0825H13.6654C13.8955 14.0825 14.0821 14.2691 14.0821 14.4992C14.0821 14.7293 13.8955 14.9159 13.6654 14.9159H12.8317C12.6016 14.9159 12.415 14.7293 12.415 14.4992Z" fill="white"/>
<path fill-rule="evenodd" clip-rule="evenodd" d="M19.084 19.5011C19.084 19.271 19.2705 19.0845 19.5007 19.0845H21.168C21.3981 19.0845 21.5847 19.271 21.5847 19.5011C21.5847 19.7313 21.3981 19.9178 21.168 19.9178H19.5007C19.2705 19.9178 19.084 19.7313 19.084 19.5011Z" fill="white"/>
</svg>
